<svg width="56" height="56" viewBox="0 0 56 56" fill="none" xmlns="http://www.w3.org/2000/svg">
<path d="M16.011 27.9451C14.096 28.5083 12.688 29.9726 12.1247 31.8313C12.0121 32.1692 11.6178 32.1692 11.5615 31.8313C10.9983 29.9163 9.53394 28.5083 7.67532 27.9451C7.33739 27.8324 7.33739 27.4382 7.67532 27.3818C9.59027 26.8186 10.9983 25.3543 11.5615 23.4956C11.6742 23.1577 12.0684 23.1577 12.1247 23.4956C12.688 25.3543 14.1523 26.7623 16.011 27.3818C16.2926 27.4382 16.2926 27.8887 16.011 27.9451Z" fill="white"/>
<path d="M49.7453 27.9451C47.8304 28.5083 46.4223 29.9726 45.8591 31.8313C45.7465 32.1692 45.3522 32.1692 45.2959 31.8313C44.7327 29.9163 43.2683 28.5083 41.4097 27.9451C41.0718 27.8324 41.0718 27.4382 41.4097 27.3818C43.3246 26.8186 44.7327 25.3543 45.2959 23.4956C45.4086 23.1577 45.8028 23.1577 45.8591 23.4956C46.4223 25.3543 47.8867 26.7623 49.7453 27.3818C50.0269 27.4382 50.0269 27.8887 49.7453 27.9451Z" fill="white"/>
<path d="M32.6828 10.9919C30.7679 11.5552 29.3598 13.0195 28.7966 14.8781C28.684 15.2161 28.2897 15.2161 28.2334 14.8781C27.6702 12.9632 26.2058 11.5552 24.3472 10.9919C24.0093 10.8793 24.0093 10.485 24.3472 10.4287C26.2621 9.8655 27.6702 8.40113 28.2334 6.54251C28.346 6.20458 28.7403 6.20458 28.7966 6.54251C29.3598 8.40113 30.8242 9.80918 32.6828 10.4287C33.0208 10.485 33.0208 10.9356 32.6828 10.9919Z" fill="white"/>
<path d="M32.6828 44.5603C30.7679 45.1235 29.3598 46.5879 28.7966 48.4465C28.684 48.7844 28.2897 48.7844 28.2334 48.4465C27.6702 46.5316 26.2058 45.1235 24.3472 44.5603C24.0093 44.4477 24.0093 44.0534 24.3472 43.9971C26.2621 43.4339 27.6702 41.9695 28.2334 40.1109C28.346 39.7729 28.7403 39.7729 28.7966 40.1109C29.3598 41.9695 30.8242 43.3775 32.6828 43.9971C32.9644 44.0534 32.9644 44.504 32.6828 44.5603Z" fill="white"/>
<path d="M25.5246 40.5607C23.497 36.3366 20.174 33.0136 16.0625 30.9297" stroke="white" stroke-width="1.68966" stroke-miterlimit="10"/>
<path d="M31.6094 40.5607C33.637 36.3366 36.96 33.0136 41.0714 30.9297" stroke="white" stroke-width="1.68966" stroke-miterlimit="10"/>
<path d="M31.3828 14.4844C33.523 19.0464 37.1276 22.7074 41.8587 24.7913" stroke="white" stroke-width="1.68966" stroke-miterlimit="10"/>
<path d="M16.0625 24.5097C20.343 22.3131 23.666 18.8212 25.6935 14.4844" stroke="white" stroke-width="1.68966" stroke-miterlimit="10"/>
<path d="M28.0032 55.0358C42.934 55.0358 55.0377 42.932 55.0377 28.0013C55.0377 13.0705 42.934 0.966797 28.0032 0.966797C13.0725 0.966797 0.96875 13.0705 0.96875 28.0013C0.96875 42.932 13.0725 55.0358 28.0032 55.0358Z" stroke="white" stroke-width="1.68966" stroke-miterlimit="10"/>
<path d="M22.5469 28.2823L27.0526 31.718L34.0929 24.6777" stroke="white" stroke-width="1.68966" stroke-miterlimit="10"/>
</svg>
