<svg width="180" height="60" viewBox="0 0 180 60" fill="none" xmlns="http://www.w3.org/2000/svg">
<path d="M26.0972 11.0662C23.6886 11.2635 21.3643 11.7495 19.4613 12.4397C13.5697 14.581 9.90421 18.5958 9.09667 23.7799C8.97027 24.5758 8.99134 26.8368 9.1388 27.7876C9.71461 31.6123 12.1583 35.0355 15.9292 37.2823C18.717 38.9376 22.1016 39.9519 26.0059 40.304C27.3261 40.4238 30.9073 40.304 32.2064 40.0927C34.931 39.656 37.0095 39.0221 39.1232 37.9726C42.7677 36.1765 45.401 33.4225 46.5947 30.1684C47.0722 28.8653 47.3039 27.6679 47.3531 26.1747C47.5848 19.5396 43.1679 14.2288 35.577 12.0171C34.4675 11.6931 32.9718 11.3902 31.5744 11.2071C30.3315 11.0381 27.3331 10.9676 26.0972 11.0662ZM31.1531 15.9615C36.7778 16.849 40.331 19.4762 41.3843 23.5263C41.5458 24.1391 41.5599 24.3363 41.5599 25.6464C41.5599 27.2312 41.5037 27.6468 41.1315 28.6681C39.8324 32.2462 36.4829 34.5424 31.3497 35.3806C30.0577 35.5919 26.4413 35.613 25.1843 35.4158C20.7463 34.7185 17.7268 33.014 15.9713 30.2177C14.3 27.5552 14.3071 23.8362 15.9924 21.0963C16.505 20.251 17.8813 18.8635 18.7942 18.2577C20.7885 16.9265 23.2251 16.1446 26.343 15.8277C27.0662 15.7572 30.4439 15.8488 31.1531 15.9615Z" fill="white"/>
<path d="M67.2122 11.0726C63.3149 11.4036 59.9092 12.4531 56.9108 14.2492C56.4192 14.545 56.0049 14.7634 55.9839 14.7422C55.9628 14.7211 55.9417 14.1717 55.9417 13.5167V12.3334H53.0627H50.1836V30.9636V49.5938H53.0627H55.9417V43.0785C55.9417 39.4933 55.9628 36.5632 55.9839 36.5632C56.0049 36.5632 56.3279 36.7534 56.7001 36.9928C60.4148 39.3242 65.0494 40.4794 70.1615 40.3456C75.2666 40.2047 79.4728 38.9157 83.0049 36.3941C83.8265 35.8095 85.1888 34.5135 85.8348 33.7105C87.8221 31.2312 88.8473 27.9278 88.6015 24.8145C88.3417 21.6168 87.1761 18.9966 84.9781 16.7074C81.4601 13.0448 75.6879 10.9599 69.2205 11.0021C68.5043 11.0092 67.5984 11.0444 67.2122 11.0726ZM71.4676 15.8551C72.879 15.996 74.4941 16.3341 75.709 16.7356C76.5024 17.0032 78.1807 17.8273 78.8759 18.2852C80.4348 19.3276 81.6988 20.9054 82.3378 22.624C82.7732 23.7721 82.8575 24.3778 82.8153 25.9978C82.7802 27.484 82.6889 27.9489 82.2044 29.1322C81.0177 31.9708 78.2861 34.0275 74.3748 35.0136C72.563 35.4714 71.9381 35.5348 69.3539 35.5348C67.3035 35.5348 66.9805 35.5207 66.1659 35.3799C63.652 34.9432 61.6577 34.2036 60.0075 33.1048C58.8067 32.3018 57.4866 30.8438 56.8897 29.6605C55.7591 27.4136 55.6819 24.5046 56.7001 22.1309C57.5147 20.2503 59.2632 18.5176 61.433 17.454C63.027 16.6651 65.1969 16.0735 67.2473 15.8622C68.104 15.7776 70.6179 15.7706 71.4676 15.8551Z" fill="white"/>
<path d="M108.538 11.0726C106.102 11.2839 103.686 11.798 101.727 12.5235C100.849 12.8405 98.6933 13.9111 97.9139 14.4042C97.5698 14.6225 97.2819 14.7986 97.2608 14.7986C97.2468 14.7986 97.2327 14.2422 97.2327 13.566V12.3334H94.3537H91.4746V30.9636V49.5938H94.3537H97.2327V43.0785C97.2327 39.4933 97.2468 36.5632 97.2608 36.5632C97.2819 36.5632 97.5909 36.7534 97.949 36.9858C100.477 38.634 103.96 39.7891 107.731 40.2399C108.861 40.3737 112.871 40.3456 113.98 40.1977C120.293 39.3524 125.068 36.7956 127.723 32.8371C128.678 31.4073 129.38 29.6746 129.689 27.9841C129.907 26.7726 129.907 24.5469 129.689 23.3565C128.46 16.7778 122.512 12.2207 113.77 11.1641C112.738 11.0373 109.542 10.981 108.538 11.0726ZM113.664 15.9608C117.751 16.6017 120.722 18.1443 122.484 20.5391C124.05 22.6662 124.528 25.5259 123.776 28.2518C123.699 28.5406 123.46 29.1252 123.25 29.5548C121.733 32.654 118.397 34.6966 113.664 35.4151C113.032 35.5066 112.372 35.5348 110.61 35.5348C108.18 35.5419 107.59 35.4785 105.807 35.0418C101.741 34.0416 98.8829 31.8158 97.7875 28.8082C97.3521 27.6038 97.2749 27.153 97.2819 25.6457C97.2819 24.406 97.303 24.2088 97.4645 23.589C98.1807 20.8701 99.8099 18.9261 102.57 17.5174C104.22 16.6722 106.045 16.165 108.398 15.8833C109.507 15.7565 112.66 15.7988 113.664 15.9608Z" fill="white"/>
<path d="M149.617 11.0732C144.674 11.4747 140.292 13.137 137.251 15.7712C134.66 18.004 133.066 20.9553 132.687 24.1812C132.575 25.1885 132.645 27.2311 132.827 28.1327C133.242 30.1542 134 31.8376 135.25 33.4999C135.756 34.176 137.034 35.4721 137.715 36.0144C140.713 38.367 144.505 39.7686 149.259 40.2687C151.183 40.473 154.814 40.318 156.745 39.9447C163.718 38.6064 168.549 35.0072 170.332 29.8302C170.705 28.7455 170.887 27.8016 170.964 26.5831C171.217 22.6035 169.869 19.1381 166.983 16.3418C163.844 13.306 159.35 11.5028 153.802 11.0661C152.756 10.9816 150.685 10.9887 149.617 11.0732ZM154.982 15.9896C156.042 16.1586 157.496 16.5108 158.325 16.8066C159.146 17.1025 160.473 17.7716 161.204 18.2647C162.018 18.807 163.036 19.772 163.605 20.5327C164.146 21.2652 164.729 22.4697 164.961 23.3219C165.185 24.1531 165.277 25.435 165.199 26.5479C164.932 30.2457 162.222 33.2674 157.903 34.6902C156.021 35.3101 154.203 35.5777 151.892 35.5777C150.228 35.5777 149.294 35.5002 147.967 35.2608C144.969 34.7043 142.644 33.5914 140.945 31.8798C139.646 30.5838 138.916 29.2737 138.55 27.5974C138.382 26.8437 138.347 25.1321 138.473 24.2728C139.168 19.7227 143.248 16.5953 149.407 15.891C150.727 15.7431 153.704 15.7924 154.982 15.9896Z" fill="white"/>
</svg>
