<svg width="180" height="60" viewBox="0 0 180 60" fill="none" xmlns="http://www.w3.org/2000/svg">
<g clip-path="url(#clip0_49993_96320)">
<path d="M117.27 14.3921V45.999H121.917V14.3921H117.27ZM67.621 13.8522C58.5676 13.8522 51.5432 20.5734 51.5432 30.1956C51.5432 40.2511 58.5676 46.5391 67.621 46.539C76.6743 46.5388 83.7132 40.2511 83.6988 30.1956C83.6856 21.0789 76.6743 13.8522 67.621 13.8522ZM79.06 30.1956C79.06 37.3189 73.9386 42.0395 67.621 42.0395C61.3034 42.0395 56.1819 37.3189 56.1819 30.1956C56.1819 23.2015 61.3034 18.3517 67.621 18.3517C73.9386 18.3517 79.06 23.2015 79.06 30.1956ZM20.3389 13.3687V45.999H25.0817V24.435L49.7281 47.0225V40.2573L20.3389 13.3687ZM87.194 30.1956L104.441 45.9991H111.357L94.0835 30.1956L111.357 14.3921H104.441L87.194 30.1956ZM160.563 45.999H155.451L151.713 38.9998H134.78L131.041 45.999H125.929L132.12 34.333H149.281L140.724 18.1205L143.246 13.3687L160.563 45.999Z" fill="white"/>
</g>
<defs>
<clipPath id="clip0_49993_96320">
<rect width="140.224" height="33.6538" fill="white" transform="translate(20.3389 13.3687)"/>
</clipPath>
</defs>
</svg>
