<svg width="180" height="60" viewBox="0 0 180 60" fill="none" xmlns="http://www.w3.org/2000/svg">
<path d="M67.9499 31.2745H54.1165V19.5684H49.4395V46.795H54.1165V35.615H67.9499V46.795H72.561V19.5684H67.9499V31.2745Z" fill="white"/>
<path d="M85.274 27.1313C82.3097 27.1313 79.9383 28.1178 78.0938 29.9592C76.2494 31.8664 75.3271 34.2997 75.3271 37.1276C75.3271 40.0213 76.2494 42.3888 78.0938 44.296C79.9383 46.2031 82.3097 47.1238 85.274 47.1238C88.2383 47.1238 90.6756 46.1374 92.5201 44.296C94.3645 42.3888 95.2868 40.0213 95.2868 37.1276C95.2868 34.2997 94.3645 31.8664 92.5201 29.9592C90.6756 28.1178 88.2383 27.1313 85.274 27.1313ZM81.2557 32.9186C82.2438 31.7349 83.6272 31.2088 85.3399 31.2088C86.9868 31.2088 88.3042 31.8006 89.3582 32.9844C90.4122 34.1682 90.9392 35.615 90.9392 37.2591C90.9392 38.969 90.4121 40.3501 89.424 41.5338C88.4359 42.6518 87.0526 43.2437 85.3399 43.2437C83.6272 43.2437 82.2438 42.6518 81.2557 41.5338C80.2676 40.4158 79.7407 38.969 79.7407 37.2591C79.6748 35.4835 80.2018 34.0366 81.2557 32.9186Z" fill="white"/>
<path d="M119.727 27.1958C116.828 27.1958 114.655 28.3796 113.271 30.7471C112.217 28.3796 110.241 27.1958 107.277 27.1958C106.157 27.1958 105.103 27.4589 104.115 27.9192C103.259 28.3138 102.6 28.9057 102.139 29.6291L101.941 27.4589H97.9229V46.7937H102.27V36.2056C102.27 34.8245 102.666 33.6407 103.522 32.6543C104.313 31.7336 105.366 31.2075 106.684 31.2075C108.001 31.2075 108.99 31.6678 109.78 32.5885C110.571 33.5092 110.9 34.7588 110.9 36.1398V46.7279H115.247V36.1398C115.247 34.7588 115.643 33.575 116.499 32.6543C117.29 31.7336 118.409 31.2732 119.727 31.2732C121.044 31.2732 122.032 31.7336 122.691 32.5885C123.35 33.5092 123.745 34.693 123.745 36.0741V46.7279H128.093V36.0741C128.093 33.2462 127.368 31.0759 125.985 29.4976C124.404 27.985 122.362 27.1958 119.727 27.1958Z" fill="white"/>
<path d="M140.147 26.9995C137.183 26.9995 134.68 27.9202 132.836 29.8274C130.991 31.6688 130.003 34.1021 130.003 37.0615C130.003 40.1525 130.991 42.6515 132.836 44.493C134.746 46.3344 137.249 47.2551 140.411 47.2551C141.992 47.2551 143.507 46.992 145.022 46.4001C146.537 45.8082 147.789 45.0191 148.711 43.9668L148.843 43.8353L146.01 41.0732L145.878 41.2047C145.351 41.7966 144.561 42.257 143.573 42.6515C142.585 43.0461 141.531 43.1777 140.543 43.1777C138.896 43.1777 137.513 42.7831 136.393 41.9281C135.405 41.139 134.746 40.0867 134.548 38.8372H149.897V38.6399C150.226 34.8913 149.501 31.9319 147.723 29.9589C145.944 28.0517 143.375 26.9995 140.147 26.9995ZM134.614 35.0886C134.943 33.7733 135.602 32.7868 136.524 32.0634C137.578 31.2742 138.83 30.8797 140.213 30.8797C141.794 30.8797 143.046 31.2742 144.034 31.9976C144.956 32.7211 145.483 33.7075 145.615 35.0228H134.614V35.0886Z" fill="white"/>
<path d="M176.839 41.7309C178.618 39.2318 179.474 36.2724 179.408 32.9184C179.408 31.1427 179.079 29.3671 178.486 27.7887C177.893 26.1446 177.103 24.6977 175.983 23.3825C174.863 22.0672 173.414 21.0149 171.635 20.2258C169.857 19.4366 167.749 19.042 165.509 19.042C163.269 19.042 161.161 19.4366 159.383 20.2258C157.604 21.0149 156.089 22.0672 154.969 23.4482C153.849 24.7635 152.993 26.2761 152.4 27.9202C151.807 29.5644 151.544 31.34 151.544 33.1814C151.544 35.0228 151.807 36.7985 152.4 38.4426C152.993 40.0867 153.784 41.5993 154.903 42.9146C156.023 44.2299 157.472 45.3479 159.317 46.1371C161.161 46.9263 163.203 47.3209 165.509 47.3209C168.671 47.3209 171.306 46.5974 173.48 45.0848L176.773 48.3073L180.001 45.0191L176.839 41.7309ZM165.509 42.8488C162.611 42.8488 160.305 41.8624 158.658 39.9552C157.011 38.048 156.221 35.7463 156.155 33.1814C156.155 31.4715 156.419 29.8932 157.077 28.3806C157.736 26.9338 158.79 25.6842 160.239 24.6977C161.688 23.7113 163.467 23.2509 165.443 23.2509C167.024 23.2509 168.407 23.514 169.593 24.0401C170.779 24.5662 171.767 25.2896 172.492 26.2104C173.216 27.1311 173.743 28.1175 174.138 29.2355C174.534 30.3535 174.731 31.5373 174.731 32.7211C174.797 35.4174 174.007 37.785 172.36 39.7579C170.845 41.8624 168.473 42.8488 165.509 42.8488Z" fill="white"/>
<path d="M32.6764 40.1446V25.0153C32.6764 23.282 31.9169 21.6491 30.5929 20.5353L20.1104 11.7179C17.9384 9.89092 14.7863 9.89092 12.6149 11.7179L2.13374 20.5353C0.809271 21.6496 0.0498047 23.2825 0.0498047 25.0153V38.6912C0.0498047 41.8964 1.29446 44.9089 3.55399 47.1754C5.81401 49.4413 8.81801 50.6895 12.0141 50.6895C15.2101 50.6895 18.2141 49.4413 20.4736 47.1754C21.4227 46.2236 22.1928 45.1398 22.7665 43.9659L32.6764 50.6827V45.4134L26.3859 41.1493L23.9512 39.4989C23.9691 39.2311 23.9778 38.9619 23.9778 38.6912V30.4583C23.9778 26.3004 20.6042 22.9172 16.4581 22.9172H16.2685C12.1219 22.9172 8.74884 26.3004 8.74884 30.4583C8.74884 32.9664 9.98575 35.3017 12.0576 36.7061L19.0984 41.4792C17.9863 44.3127 15.2299 46.3235 12.0141 46.3235C7.81764 46.3235 4.40343 42.8996 4.40343 38.6912V25.0153C4.40343 24.5763 4.59596 24.1625 4.93167 23.8802L15.4133 15.0627C15.9633 14.5999 16.7619 14.5999 17.3124 15.0627L27.795 23.8807C28.1307 24.163 28.3227 24.5768 28.3227 25.0158V37.1932L32.6764 40.1446ZM14.4956 33.0896C13.6234 32.4982 13.1025 31.5149 13.1025 30.4588C13.1025 28.708 14.5227 27.2837 16.2685 27.2837H16.4581C18.2039 27.2837 19.6242 28.708 19.6242 30.4588V36.5659L14.4956 33.0896Z" fill="white"/>
</svg>
