<svg width="180" height="60" viewBox="0 0 180 60" fill="none" xmlns="http://www.w3.org/2000/svg">
<path d="M16.7398 13.2925C15.3951 17.3126 14.2835 20.6128 14.2715 20.6416C14.2596 20.6646 17.8455 20.6762 22.2442 20.6704L30.2409 20.6531L31.9323 15.6136C32.8586 12.8433 33.9643 9.54313 34.3886 8.28181L35.1536 5.99531H27.1689H19.1842L16.7398 13.2925Z" fill="white"/>
<path d="M35.2305 6.0357C35.2305 6.0645 36.3302 9.35891 37.6749 13.3675L40.1193 20.6532L48.104 20.6705C53.5845 20.6762 56.0887 20.6647 56.0887 20.6244C56.0887 20.5783 52.682 10.4186 51.3313 6.43886L51.1759 5.99539H43.2032C38.8164 5.99539 35.2305 6.01266 35.2305 6.0357Z" fill="white"/>
<path d="M78.8036 15.0397C78.5646 15.0916 78.1163 15.2586 77.8115 15.4083C76.8553 15.8633 75.9767 16.7849 75.6121 17.7236C75.4568 18.1153 68.3984 41.4757 68.3984 41.5908C68.3984 41.6312 69.1634 41.6484 70.7173 41.6484H73.0303L74.0403 38.3483C74.5961 36.5398 75.0862 34.9675 75.128 34.8638L75.2057 34.6795H79.9571C83.5012 34.6795 84.7204 34.6968 84.7503 34.7486C84.7742 34.7832 85.2523 36.344 85.8141 38.2158L86.8361 41.6196L89.155 41.6369C90.428 41.6427 91.468 41.6369 91.468 41.6196C91.468 41.5275 84.326 18.0174 84.2005 17.7006C83.6984 16.4105 82.4912 15.3911 81.0448 15.0397C80.4293 14.89 79.4312 14.89 78.8036 15.0397ZM80.0647 19.3075C80.1364 19.4342 83.6387 31.1086 83.6387 31.2296C83.6387 31.3332 83.5072 31.339 79.9691 31.339C77.8055 31.339 76.2815 31.316 76.2636 31.2872C76.2277 31.2353 79.6822 19.5955 79.8137 19.3133C79.8794 19.1693 79.981 19.1693 80.0647 19.3075Z" fill="white"/>
<path d="M155.269 14.9838C153.763 15.1681 152.203 15.8304 150.996 16.7922C149.263 18.186 147.87 20.6511 147.207 23.5193C146.639 25.9613 146.49 29.3651 146.848 31.738C147.195 34.0245 148.193 36.6336 149.412 38.4248C149.854 39.0813 150.751 40.0029 151.367 40.4463C154.48 42.6695 158.724 42.5543 161.694 40.1699C163.648 38.6033 165.113 35.7754 165.692 32.4464C165.937 31.0469 165.967 30.6034 165.967 28.4551C165.967 26.6006 165.949 26.2435 165.83 25.4141C165.334 21.9182 164.15 19.217 162.298 17.3797C161.67 16.7577 161.156 16.366 160.457 15.9802C158.915 15.1335 157.026 14.7707 155.269 14.9838ZM157.182 18.3473C157.875 18.5258 158.574 19.0039 159.106 19.672C160.027 20.8239 160.899 23.3753 161.186 25.7712C161.294 26.6755 161.318 30.2233 161.216 31.0469C161.001 32.8554 160.553 34.5256 159.877 36C159.1 37.6991 157.833 38.6551 156.357 38.6494C155.198 38.6436 154.235 38.085 153.363 36.9043C152.556 35.81 151.701 33.0915 151.474 30.8799C151.379 29.9296 151.396 26.7215 151.51 25.8058C151.731 23.9455 152.287 22.0103 152.998 20.5935C153.596 19.4128 154.486 18.6122 155.496 18.3473C155.915 18.2436 156.745 18.2379 157.182 18.3473Z" fill="white"/>
<path d="M127.566 28.4593V41.6484H129.808H132.049L132.061 35.2958L132.079 28.9488L132.527 28.7357C133.627 28.2059 135.037 27.8718 136.203 27.8603C136.956 27.8545 136.991 27.8603 137.386 28.0388C137.912 28.2807 138.39 28.7357 138.641 29.2483L138.832 29.64L138.85 35.6413L138.862 41.6484H141.109H143.351L143.327 35.5549C143.309 29.64 143.303 29.4499 143.183 28.9488C142.89 27.7278 142.346 26.7948 141.444 25.977C139.914 24.5889 138.001 24.157 135.605 24.658C134.607 24.8711 133.435 25.3204 132.521 25.8445C132.007 26.1382 132.049 26.6163 132.049 20.5976V15.2701H129.808H127.566V28.4593Z" fill="white"/>
<path d="M115.913 21.7798C115.913 23.5767 115.889 24.5847 115.853 24.6595C115.793 24.7632 115.71 24.769 114.389 24.769H112.984V26.4392V28.1094H114.353C115.411 28.1094 115.734 28.1267 115.781 28.1843C115.829 28.2361 115.853 29.7682 115.865 33.2987C115.889 38.9775 115.853 38.5629 116.373 39.5708C116.612 40.0373 116.744 40.2043 117.228 40.6651C117.706 41.1316 117.885 41.2583 118.363 41.4887C119.224 41.8976 119.529 41.9609 120.724 41.9609C121.71 41.9609 122.254 41.8918 122.983 41.6902L123.204 41.6269V40.1179V38.6089L122.403 38.6377C121.967 38.6492 121.513 38.6492 121.399 38.6262C121.065 38.5686 120.67 38.2806 120.497 37.9639L120.336 37.6817V32.9301C120.336 28.6508 120.347 28.1786 120.431 28.144C120.485 28.1267 121.13 28.1094 121.866 28.1094H123.204V26.4392V24.769H121.8H120.395V21.8892V19.0095H118.154H115.913V21.7798Z" fill="white"/>
<path d="M14.192 20.7608C14.192 20.7723 14.0844 21.1409 13.9529 21.5844C12.6202 26.0768 12.7337 30.5807 14.2876 34.6411C14.437 35.0212 14.8255 35.8564 15.1482 36.4899C16.5587 39.2429 18.5549 41.5928 21.3041 43.7238C21.7464 44.0693 22.1408 44.3516 22.1707 44.3516C22.2544 44.3516 27.1253 29.7801 27.0595 29.7225C26.94 29.6189 14.2518 20.7378 14.2219 20.7378C14.204 20.7378 14.192 20.7493 14.192 20.7608Z" fill="white"/>
<path d="M49.6887 25.2249C46.1566 27.7015 43.2639 29.7461 43.252 29.7691C43.24 29.8094 48.1169 44.3463 48.1587 44.3866C48.1647 44.3924 48.4934 44.1562 48.8879 43.8567C53.3822 40.4299 56.1912 36.0584 57.0459 31.1629C57.273 29.8497 57.3148 29.3084 57.3089 27.7072C57.3089 25.9563 57.2072 25.0003 56.8666 23.3761C56.6933 22.564 56.257 20.9802 56.1554 20.8132C56.1255 20.7498 54.4939 21.8671 49.6887 25.2249Z" fill="white"/>
<path d="M93.9985 31.0281L94.0164 37.2944L94.1539 37.7551C94.9488 40.4333 97.3394 42.0978 100.226 41.9653C101.953 41.8904 103.639 41.349 105.133 40.393C105.408 40.2202 105.665 40.0877 105.707 40.105C105.748 40.1165 105.898 40.4736 106.041 40.8883L106.298 41.6428H108.061H109.818V33.2052V24.7675H107.577H105.336V27.198C105.336 28.54 105.318 31.4082 105.294 33.5738L105.258 37.5132L104.744 37.7436C103.31 38.3772 101.445 38.7458 100.537 38.5615C99.5328 38.3599 98.7439 37.6054 98.5287 36.6436C98.4809 36.4305 98.463 34.622 98.463 30.5558V24.7675H96.2218H93.9746L93.9985 31.0281Z" fill="white"/>
<path d="M28.7077 39.918C25.1755 42.3888 22.2948 44.4276 22.3008 44.4449C22.3187 44.4852 35.0428 53.3951 35.1384 53.4296C35.1922 53.4527 47.7669 44.7156 48.0359 44.4679C48.0837 44.4276 35.2879 35.4256 35.1803 35.4256C35.1504 35.4256 32.2338 37.4471 28.7077 39.918Z" fill="white"/>
</svg>
