<svg width="180" height="60" viewBox="0 0 180 60" fill="none" xmlns="http://www.w3.org/2000/svg">
<path fill-rule="evenodd" clip-rule="evenodd" d="M61.4541 48.732H59.7928C59.74 48.7325 59.6881 48.7448 59.641 48.7681C59.5939 48.7913 59.5529 48.8248 59.5212 48.8661L56.5487 53.7693C56.4115 53.9476 56.3037 53.9463 56.1679 53.7654L53.2886 48.8687C53.2568 48.8268 53.2154 48.7926 53.1679 48.7689C53.1203 48.7452 53.0678 48.7326 53.0144 48.732H51.385C51.2938 48.7327 51.2066 48.7687 51.1424 48.8321C51.0783 48.8956 51.0425 48.9812 51.0429 49.0704V58.9107C51.0429 59.0981 51.196 59.2491 51.385 59.2491H53.0104C53.0556 59.2489 53.1003 59.24 53.142 59.2229C53.1837 59.2058 53.2215 59.1808 53.2533 59.1493C53.2851 59.1179 53.3102 59.0806 53.3272 59.0397C53.3443 58.9987 53.3528 58.9549 53.3525 58.9107V53.8513C53.3525 53.526 53.668 53.3881 53.8637 53.6509L56.0947 57.2477C56.2305 57.4286 56.5047 57.4299 56.6432 57.2503L58.9461 53.6444C59.1431 53.3855 59.4573 53.5247 59.4573 53.8487V58.9107C59.4573 59.0981 59.6104 59.2491 59.7994 59.2491H61.4541C61.5454 59.2484 61.6328 59.2124 61.6971 59.149C61.7614 59.0857 61.7975 59 61.7975 58.9107V49.0704C61.7975 48.9811 61.7614 48.8954 61.6971 48.8321C61.6328 48.7687 61.5454 48.7327 61.4541 48.732ZM73.038 55.1318H70.8682C70.6379 55.1318 70.4808 54.8936 70.5647 54.6724L71.6456 51.8486C71.6671 51.787 71.7077 51.7335 71.7618 51.6956C71.8159 51.6577 71.8808 51.6372 71.9473 51.6371C72.0139 51.6369 72.0788 51.6571 72.1331 51.6948C72.1874 51.7325 72.2282 51.7858 72.25 51.8473L73.3402 54.6724C73.4254 54.8923 73.267 55.1318 73.038 55.1318ZM73.094 48.9337C73.0703 48.8753 73.0295 48.8249 72.9767 48.789C72.9239 48.7531 72.8614 48.7333 72.7971 48.732H71.1105C71.0462 48.7333 70.9837 48.7531 70.9309 48.789C70.878 48.8249 70.8373 48.8753 70.8136 48.9337L66.6044 58.7767C66.5099 58.9992 66.667 59.2491 66.9026 59.2491H68.5959C68.6628 59.2484 68.7279 59.2275 68.7822 59.1893C68.8365 59.1511 68.8775 59.0974 68.8994 59.0356L69.5237 57.3895C69.5457 57.328 69.5865 57.2746 69.6405 57.2364C69.6946 57.1983 69.7593 57.1772 69.8259 57.1761H74.0977C74.2308 57.1761 74.3506 57.2594 74.3998 57.3869L75.0375 59.0369C75.0594 59.0984 75.1002 59.1517 75.1543 59.1897C75.2083 59.2277 75.2731 59.2484 75.3397 59.2491H77.005C77.2406 59.2491 77.3977 58.9992 77.3032 58.7767L73.094 48.9337ZM102.059 53.7186C102.018 53.6611 101.996 53.592 101.998 53.5217C102 53.4513 102.025 53.3834 102.07 53.3282L105.138 49.5909C105.31 49.3827 105.16 49.0691 104.889 49.0691H103.193C103.145 49.0692 103.097 49.0802 103.053 49.1012C103.01 49.1221 102.972 49.1526 102.942 49.1901L99.4913 53.513C99.3023 53.7511 98.9176 53.6184 98.9176 53.3152V49.3892C98.9183 49.3052 98.885 49.2244 98.8248 49.1644C98.7647 49.1044 98.6827 49.0701 98.5968 49.0691H97.0766C96.9907 49.0701 96.9087 49.1044 96.8485 49.1644C96.7884 49.2244 96.7551 49.3052 96.7558 49.3892V58.9289C96.7558 59.1059 96.8995 59.2491 97.0766 59.2491H98.5968C98.7738 59.2491 98.9176 59.1059 98.9176 58.9289V57.2685C98.9176 57.1943 98.9442 57.1241 98.9895 57.0668L100.285 55.4909C100.316 55.4526 100.356 55.4219 100.401 55.4015C100.447 55.3811 100.496 55.3715 100.546 55.3736C100.596 55.3756 100.645 55.3892 100.689 55.4132C100.732 55.4372 100.77 55.471 100.797 55.5118L103.308 59.1124C103.337 59.1543 103.377 59.1886 103.422 59.2124C103.468 59.2362 103.519 59.2487 103.571 59.2491H105.462C105.724 59.2491 105.876 58.9524 105.721 58.7416L102.059 53.7186ZM119.843 57.2854H114.836C114.786 57.2859 114.737 57.2769 114.691 57.2588C114.645 57.2407 114.603 57.2139 114.567 57.1799C114.532 57.146 114.504 57.1055 114.484 57.0609C114.465 57.0162 114.454 56.9683 114.454 56.9197V55.4259C114.454 55.2242 114.626 55.0615 114.836 55.0615H118.188C118.237 55.0619 118.287 55.0526 118.333 55.0344C118.379 55.0161 118.421 54.9892 118.456 54.9551C118.491 54.921 118.519 54.8805 118.539 54.8358C118.558 54.7911 118.568 54.7431 118.569 54.6945V53.5793C118.568 53.4816 118.527 53.3882 118.455 53.3196C118.384 53.2511 118.288 53.213 118.188 53.2137H114.836C114.786 53.2142 114.737 53.2051 114.691 53.187C114.645 53.1689 114.603 53.1422 114.567 53.1082C114.532 53.0742 114.504 53.0338 114.484 52.9892C114.465 52.9445 114.454 52.8966 114.454 52.848V51.3971C114.454 51.1954 114.626 51.0314 114.836 51.0314H119.492C119.542 51.0319 119.591 51.0229 119.637 51.0048C119.683 50.9867 119.725 50.9599 119.761 50.9259C119.796 50.892 119.825 50.8515 119.844 50.8069C119.864 50.7622 119.874 50.7143 119.874 50.6658V49.4347C119.874 49.3862 119.864 49.3381 119.845 49.2934C119.825 49.2487 119.797 49.2082 119.761 49.1742C119.726 49.1402 119.684 49.1134 119.638 49.0954C119.591 49.0773 119.542 49.0684 119.492 49.0691H112.558C112.509 49.0686 112.459 49.0776 112.413 49.0957C112.367 49.1138 112.325 49.1406 112.29 49.1746C112.254 49.2085 112.226 49.249 112.207 49.2936C112.187 49.3383 112.177 49.3862 112.176 49.4347V58.8834C112.176 59.0851 112.348 59.2491 112.558 59.2491H119.843C119.943 59.2497 120.039 59.2116 120.11 59.1431C120.181 59.0746 120.222 58.9812 120.223 58.8834V57.6511C120.222 57.5533 120.181 57.4599 120.11 57.3913C120.039 57.3228 119.943 57.2847 119.843 57.2854ZM131.99 48.732H124.241C124.07 48.732 123.933 48.8817 123.933 49.0665V50.4263C123.933 50.6111 124.07 50.7608 124.241 50.7608H126.763C126.934 50.7608 127.071 50.9104 127.071 51.0939V58.9159C127.071 59.0994 127.209 59.2491 127.378 59.2491H128.837C129.006 59.2491 129.145 59.0994 129.145 58.9159V51.0939C129.145 50.9104 129.282 50.7608 129.452 50.7608H131.99C132.159 50.7608 132.297 50.6111 132.297 50.4263V49.0665C132.297 48.8817 132.159 48.732 131.99 48.732ZM87.1286 54.4928C86.712 54.5163 86.3046 54.5215 85.876 54.515C85.7872 54.5123 85.7031 54.4758 85.6414 54.4133C85.5797 54.3509 85.5455 54.2673 85.5459 54.1805V51.0561C85.5459 50.8727 85.6949 50.7217 85.8786 50.723C86.254 50.7243 86.6241 50.7295 87.0394 50.7529C88.3999 50.8115 89.4303 51.44 89.4303 52.6086C89.4303 53.6392 88.7127 54.3874 87.1286 54.4928ZM91.6693 52.6671C91.6693 50.3782 89.9374 48.7477 86.921 48.732C85.844 48.732 84.7804 48.7581 83.6369 48.7737C83.5482 48.7761 83.4639 48.8122 83.402 48.8744C83.3401 48.9366 83.3054 49.02 83.3055 49.1068V58.9159C83.3055 59.0994 83.4546 59.2491 83.6383 59.2491H85.2131C85.3968 59.2491 85.5459 59.0994 85.5459 58.9159V56.8339C85.5459 56.5736 85.5978 56.5007 85.88 56.5007C86.2194 56.5007 86.7333 56.5124 87.114 56.5124C87.1872 56.5124 87.2631 56.5046 87.3363 56.502L87.3283 56.5072C87.6984 56.5072 87.7969 56.4747 87.9007 56.679L89.0988 59.0656C89.1255 59.1205 89.1675 59.1668 89.2201 59.1993C89.2726 59.2318 89.3335 59.249 89.3956 59.2491H91.2034C91.451 59.2491 91.6121 58.9875 91.5002 58.765L90.1145 56.0258C90.0787 55.9535 90.0701 55.8712 90.0903 55.7933C90.1106 55.7155 90.1582 55.6471 90.225 55.6002C91.0809 54.9782 91.6693 54.0244 91.6693 52.6671ZM155.143 19.6626C157.872 19.6626 156.314 30.4971 151.535 31.2167C151.319 30.4185 151.202 29.5974 151.188 28.7716C151.188 25.2321 152.55 19.6626 155.143 19.6626ZM87.3256 36.2735C82.379 36.2735 85.8374 19.6418 89.8296 19.6418C92.4827 19.6418 92.058 36.2735 87.3256 36.2735ZM70.0975 19.5858C72.9342 19.5858 71.2503 30.0898 66.5898 31.8153C66.237 30.6988 66.064 29.6083 66.064 28.7716C66.064 25.2321 67.503 19.5858 70.0975 19.5858ZM163.915 29.1568C163.776 29.2921 162.491 36.85 156.951 36.85C154.797 36.85 153.278 35.2689 152.341 33.3795C159.12 31.9207 161.39 26.7195 161.39 23.1591C161.39 19.0106 158.359 17.5128 155.778 17.5128C151.558 17.5128 146.068 21.3191 146.068 28.7716C146.068 29.4431 146.108 30.0898 146.183 30.7105C144.722 30.2798 143.459 29.525 142.596 28.2381C143.862 22.7375 143.639 17.4738 141.016 17.4738C139.543 17.4738 138.289 19.3529 138.289 23.4493C138.289 25.0603 138.723 26.8665 139.605 28.5126C139.066 31.0072 137.217 37.1011 134.865 37.1011C131.622 37.1011 132.623 22.1389 132.623 19.928C132.623 18.1245 128.134 16.2337 127.148 17.1914C126.719 17.6065 126.644 20.0465 126.644 23.2021C126.644 25.7864 126.851 28.851 127.429 31.6813C127.117 33.2194 125.782 37.1714 123.286 37.1714C119.418 37.1714 121.377 23.0017 121.377 20.7205C121.377 19.0913 117.058 17.5597 116.003 18.5838C115.587 18.9885 115.298 21.8539 115.298 26.3174C115.298 28.173 115.407 30.1431 115.689 32.0118C115.281 33.9898 113.678 37.1714 111.077 37.1714C106.941 37.1714 108.77 21.6418 109.871 12.067C110.557 11.9452 111.246 11.8462 111.939 11.7703C113.75 11.5751 115.97 11.2315 115.97 12.3025C115.97 14.8218 117.694 15.5987 118.972 15.5987C120.366 15.5987 121.625 14.5277 121.625 12.4782C121.625 10.4403 119.825 8.55739 116.6 8.55739C114.453 8.55739 112.32 8.79813 110.201 9.13516C110.372 7.53327 110.486 6.26582 110.486 5.50717C110.486 3.37176 105.972 1.33134 105.081 2.19539C104.909 2.36326 104.305 5.70627 103.784 10.3349C100.648 10.9439 97.5452 11.4762 94.4781 11.4762C93.4172 11.4762 93.5529 14.5954 97.1844 14.5954C99.273 14.5954 101.318 14.1464 103.454 13.5973C103.164 16.8375 102.952 20.4264 102.952 23.8827C102.952 26.9745 103.143 29.6838 103.541 31.9767C103.135 33.6983 101.848 37.1714 99.5166 37.1714C94.9733 37.1714 97.1272 21.9229 97.1272 19.6418C97.1272 18.5578 92.9938 16.2207 92.1392 17.0483C92.0194 17.1654 91.9489 17.8095 91.9489 17.8095C91.9489 17.8095 91.3977 17.4166 89.8722 17.4166C84.0736 17.4166 79.4184 24.368 79.4184 30.7118C79.4184 31.0163 79.4344 31.3078 79.4517 31.5993C78.5531 33.6397 76.2821 37.1714 72.1674 37.1714C70.1188 37.1714 68.6185 35.8363 67.6161 34.1459C73.9712 32.4009 76.4911 26.9719 76.4911 23.504C76.4911 19.4453 72.9422 17.4348 70.361 17.4348C65.8816 17.4348 60.9442 21.7928 60.9442 29.1477C60.9442 31.2896 61.3649 33.1439 62.0797 34.7016C61.2863 35.9365 60.039 37.1714 58.3631 37.1714C53.7186 37.1714 56.8322 22.0205 56.8322 20.4043C56.8322 20.0035 56.8375 19.2501 56.1 18.7452C55.127 18.0815 49.5307 17.3606 47.635 16.9962C47.6497 16.5941 47.655 16.2246 47.655 15.8953C47.655 12.9675 45.7607 12.2934 44.544 12.2934C42.4847 12.2934 42.0534 14.5394 42.0534 15.082C42.0534 15.6247 42.2065 17.5246 44.2658 18.6853C44.2658 24.1559 40.6769 37.0673 31.0405 37.0673C23.7722 37.0673 21.1112 29.797 21.1112 24.3771C21.1112 15.2616 26.6196 8.20344 30.1872 8.20344C34.6626 8.20344 30.7144 16.5759 35.1898 16.5759C38.342 16.5759 38.7813 13.6129 38.7813 12.2504C38.7813 9.69992 36.0364 4.92419 30.2045 4.92419C20.8982 4.92419 14 15.9279 14 25.3596C14 34.4218 20.411 41.722 29.4058 41.722C43.2954 41.722 46.7645 27.4013 47.4873 19.3854C48.3792 19.6418 50.5783 19.9996 50.7926 20.2104C51.156 20.5631 50.0911 25.4247 50.0911 30.1028C50.0911 35.969 52.0719 40.6654 56.8309 40.6654C59.8114 40.6654 62.2089 38.5651 63.4655 36.9515C65.397 39.3485 68.1859 40.5938 70.9095 40.5938C75.5979 40.5938 78.6796 37.7557 80.2331 35.4719C81.5403 38.9021 84.2147 40.5938 86.6348 40.5938C90.012 40.5938 92.046 36.1902 92.1632 35.4784C93.1855 38.5508 95.5683 40.6654 98.2573 40.6654C101.664 40.6654 103.707 37.6672 104.542 35.7933C105.749 38.9594 107.679 40.6654 110.447 40.6654C113.617 40.6654 115.713 37.8676 116.654 35.9885C117.657 38.729 119.318 40.6654 121.974 40.6654C125.528 40.6654 127.734 37.1467 128.471 35.3522C129.639 38.3777 131.47 40.5574 134.274 40.5574C137.406 40.5574 140.122 36.2085 141.746 31.2883C143.159 32.5834 144.95 33.415 146.87 33.667C148.448 38.0849 152.142 40.5561 156.033 40.5561C162.834 40.5561 165.444 33.775 165.722 32.1862C166 30.596 164.437 28.6506 163.915 29.1568Z" fill="white"/>
</svg>
