<svg width="180" height="60" viewBox="0 0 180 60" fill="none" xmlns="http://www.w3.org/2000/svg">
<g clip-path="url(#clip0_49993_96133)">
<path d="M113.602 25.2358C111.012 25.2358 108.854 26.4526 107.343 28.3135V25.6653H105.329V48.9983H107.343V40.6242C108.854 42.5567 111.012 43.7019 113.602 43.7019C118.35 43.7019 122.235 39.5506 122.235 34.4689C122.163 29.3871 118.35 25.2358 113.602 25.2358ZM113.602 41.7694C109.933 41.7694 106.984 38.5486 106.984 34.5404C106.984 30.5323 109.933 27.3115 113.602 27.3115C117.271 27.3115 120.221 30.5323 120.221 34.5404C120.149 38.477 117.199 41.7694 113.602 41.7694Z" fill="white"/>
<path d="M90.8776 18.4434C84.0433 18.4434 78.5039 24.2408 78.5039 31.3266C78.5039 38.4124 84.0433 44.2099 90.8776 44.2099C97.712 44.2099 103.251 38.4124 103.251 31.3266C103.251 24.2408 97.712 18.4434 90.8776 18.4434ZM90.8776 42.2774C85.1224 42.2774 80.4463 37.3388 80.4463 31.3266C80.4463 25.3144 85.1224 20.3758 90.8776 20.3758C96.6329 20.3758 101.309 25.3144 101.309 31.3266C101.309 37.4104 96.6329 42.2774 90.8776 42.2774Z" fill="white"/>
<path d="M150.723 25.3184C150.003 25.3184 149.356 25.5331 148.708 25.8909C147.413 26.6067 146.478 27.6087 145.903 28.9686C145.903 28.9686 145.903 29.0402 145.831 29.0402C145.831 27.9666 145.831 26.893 145.831 25.8194H143.816C143.816 31.6168 143.816 37.4143 143.816 43.2834C144.464 43.2834 145.183 43.2834 145.831 43.2834C145.831 43.2118 145.831 43.2118 145.831 43.1402C145.831 39.991 145.831 37.1996 145.831 34.1219C145.831 32.8336 146.047 31.76 146.478 30.758C146.838 29.8275 147.413 28.9686 148.205 28.3245C149.14 27.5371 150.219 27.1793 151.442 27.394C151.658 27.394 151.802 27.4656 152.018 27.5371C152.161 26.9646 152.377 26.2488 152.521 25.6047C152.018 25.3899 151.226 25.3184 150.723 25.3184Z" fill="white"/>
<path d="M132.663 25.3184C127.915 25.3184 124.03 29.4696 124.03 34.5514C124.03 39.6331 127.915 43.7844 132.663 43.7844C136.044 43.7844 138.994 41.6372 140.433 38.5595L138.706 37.5575C137.627 40.0625 135.397 41.7803 132.735 41.7803C129.282 41.7803 126.476 38.8458 126.117 35.1955H140.073H141.296C141.296 34.9808 141.296 34.7661 141.296 34.5514C141.296 29.1118 137.699 25.3184 132.663 25.3184ZM132.663 27.3224C136.26 27.3224 138.778 29.7559 139.21 33.4062H126.117C126.62 29.9706 129.354 27.3224 132.663 27.3224Z" fill="white"/>
<path d="M166.98 25.6736V28.3218C165.47 26.3893 163.312 25.2441 160.722 25.2441C155.974 25.2441 152.089 29.3954 152.089 34.4772C152.089 39.5589 155.974 43.7102 160.722 43.7102C163.312 43.7102 165.47 42.4934 166.98 40.6325V43.2807H168.995V25.6736H166.98ZM160.722 41.7777C157.053 41.7777 154.103 38.5569 154.103 34.5487C154.103 30.5406 157.053 27.3198 160.722 27.3198C164.391 27.3198 167.34 30.5406 167.34 34.5487C167.34 38.4853 164.391 41.7777 160.722 41.7777Z" fill="white"/>
<path d="M68.7748 29.8205C68.7748 38.3377 65.0339 45.9961 59.1348 51.2926C51.725 54.8713 44.8187 52.3662 42.5166 50.7916C49.7826 49.2169 55.322 40.4134 55.322 29.8205C55.322 19.2276 49.7826 10.424 42.5166 8.84938C44.8187 7.27476 51.725 4.76968 59.1348 8.34837C65.0339 13.6448 68.7748 21.3032 68.7748 29.8205Z" fill="white"/>
<path d="M30.3614 13.5762C27.196 17.298 25.1097 22.8808 24.9658 29.1077V30.4676C25.1097 36.6945 27.196 42.2772 30.3614 45.9991C34.5339 51.3671 40.6488 54.7311 47.5551 54.7311C51.7996 54.7311 55.7563 53.4427 59.1375 51.2239C54.0297 55.8047 47.2673 58.5245 39.8575 58.5245C39.4258 58.5245 38.9222 58.5245 38.4906 58.5245C23.1673 57.8803 10.9375 45.2833 10.9375 29.8234C10.9375 13.934 23.8867 1.05078 39.8575 1.05078C39.9294 1.05078 39.9294 1.05078 40.0014 1.05078C47.3393 1.05078 54.0297 3.84216 59.1375 8.3513C55.7563 6.13251 51.7996 4.84419 47.5551 4.84419C40.6488 4.84419 34.462 8.27972 30.3614 13.5762Z" fill="white"/>
</g>
<defs>
<clipPath id="clip0_49993_96133">
<rect width="158.053" height="57.4737" fill="white" transform="translate(10.9375 1.05127)"/>
</clipPath>
</defs>
</svg>
