<svg width="180" height="60" viewBox="0 0 180 60" fill="none" xmlns="http://www.w3.org/2000/svg">
<path d="M60.0607 42.7382C57.7507 42.5565 55.7338 42.047 54.1242 41.2385C51.6719 40.0067 49.8695 37.9341 49.0128 35.3609C48.3529 33.3791 48.2992 31.8188 48.8198 29.7625C49.6831 26.3529 51.8769 23.4609 55.3713 21.1259C57.5924 19.6417 59.85 18.6597 62.6425 17.9632C65.8654 17.1593 68.3327 17.1067 71.6012 17.7721C77.2351 18.919 80.483 21.8419 81.0674 26.2909C81.1904 27.2277 81.1113 29.0973 80.9076 30.065C80.3594 32.6699 78.8833 35.1695 76.5813 37.3914C73.5232 40.3431 69.4449 42.1153 64.5255 42.6305C63.7195 42.7149 60.6926 42.7879 60.0607 42.7382ZM64.9673 36.632C67.6058 36.287 69.6989 35.2858 71.3057 33.6002C72.2894 32.5683 72.9596 31.4132 73.2695 30.216C73.4653 29.4593 73.4833 28.1671 73.3073 27.4986C72.7224 25.2765 70.8052 23.9016 67.6249 23.4235C66.2631 23.2188 65.1826 23.2893 63.6093 23.6857C60.9809 24.3478 58.6095 25.8729 57.3642 27.702C56.3811 29.146 55.9747 30.8144 56.2723 32.1849C56.4298 32.9099 56.9486 34.0056 57.3773 34.5185C58.3112 35.6357 59.6989 36.3687 61.3725 36.6287C62.2656 36.7675 63.9197 36.769 64.9673 36.632ZM31.1147 42.48C26.0224 41.5757 22.3902 38.8868 21.3289 35.2356C21.0809 34.3823 20.9742 33.4867 20.9746 32.263C20.9753 30.3759 21.249 28.929 21.9154 27.2902C24.0058 22.1491 29.3945 18.3647 36.0348 17.3743C36.7968 17.2607 37.7828 17.2411 44.0363 17.2158C47.9592 17.1999 51.1687 17.1973 51.1686 17.21C51.1686 17.2227 50.833 18.5408 50.4229 20.1391L49.6774 23.0452L43.442 23.0844C37.2987 23.123 37.1944 23.1262 36.3783 23.2975C33.8407 23.8304 31.732 24.8656 30.3579 26.2531C29.5905 27.028 29.0978 27.8192 28.7598 28.8196C28.5447 29.4564 28.5136 29.6562 28.4825 30.6046C28.4325 32.1278 28.645 33.0246 29.3014 34.0614C29.8878 34.9875 30.867 35.7149 32.1261 36.1598C33.34 36.5887 33.4448 36.5943 40.2848 36.5943H46.5594L46.5121 36.8396C46.486 36.9745 46.185 38.3247 45.8431 39.84L45.2214 42.5951L38.5654 42.6081C32.3643 42.6202 31.855 42.6114 31.1147 42.48ZM77.3528 42.5762C77.3537 42.4167 79.5423 38.1488 80.0913 37.2358C82.4986 33.2333 84.7685 30.8584 87.482 29.5032C88.4409 29.0242 89.2555 28.7904 91.4391 28.3673C94.2905 27.8148 97.8513 27.0615 99.2607 26.7126C101.35 26.1955 102.209 25.861 102.581 25.4208C102.757 25.2122 102.78 25.1197 102.78 24.6221C102.78 23.9409 102.647 23.5909 102.311 23.3868C102.064 23.2363 101.954 23.2345 93.0398 23.2342L84.0189 23.2339L83.9713 22.9508C83.7442 21.5992 82.9348 20.3494 81.0809 18.4878C80.4038 17.8079 79.8498 17.239 79.8498 17.2235C79.8498 17.208 84.8984 17.1955 91.0688 17.1958C103.332 17.1962 102.867 17.181 104.629 17.6408C107.077 18.2796 108.846 19.5078 109.665 21.1365C110.105 22.0138 110.222 22.6543 110.176 23.9397C110.134 25.1052 109.997 25.7571 109.593 26.7255C108.885 28.4216 107.237 30.079 105.126 31.2166C103.888 31.8833 101.914 32.5443 100.863 32.6432C99.8936 32.7346 99.8032 33.0803 100.642 33.4905C101.442 33.882 102.339 34.5165 103.096 35.2258C104.34 36.3924 105.134 37.6571 105.383 38.871C105.541 39.6388 105.613 40.9876 105.545 41.8969L105.49 42.6328H96.7848L96.8333 42.4401C97.073 41.4875 97.1677 39.8941 97.0282 39.1605C96.8149 38.0389 94.5734 35.8288 92.7794 34.9712C92.104 34.6484 91.8839 34.643 91.298 34.935C90.0081 35.578 88.0833 38.1978 86.3494 41.6704L85.8689 42.6328H81.6107C79.2687 42.6328 77.3527 42.6074 77.3528 42.5762ZM108.453 42.5765C108.451 42.5452 109.736 36.8216 111.307 29.8575L114.163 17.1953H125.688C132.026 17.1953 137.212 17.2123 137.212 17.233C137.212 17.267 136.058 22.5822 135.963 22.9886L135.923 23.1584H128.129C123.843 23.1584 120.336 23.1687 120.336 23.1812C120.336 23.1937 120.149 24.1345 119.92 25.2719C119.691 26.4093 119.504 27.3671 119.504 27.4004C119.504 27.4337 122.398 27.4609 125.936 27.4609C129.474 27.4609 132.369 27.4864 132.37 27.5175C132.371 27.5486 132.107 28.7714 131.784 30.2347L131.196 32.8953L124.684 32.8955L118.171 32.8956L117.778 34.7332C117.562 35.7439 117.385 36.6101 117.385 36.658C117.385 36.7234 119.309 36.7452 125.066 36.7452C132.333 36.7452 132.747 36.7523 132.743 36.8773C132.74 36.95 132.459 38.2662 132.117 39.8022L131.496 42.5951L119.976 42.6142C113.639 42.6247 108.454 42.6077 108.453 42.5765ZM134.336 42.5331C134.336 42.4632 139.644 19.6871 140.201 17.3651L140.242 17.1953H143.954C147.454 17.1953 147.663 17.2029 147.625 17.3274C147.552 17.5671 143.342 36.4213 143.342 36.5087C143.342 36.5719 145.438 36.5943 151.363 36.5943C155.775 36.5943 159.385 36.6121 159.385 36.634C159.385 36.6775 158.388 41.303 158.202 42.1233L158.086 42.6328H146.211C136.418 42.6328 134.336 42.6153 134.336 42.5331Z" fill="white"/>
</svg>
