<svg width="229" height="48" viewBox="0 0 229 48" fill="none" xmlns="http://www.w3.org/2000/svg">
<g clip-path="url(#clip0_37_45)">
<path d="M23.2596 43.7414C23.2596 43.6224 23.2528 23.0283 23.2528 23.0283C23.2528 23.0283 35.3701 11.3692 35.467 11.2891C35.6043 11.4539 37.7684 14.6703 38.4439 16.3002C39.1578 18.024 39.6262 19.8188 39.8581 21.6731C40.0157 22.9345 40.0338 24.2004 39.9504 25.4709C39.8086 27.6549 39.3042 29.7473 38.4665 31.7572C37.7008 33.5955 36.6605 35.2598 35.3814 36.7775C34.6203 37.6795 33.8006 38.5219 32.8998 39.2751C31.5802 40.3785 30.157 41.3217 28.6078 42.068C27.0044 42.8395 23.4262 43.7483 23.3451 43.7574C23.3339 43.762 23.3159 43.7529 23.2596 43.7414Z" fill="#FDC448"/>
<path d="M32.809 8.58872C31.4353 9.88443 30.0955 11.1504 28.7669 12.4026C28.3886 12.1645 28.0373 11.9356 27.6792 11.7204C26.1772 10.8139 24.5649 10.2049 22.8399 9.91419C21.3019 9.65321 19.7594 9.64864 18.2146 9.87985C16.2825 10.1683 14.472 10.8047 12.7943 11.8211C10.8735 12.9841 9.2724 14.4995 8.02036 16.3882C7.02278 17.8922 6.3247 19.5313 5.91036 21.294C5.56807 22.7454 5.47349 24.2174 5.58384 25.7054C5.74597 27.8687 6.34047 29.8993 7.37858 31.7948C7.38759 31.8108 4.84297 34.3176 3.52562 35.5652C3.3207 35.2653 3.1293 34.9997 2.95365 34.725C1.74439 32.8364 0.913453 30.7875 0.442811 28.5876C0.120793 27.0858 -0.0120671 25.5703 -0.000807776 24.0365C0.0149553 21.9144 0.384262 19.8587 1.05082 17.8533C1.91328 15.2619 3.24864 12.9429 5.03438 10.894C6.97775 8.66197 9.30843 6.96793 11.9837 5.75692C13.4023 5.11593 14.8796 4.65579 16.4041 4.36048C17.0098 4.24373 19.7864 3.98046 20.561 4.00336C21.5091 4.02854 22.4504 4.11324 23.3871 4.25975C25.1706 4.53904 26.873 5.0793 28.5102 5.84162C29.8815 6.48032 31.1471 7.29758 32.3473 8.22473C32.4892 8.33461 32.6311 8.44907 32.809 8.58872Z" fill="#FDC448"/>
<path d="M20.5663 44.0002L17.3844 43.9384L17.3799 28.3807C17.3799 28.3807 20.5573 25.3245 20.5663 25.3291C20.5731 25.3337 20.5663 44.0002 20.5663 44.0002Z" fill="#FDC448"/>
<path d="M14.6169 30.9033V43.3728L11.4125 42.1618L11.453 33.9366L14.6169 30.9033Z" fill="#FDC448"/>
<path d="M8.48953 40.5204L6.21063 38.7119L8.55258 36.4937L8.48953 40.5204Z" fill="#FDC448"/>
</g>
<path d="M64.64 37.48C62.72 37.48 60.9733 37.1467 59.4 36.48C57.8533 35.7867 56.52 34.84 55.4 33.64C54.3067 32.44 53.4533 31.0667 52.84 29.52C52.2533 27.9467 51.96 26.28 51.96 24.52C51.96 22.36 52.3733 20.4667 53.2 18.84C54.0533 17.2133 55.1733 15.8667 56.56 14.8C57.9467 13.7067 59.4667 12.8933 61.12 12.36C62.7733 11.8267 64.4133 11.56 66.04 11.56C68.0133 11.56 69.7733 11.92 71.32 12.64C72.8933 13.3333 74.2267 14.28 75.32 15.48C76.4133 16.68 77.24 18.04 77.8 19.56C78.3867 21.08 78.68 22.64 78.68 24.24C78.68 26.1067 78.3067 27.84 77.56 29.44C76.8133 31.04 75.7867 32.44 74.48 33.64C73.2 34.84 71.7067 35.7867 70 36.48C68.32 37.1467 66.5333 37.48 64.64 37.48ZM65.96 36.48C67.4533 36.48 68.7867 36.0533 69.96 35.2C71.1333 34.3467 72.0533 33.0933 72.72 31.44C73.4133 29.7867 73.76 27.7733 73.76 25.4C73.76 22.9467 73.3867 20.76 72.64 18.84C71.8933 16.92 70.8267 15.4133 69.44 14.32C68.0533 13.2 66.3867 12.64 64.44 12.64C62.0133 12.64 60.1467 13.56 58.84 15.4C57.5333 17.24 56.88 19.7867 56.88 23.04C56.88 24.9867 57.1067 26.7867 57.56 28.44C58.0133 30.0667 58.64 31.4933 59.44 32.72C60.2667 33.92 61.2267 34.8533 62.32 35.52C63.44 36.16 64.6533 36.48 65.96 36.48ZM87.065 26.16L86.745 25.64C87.785 24.44 88.665 23.52 89.385 22.88C90.105 22.24 90.7183 21.8 91.225 21.56C91.7317 21.2933 92.185 21.16 92.585 21.16C93.145 21.16 93.7183 21.3733 94.305 21.8C94.9183 22.2 95.225 22.7333 95.225 23.4C95.225 23.96 95.0517 24.4267 94.705 24.8C94.385 25.1467 93.9317 25.32 93.345 25.32C92.785 25.32 92.3583 25.1733 92.065 24.88C91.7983 24.5867 91.545 24.3067 91.305 24.04C91.0917 23.7467 90.7717 23.6 90.345 23.6C90.1583 23.6 89.945 23.6667 89.705 23.8C89.4917 23.9067 89.1717 24.1467 88.745 24.52C88.345 24.8667 87.785 25.4133 87.065 26.16ZM82.185 37C82.105 37 82.065 36.92 82.065 36.76C82.065 36.6 82.105 36.52 82.185 36.52C83.0117 36.52 83.5717 36.3333 83.865 35.96C84.1583 35.56 84.305 34.8267 84.305 33.76V26.24C84.305 25.4133 84.2117 24.8133 84.025 24.44C83.8383 24.04 83.5183 23.84 83.065 23.84C82.825 23.84 82.545 23.8933 82.225 24C81.905 24.08 81.545 24.2133 81.145 24.4C81.0383 24.4533 80.9583 24.4 80.905 24.24C80.8517 24.08 80.8517 23.9867 80.905 23.96L86.465 21.24C86.625 21.1867 86.7183 21.16 86.745 21.16C87.0383 21.16 87.3317 21.48 87.625 22.12C87.9183 22.76 88.065 23.68 88.065 24.88V33.76C88.065 34.4533 88.1717 35.0133 88.385 35.44C88.5983 35.84 88.9583 36.12 89.465 36.28C89.9983 36.44 90.7183 36.52 91.625 36.52C91.7317 36.52 91.785 36.6 91.785 36.76C91.785 36.92 91.7317 37 91.625 37C90.905 37 90.0783 36.9867 89.145 36.96C88.2383 36.9333 87.2517 36.92 86.185 36.92C85.4383 36.92 84.7183 36.9333 84.025 36.96C83.3317 36.9867 82.7183 37 82.185 37ZM103.461 37.48C101.995 37.48 100.835 37.0133 99.9813 36.08C99.1546 35.1467 98.7413 33.9467 98.7413 32.48V26.6C98.7413 25.72 98.6346 25.0667 98.4212 24.64C98.2346 24.2133 97.9279 24 97.5013 24C97.2079 24 96.8746 24.0933 96.5013 24.28C96.3946 24.3067 96.3013 24.24 96.2213 24.08C96.1679 23.92 96.1813 23.8267 96.2613 23.8L101.621 21.24C101.701 21.2133 101.768 21.2 101.821 21.2C101.955 21.2 102.088 21.2667 102.221 21.4C102.381 21.5067 102.461 21.6133 102.461 21.72V30.56C102.461 32 102.728 33.08 103.261 33.8C103.821 34.52 104.661 34.88 105.781 34.88C106.555 34.88 107.328 34.6667 108.101 34.24C108.875 33.7867 109.488 33.2267 109.941 32.56L110.181 33.04C109.275 34.3467 108.261 35.4133 107.141 36.24C106.021 37.0667 104.795 37.48 103.461 37.48ZM112.901 21.72V32.36C112.901 33.2667 112.981 33.9067 113.141 34.28C113.328 34.6533 113.621 34.84 114.021 34.84C114.208 34.84 114.435 34.8 114.701 34.72C114.995 34.64 115.315 34.5333 115.661 34.4C115.768 34.3467 115.861 34.4 115.941 34.56C116.021 34.6933 116.021 34.7867 115.941 34.84L110.421 37.52C110.368 37.5467 110.301 37.56 110.221 37.56C109.955 37.56 109.715 37.2267 109.501 36.56C109.288 35.8933 109.181 34.9467 109.181 33.72V26.6C109.181 25.72 109.075 25.0667 108.861 24.64C108.675 24.2133 108.368 24 107.941 24C107.648 24 107.301 24.0933 106.901 24.28C106.821 24.3067 106.741 24.24 106.661 24.08C106.608 23.92 106.621 23.8267 106.701 23.8L112.061 21.24C112.115 21.2133 112.181 21.2 112.261 21.2C112.395 21.2 112.528 21.2667 112.661 21.4C112.821 21.5067 112.901 21.6133 112.901 21.72ZM122.937 16.04C122.937 17.0533 123.19 17.9467 123.697 18.72C124.23 19.4667 124.91 20.1467 125.737 20.76C126.59 21.3733 127.483 21.9867 128.417 22.6C129.43 23.24 130.39 23.92 131.297 24.64C132.23 25.3333 132.99 26.1467 133.577 27.08C134.19 27.9867 134.497 29.08 134.497 30.36C134.497 31.7733 134.11 33.0133 133.337 34.08C132.59 35.1467 131.563 35.9867 130.257 36.6C128.977 37.1867 127.51 37.48 125.857 37.48C125.057 37.48 124.217 37.4 123.337 37.24C122.483 37.08 121.697 36.88 120.977 36.64C120.283 36.4 119.777 36.1467 119.457 35.88C119.35 35.8 119.257 35.72 119.177 35.64C119.097 35.5333 119.057 35.36 119.057 35.12L118.937 28.76C118.91 28.6267 118.963 28.56 119.097 28.56C119.257 28.5333 119.35 28.5733 119.377 28.68C119.777 29.5067 120.217 30.3867 120.697 31.32C121.177 32.2267 121.71 33.0667 122.297 33.84C122.91 34.6133 123.59 35.2533 124.337 35.76C125.083 36.24 125.937 36.48 126.897 36.48C127.51 36.48 128.097 36.3733 128.657 36.16C129.217 35.9467 129.67 35.56 130.017 35C130.39 34.44 130.577 33.6667 130.577 32.68C130.577 31.4267 130.297 30.36 129.737 29.48C129.177 28.5733 128.457 27.7867 127.577 27.12C126.697 26.4267 125.777 25.7733 124.817 25.16C123.883 24.5467 122.99 23.92 122.137 23.28C121.283 22.6133 120.59 21.8667 120.057 21.04C119.523 20.1867 119.257 19.1733 119.257 18C119.257 16.5067 119.67 15.2933 120.497 14.36C121.35 13.4 122.417 12.6933 123.697 12.24C125.003 11.7867 126.323 11.56 127.657 11.56C128.617 11.56 129.577 11.6533 130.537 11.84C131.497 12 132.257 12.2 132.817 12.44C133.083 12.5467 133.243 12.6667 133.297 12.8C133.377 12.9333 133.417 13.08 133.417 13.24V19.12C133.417 19.2 133.35 19.2667 133.217 19.32C133.11 19.3467 133.03 19.32 132.977 19.24C132.817 18.92 132.59 18.4 132.297 17.68C132.003 16.9333 131.617 16.16 131.137 15.36C130.657 14.56 130.043 13.88 129.297 13.32C128.55 12.7333 127.643 12.44 126.577 12.44C125.91 12.44 125.297 12.5733 124.737 12.84C124.203 13.1067 123.763 13.5067 123.417 14.04C123.097 14.5467 122.937 15.2133 122.937 16.04ZM143.923 37.48C143.283 37.48 142.629 37.3733 141.963 37.16C141.323 36.9467 140.776 36.5733 140.323 36.04C139.896 35.5067 139.683 34.76 139.683 33.8V24.92C139.683 24.36 139.616 23.92 139.483 23.6C139.349 23.28 139.136 23.0533 138.843 22.92C138.549 22.7867 138.149 22.72 137.643 22.72C137.536 22.72 137.483 22.6 137.483 22.36C137.483 22.12 137.536 22 137.643 22C139.003 21.9467 140.109 21.6533 140.963 21.12C141.816 20.56 142.456 19.7467 142.883 18.68C142.936 18.5733 143.043 18.52 143.203 18.52C143.389 18.52 143.483 18.5733 143.483 18.68V32.48C143.483 33.5467 143.749 34.3067 144.283 34.76C144.843 35.2133 145.523 35.44 146.323 35.44C146.936 35.44 147.509 35.32 148.043 35.08C148.603 34.8133 149.069 34.5333 149.443 34.24C149.523 34.16 149.616 34.1867 149.723 34.32C149.856 34.4267 149.869 34.52 149.763 34.6C148.776 35.5867 147.816 36.32 146.883 36.8C145.976 37.2533 144.989 37.48 143.923 37.48ZM148.523 23.6C147.429 23.36 146.363 23.2 145.323 23.12C144.309 23.0133 143.229 22.96 142.083 22.96V21.92C143.176 21.92 144.243 21.88 145.283 21.8C146.349 21.72 147.483 21.6267 148.683 21.52C148.736 21.52 148.789 21.6267 148.843 21.84C148.923 22.0267 148.963 22.24 148.963 22.48C148.963 22.7467 148.909 23.0133 148.803 23.28C148.723 23.52 148.629 23.6267 148.523 23.6ZM157.68 37.48C156.213 37.48 155.053 37.0133 154.2 36.08C153.373 35.1467 152.96 33.9467 152.96 32.48V26.6C152.96 25.72 152.853 25.0667 152.64 24.64C152.453 24.2133 152.147 24 151.72 24C151.427 24 151.093 24.0933 150.72 24.28C150.613 24.3067 150.52 24.24 150.44 24.08C150.387 23.92 150.4 23.8267 150.48 23.8L155.84 21.24C155.92 21.2133 155.987 21.2 156.04 21.2C156.173 21.2 156.307 21.2667 156.44 21.4C156.6 21.5067 156.68 21.6133 156.68 21.72V30.56C156.68 32 156.947 33.08 157.48 33.8C158.04 34.52 158.88 34.88 160 34.88C160.773 34.88 161.547 34.6667 162.32 34.24C163.093 33.7867 163.707 33.2267 164.16 32.56L164.4 33.04C163.493 34.3467 162.48 35.4133 161.36 36.24C160.24 37.0667 159.013 37.48 157.68 37.48ZM167.12 21.72V32.36C167.12 33.2667 167.2 33.9067 167.36 34.28C167.547 34.6533 167.84 34.84 168.24 34.84C168.427 34.84 168.653 34.8 168.92 34.72C169.213 34.64 169.533 34.5333 169.88 34.4C169.987 34.3467 170.08 34.4 170.16 34.56C170.24 34.6933 170.24 34.7867 170.16 34.84L164.64 37.52C164.587 37.5467 164.52 37.56 164.44 37.56C164.173 37.56 163.933 37.2267 163.72 36.56C163.507 35.8933 163.4 34.9467 163.4 33.72V26.6C163.4 25.72 163.293 25.0667 163.08 24.64C162.893 24.2133 162.587 24 162.16 24C161.867 24 161.52 24.0933 161.12 24.28C161.04 24.3067 160.96 24.24 160.88 24.08C160.827 23.92 160.84 23.8267 160.92 23.8L166.28 21.24C166.333 21.2133 166.4 21.2 166.48 21.2C166.613 21.2 166.747 21.2667 166.88 21.4C167.04 21.5067 167.12 21.6133 167.12 21.72ZM177.755 37.52C176.609 37.52 175.555 37.2133 174.595 36.6C173.662 35.9867 172.902 35.1067 172.315 33.96C171.755 32.7867 171.475 31.3733 171.475 29.72C171.475 28.0933 171.769 26.7333 172.355 25.64C172.942 24.52 173.689 23.6267 174.595 22.96C175.529 22.2933 176.529 21.8133 177.595 21.52C178.662 21.2 179.675 21.04 180.635 21.04C181.595 21.04 182.489 21.16 183.315 21.4C184.142 21.64 184.889 21.9333 185.555 22.28L184.635 25.52C184.075 24.32 183.435 23.4533 182.715 22.92C181.995 22.36 181.102 22.08 180.035 22.08C178.675 22.08 177.595 22.56 176.795 23.52C175.995 24.4533 175.595 26.0933 175.595 28.44C175.595 29.96 175.782 31.2533 176.155 32.32C176.529 33.3867 177.049 34.2 177.715 34.76C178.382 35.32 179.129 35.6 179.955 35.6C181.022 35.6 181.955 35.3067 182.755 34.72C183.555 34.1333 184.329 33.4267 185.075 32.6L185.475 32.96C184.915 33.6 184.249 34.28 183.475 35C182.729 35.6933 181.875 36.2933 180.915 36.8C179.982 37.28 178.929 37.52 177.755 37.52ZM187.515 8.52V32.36C187.515 33.2667 187.595 33.9067 187.755 34.28C187.942 34.6533 188.235 34.84 188.635 34.84C188.822 34.84 189.049 34.8 189.315 34.72C189.609 34.64 189.929 34.5333 190.275 34.4C190.355 34.3467 190.435 34.4 190.515 34.56C190.595 34.6933 190.609 34.7867 190.555 34.84L185.035 37.52C184.955 37.5467 184.889 37.56 184.835 37.56C184.569 37.56 184.315 37.2267 184.075 36.56C183.862 35.8933 183.755 34.9467 183.755 33.72V13.44C183.755 12.5333 183.675 11.88 183.515 11.48C183.355 11.0533 183.049 10.84 182.595 10.84C182.409 10.84 182.182 10.88 181.915 10.96C181.675 11.04 181.409 11.1467 181.115 11.28C181.009 11.3067 180.915 11.24 180.835 11.08C180.755 10.92 180.742 10.8267 180.795 10.8L186.675 8.04C186.729 8.01333 186.782 8 186.835 8C186.969 8 187.115 8.06667 187.275 8.2C187.435 8.30667 187.515 8.41333 187.515 8.52ZM192.146 37C192.066 37 192.026 36.92 192.026 36.76C192.026 36.6 192.066 36.52 192.146 36.52C192.973 36.52 193.533 36.3333 193.826 35.96C194.119 35.56 194.266 34.8267 194.266 33.76V26.6C194.266 25.72 194.173 25.08 193.986 24.68C193.826 24.2533 193.519 24.04 193.066 24.04C192.879 24.04 192.653 24.08 192.386 24.16C192.146 24.24 191.879 24.3467 191.586 24.48C191.479 24.5067 191.386 24.44 191.306 24.28C191.253 24.12 191.266 24.0267 191.346 24L197.386 21.2C197.439 21.1733 197.479 21.16 197.506 21.16C197.639 21.16 197.773 21.2267 197.906 21.36C198.039 21.4933 198.106 21.6133 198.106 21.72C198.106 22.04 198.093 22.5733 198.066 23.32C198.039 24.0667 198.026 25.1333 198.026 26.52V33.76C198.026 34.8267 198.173 35.56 198.466 35.96C198.786 36.3333 199.359 36.52 200.186 36.52C200.266 36.52 200.306 36.6 200.306 36.76C200.306 36.92 200.266 37 200.186 37C199.653 37 199.039 36.9867 198.346 36.96C197.653 36.9333 196.919 36.92 196.146 36.92C195.399 36.92 194.679 36.9333 193.986 36.96C193.293 36.9867 192.679 37 192.146 37ZM195.986 17.2C195.239 17.2 194.639 16.9867 194.186 16.56C193.759 16.1333 193.546 15.5333 193.546 14.76C193.546 14.0667 193.759 13.52 194.186 13.12C194.639 12.6933 195.239 12.48 195.986 12.48C196.733 12.48 197.306 12.6933 197.706 13.12C198.106 13.52 198.306 14.0667 198.306 14.76C198.306 16.3867 197.533 17.2 195.986 17.2ZM210.574 37.52C208.894 37.52 207.44 37.1333 206.214 36.36C204.987 35.5867 204.04 34.56 203.374 33.28C202.707 31.9733 202.374 30.5733 202.374 29.08C202.374 27.6933 202.64 26.4933 203.174 25.48C203.707 24.4667 204.414 23.64 205.294 23C206.174 22.3333 207.134 21.84 208.174 21.52C209.214 21.2 210.24 21.04 211.254 21.04C212.96 21.04 214.414 21.44 215.614 22.24C216.84 23.04 217.774 24.0667 218.414 25.32C219.054 26.5733 219.374 27.9067 219.374 29.32C219.374 30.9467 218.96 32.3867 218.134 33.64C217.334 34.8667 216.267 35.8267 214.934 36.52C213.6 37.1867 212.147 37.52 210.574 37.52ZM211.774 36.68C212.84 36.68 213.64 36.16 214.174 35.12C214.707 34.08 214.974 32.6133 214.974 30.72C214.974 28.7733 214.72 27.1467 214.214 25.84C213.734 24.5333 213.107 23.5467 212.334 22.88C211.56 22.2133 210.747 21.88 209.894 21.88C208.854 21.88 208.054 22.3467 207.494 23.28C206.96 24.2133 206.694 25.6533 206.694 27.6C206.694 29.4133 206.92 31.0133 207.374 32.4C207.827 33.76 208.44 34.8133 209.214 35.56C209.987 36.3067 210.84 36.68 211.774 36.68ZM224.864 37.44C224.117 37.44 223.517 37.2267 223.064 36.8C222.637 36.3467 222.424 35.7467 222.424 35C222.424 34.3067 222.637 33.7467 223.064 33.32C223.517 32.8933 224.117 32.68 224.864 32.68C225.637 32.68 226.224 32.8933 226.624 33.32C227.024 33.7467 227.224 34.3067 227.224 35C227.224 35.7467 227.024 36.3467 226.624 36.8C226.224 37.2267 225.637 37.44 224.864 37.44Z" fill="white"/>
<defs>
<clipPath id="clip0_37_45">
<rect width="40" height="40" fill="white" transform="translate(0 4)"/>
</clipPath>
</defs>
</svg>
