<svg width="216" height="64" viewBox="0 0 216 64" fill="none" xmlns="http://www.w3.org/2000/svg">
<g clip-path="url(#clip0_49590_11436)">
<path d="M78.545 11.7275C72.8704 11.7275 69.6936 15.3376 68.7842 19.0543C67.7536 17.1604 66.9897 14.6275 66.3956 12.272H58.5506V21.8003C58.5506 25.2565 56.9379 27.8132 53.7854 27.8132C50.6328 27.8132 48.8262 25.2565 48.8262 21.8003L48.8625 12.272H44.3398V21.8003C44.3398 24.5819 45.2614 27.103 46.9468 28.9021C48.6807 30.7604 51.0451 31.731 53.7854 31.731C59.2417 31.731 63.049 27.6475 63.049 21.8003V15.3968C63.6189 17.5037 64.9769 21.5517 67.5717 25.1027L65.1467 38.5843H69.7421L71.3426 29.0323C71.864 29.4584 72.4218 29.8372 73.0159 30.1805C74.5558 31.1274 76.314 31.66 78.1327 31.7192C78.1327 31.7192 78.4116 31.731 78.5571 31.731C84.1832 31.731 88.6574 27.4818 88.6574 21.7411C88.6574 16.0005 84.1711 11.7275 78.545 11.7275ZM78.545 27.8014C75.0651 27.8014 72.7613 25.1737 72.1186 24.1557C72.9432 17.7167 75.3561 15.6809 78.545 15.6809C81.6975 15.6809 84.1468 18.1429 84.1468 21.7411C84.1468 25.3394 81.6975 27.8014 78.545 27.8014Z" fill="white"/>
<path d="M143.512 14.31V12.2742H139.074V31.1296H143.572V23.7436C143.572 19.1985 143.997 15.9316 150.241 16.3577V12.0493C147.331 11.8362 145.064 12.4281 143.512 14.31Z" fill="white"/>
<path d="M112.277 12.2742L109.015 25.4599L105.535 12.2742H99.8124L96.3203 25.4599L93.0708 12.2742H88.5117L93.5073 31.1414H98.9151L102.674 17.7426L106.396 31.1414H111.804L117.091 12.2742H112.277Z" fill="white"/>
<path d="M126.997 11.7297C121.335 11.7297 116.897 16.0145 116.897 21.7433C116.897 27.4721 121.335 31.7214 126.997 31.7214C132.623 31.7214 137.097 27.4721 137.097 21.7433C137.097 16.0145 132.635 11.7297 126.997 11.7297ZM126.997 27.8154C123.796 27.8154 121.395 25.3534 121.395 21.7433C121.395 18.1332 123.808 15.6831 126.997 15.6831C130.15 15.6831 132.599 18.145 132.599 21.7433C132.599 25.3416 130.15 27.8154 126.997 27.8154Z" fill="white"/>
<path d="M156.692 21.8617H157.734L164.015 31.1414H169.096L161.869 20.8556C165.373 19.5181 167.726 16.0263 167.726 12.2742H163.239C163.239 16.3459 159.953 17.8846 156.692 17.8846V4.8291H152.181V31.1414H156.679L156.692 21.8617Z" fill="white"/>
</g>
<path d="M21.8294 57.613C19.1854 58.4953 16.7109 58.8007 14.2195 57.8335C12.3212 57.0869 10.0671 55.1186 9.55859 53.7612C9.91451 53.7103 10.2704 53.6254 10.6094 53.5915C12.0331 53.4388 13.4568 53.2182 14.8974 53.1842C16.4058 53.1333 17.7956 53.6254 18.9651 54.6096C19.7786 55.2883 20.5244 56.0688 21.287 56.8324C21.4735 57.0021 21.5921 57.2566 21.8294 57.613Z" fill="white"/>
<path d="M22.25 57.0536C22.1314 57.0366 22.0636 57.0366 22.0297 57.0027C20.3348 55.5263 18.7586 53.9311 18.3688 51.5892C18.2162 50.6558 18.2332 49.6715 18.3179 48.7212C18.4366 47.5163 18.7247 46.3284 18.945 45.1404C18.9789 44.9877 19.0806 44.852 19.1654 44.6992C23.3517 47.6351 24.3855 52.5056 22.25 57.0536Z" fill="white"/>
<path d="M3.44531 44.7479C3.53006 44.6801 3.547 44.6631 3.56395 44.6631C5.36051 44.714 7.17401 44.714 8.91972 45.1721C10.4451 45.5624 11.6823 46.4278 12.5976 47.7174C13.0721 48.3791 13.5128 49.0748 13.9535 49.7536C14.0891 49.9741 14.1568 50.2456 14.2585 50.5002C9.68241 51.5013 5.17407 49.3972 3.44531 44.7479Z" fill="white"/>
<path d="M14.7765 50.1278C14.7087 50.0939 14.607 50.0769 14.5562 50.026C13.5393 48.6684 12.641 47.2428 12.2851 45.5458C11.98 44.1373 12.2342 42.7966 12.7088 41.4729C13.0986 40.3868 13.5562 39.3177 13.9799 38.2486C14.0308 38.1298 14.1155 38.011 14.1833 37.9092C15.3867 38.6219 16.7425 41.7275 16.8951 43.3906C17.0815 45.6476 16.0476 49.0078 14.7765 50.1278Z" fill="white"/>
<path d="M13.0992 30.7471C15.0653 34.1411 12.8789 40.4201 9.218 41.8626C9.15021 41.7778 9.04852 41.7099 9.03157 41.6081C8.6926 40.2335 8.42142 38.8589 8.54006 37.4334C8.64175 36.1606 9.09936 35.0066 9.9129 34.0393C10.8451 32.9193 11.8959 31.8841 12.8789 30.815C12.9128 30.781 12.9806 30.781 13.0992 30.7471Z" fill="white"/>
<path d="M1.03158 32.957C2.76034 33.8055 4.60775 34.3147 6.06533 35.5705C7.11614 36.4869 7.81104 37.6239 8.15001 38.9645C8.2856 39.5415 8.43814 40.1185 8.53983 40.6955C8.60762 41.1028 8.60762 41.5101 8.64152 41.9173C7.18394 41.9852 4.45521 40.5937 3.16711 39.1172C1.64173 37.3863 1.01464 35.2989 1.03158 32.957Z" fill="white"/>
<path d="M7.12791 32.4176C7.09401 32.2988 7.02621 32.163 7.02621 32.0273C6.99232 30.8393 7.02621 29.6514 7.33129 28.4974C7.60247 27.4623 8.11093 26.5628 8.83972 25.7992C10.06 24.5094 11.6532 23.7797 13.0599 22.7275C13.5853 23.627 13.2972 26.1046 12.5345 27.8526C11.6532 29.889 9.19564 31.9764 7.12791 32.4176Z" fill="white"/>
<path d="M1.45862 22.1602C2.66198 23.1784 3.84838 24.0778 4.91614 25.113C6.17034 26.3179 6.78049 27.8452 6.76355 29.6101C6.76355 30.238 6.76355 30.849 6.72965 31.4769C6.7127 31.7823 6.62796 32.0708 6.57711 32.3763C2.984 31.6635 -0.219291 25.4354 1.45862 22.1602Z" fill="white"/>
<path d="M12.4572 8.65486C12.3894 8.57 12.3555 8.55303 12.3555 8.53606C12.4233 5.65111 13.2029 3.12254 15.9316 1.61218C16.9485 1.05216 17.9655 0.526079 18.9824 0C19.3892 0.848515 18.9315 3.15648 18.0841 4.70077C17.0333 6.63539 14.491 8.43424 12.4572 8.65486Z" fill="white"/>
<path d="M4.9683 12.8311C6.01911 14.1887 7.20552 15.3087 7.93431 16.8021C8.32413 17.5997 8.51056 18.4482 8.49361 19.3307C8.44277 20.6035 8.17159 21.8083 7.68008 22.9963C4.47679 21.5877 2.93446 15.8687 4.9683 12.8311Z" fill="white"/>
<path d="M15.4313 15.6484C15.2788 19.6869 12.1941 22.8769 8.16034 23.0975C8.14339 23.0296 8.07559 22.9448 8.09254 22.8769C8.51626 19.9414 9.77046 17.6168 12.7534 16.5987C13.4653 16.3441 14.1771 16.0387 14.8889 15.7672C15.0584 15.6993 15.2449 15.6993 15.4313 15.6484Z" fill="white"/>
<path d="M18.1997 8.05832C17.6404 11.9101 14.8609 14.6081 10.7593 14.7438C10.7254 14.6929 10.6576 14.642 10.6746 14.6081C10.9796 13.047 11.505 11.5707 12.6406 10.3999C13.2507 9.75515 14.0134 9.31397 14.8439 9.02551C15.8269 8.68615 16.81 8.36375 17.8099 8.05832C17.8947 8.04135 18.0133 8.05832 18.1997 8.05832Z" fill="white"/>
<path d="M8.16934 4.7373C8.35578 4.80519 8.42357 4.80519 8.45747 4.83913C9.20321 5.92523 9.99979 6.99436 10.6608 8.13137C11.3387 9.28535 11.4913 10.5751 11.1692 11.8988C10.9489 12.7982 10.7455 13.6976 10.2879 14.5122C9.37269 14.1898 8.06765 12.4758 7.52529 10.8296C6.8304 8.72533 7.23717 6.7398 8.16934 4.7373Z" fill="white"/>
<path d="M35.863 61.556C35.7105 62.116 35.3207 62.2347 34.863 62.1838C33.6936 62.0651 32.4902 62.0142 31.3377 61.7936C28.3887 61.2506 25.6769 60.0967 23.2193 58.383C23.0668 58.2811 22.9312 58.1454 22.7617 57.9927C22.8465 57.8739 22.9143 57.7891 23.0329 57.6533C23.3888 57.8569 23.7108 58.0436 24.0498 58.2472C26.4226 59.6216 28.9819 60.47 31.6937 60.7924C32.7614 60.9112 33.8292 60.9452 34.8969 61.013C35.2868 61.047 35.6935 61.013 35.863 61.556Z" fill="white"/>
<path d="M205.407 54.198C202.645 58.4571 197.781 59.8994 193.238 57.8462C193.289 57.7274 193.306 57.5747 193.374 57.4729C194.272 56.37 195.255 55.3519 196.442 54.5713C197.967 53.5533 199.696 53.3496 201.475 53.5193C202.645 53.6381 203.814 53.8247 205.001 53.9944C205.119 54.0284 205.255 54.1302 205.407 54.198Z" fill="white"/>
<path d="M192.811 57.4564C190.54 53.2139 191.523 47.97 195.828 45.0342C195.896 45.2209 195.98 45.3906 196.014 45.5772C196.218 46.6633 196.421 47.7325 196.607 48.8186C196.997 51.1944 196.624 53.3836 194.997 55.2333C194.523 55.7594 194.065 56.3025 193.591 56.8116C193.353 57.0492 193.065 57.2358 192.811 57.4564Z" fill="white"/>
<path d="M211.511 45.0187C209.918 49.5322 205.494 51.8399 200.715 50.8558C200.766 50.6521 200.783 50.4146 200.884 50.2619C201.511 49.3286 202.088 48.3445 202.8 47.4791C204.003 46.0368 205.647 45.4089 207.477 45.2053C208.63 45.0696 209.782 45.0356 210.935 44.9678C211.121 44.9678 211.308 45.0017 211.511 45.0187Z" fill="white"/>
<path d="M200.199 50.5722C197.182 46.5163 197.385 41.7646 200.69 38.2178C200.758 38.2857 200.876 38.3366 200.91 38.4214C201.419 39.7112 201.944 40.9839 202.402 42.2906C203.097 44.2931 202.91 46.2278 201.843 48.0775C201.487 48.6885 201.131 49.2994 200.758 49.8933C200.622 50.1309 200.419 50.3176 200.199 50.5722Z" fill="white"/>
<path d="M205.785 42.2021C202.175 40.9972 199.768 34.1073 201.887 31.1035C201.938 31.1205 202.023 31.1035 202.039 31.1375C203.124 32.3254 204.277 33.4454 205.26 34.7012C206.514 36.3134 206.649 38.231 206.294 40.1826C206.175 40.8614 206.158 41.5912 205.785 42.2021Z" fill="white"/>
<path d="M213.941 33.2607C214.11 37.9445 210.941 41.5762 206.399 42.3399C206.382 42.1532 206.314 41.9665 206.331 41.7968C206.449 40.4731 206.721 39.1664 207.297 37.9615C207.975 36.536 209.127 35.5517 210.517 34.839C211.5 34.3468 212.483 33.8717 213.483 33.3965C213.602 33.3286 213.737 33.3117 213.941 33.2607Z" fill="white"/>
<path d="M201.736 23.1625C201.837 23.1455 201.871 23.1455 201.888 23.1455C203.363 24.0789 204.922 24.9104 206.142 26.1832C206.99 27.0656 207.566 28.1008 207.719 29.3057C207.854 30.29 207.871 31.2743 207.922 32.2586C207.939 32.4113 207.871 32.581 207.837 32.7337C204.091 32.2076 200.77 26.9808 201.736 23.1625Z" fill="white"/>
<path d="M213.677 22.5742C214.05 24.5258 213.999 26.3756 213.236 28.1744C212.304 30.3636 210.558 31.7382 208.474 32.8413C208.372 32.6037 208.253 32.417 208.253 32.2473C208.236 31.1273 208.169 29.9733 208.287 28.8702C208.44 27.4786 209.118 26.2907 210.152 25.3404C211.152 24.424 212.219 23.5924 213.27 22.7439C213.355 22.676 213.474 22.6591 213.677 22.5742Z" fill="white"/>
<path d="M195.86 0.268555C197.555 1.25283 199.334 1.86376 200.673 3.22139C201.809 4.37537 202.232 5.80087 202.47 7.34517C202.554 7.88822 202.758 8.43127 202.554 9.00826C198.334 8.17672 195.521 4.61295 195.86 0.268555Z" fill="white"/>
<path d="M199.496 15.9975C199.666 15.9975 199.784 15.9636 199.869 15.9975C200.886 16.4047 201.92 16.778 202.937 17.2362C204.682 18.0167 205.852 19.3233 206.377 21.1898C206.581 21.9194 206.869 22.6151 206.886 23.3787C205.801 23.5653 203.649 22.7678 202.293 21.6819C200.733 20.4602 199.598 18.2034 199.496 15.9975Z" fill="white"/>
<path d="M210.073 13.1963C211.887 16.8619 210.853 20.9857 207.429 23.3106C207.379 23.2936 207.311 23.2766 207.294 23.2257C206.633 21.5796 206.243 19.8996 206.684 18.1346C206.904 17.2522 207.345 16.4546 207.904 15.7418C208.497 14.9782 209.107 14.2484 209.717 13.5187C209.785 13.3999 209.904 13.3321 210.073 13.1963Z" fill="white"/>
<path d="M196.82 8.39746C198.295 8.87257 199.82 9.09316 201.159 9.8737C202.142 10.4506 202.905 11.2142 203.362 12.2493C203.685 12.9959 203.956 13.7764 204.227 14.54C204.278 14.6927 204.261 14.8624 204.295 15.1339C202.498 15.049 200.922 14.54 199.549 13.4879C197.922 12.2323 197.125 10.4676 196.82 8.39746Z" fill="white"/>
<path d="M206.625 5.00488C208.608 8.24621 207.981 12.387 204.828 14.8816C204.777 14.8646 204.693 14.8646 204.676 14.8307C203.438 12.353 203.133 9.89233 204.862 7.48255C205.421 6.68494 205.998 5.88734 206.625 5.00488Z" fill="white"/>
<path d="M192.237 58.2885C192.016 58.4751 191.898 58.6279 191.745 58.7466C188.881 60.715 185.728 61.9197 182.288 62.3609C181.542 62.4627 180.779 62.4966 180.017 62.5306C179.542 62.5645 179.186 62.3778 179.102 61.8858C179.237 61.3597 179.661 61.3767 180.051 61.3597C181.118 61.2919 182.186 61.2749 183.254 61.1561C186.169 60.8168 188.898 59.8835 191.406 58.3394C191.762 58.1018 191.762 58.1018 192.237 58.2885Z" fill="white"/>
<path d="M146.731 61.6922C147.202 61.6922 147.592 61.5508 147.901 61.2679C148.218 60.9764 148.377 60.5606 148.377 60.0204C148.377 59.7375 148.329 59.4889 148.235 59.2746C148.149 59.0602 148.029 58.8845 147.875 58.7473C147.729 58.6016 147.558 58.4944 147.361 58.4258C147.172 58.3572 146.975 58.3229 146.769 58.3229C146.4 58.3229 146.083 58.4044 145.817 58.5673C145.552 58.7216 145.337 58.9488 145.174 59.2488L143.233 59.0559L143.888 53.7705H150.126V55.4937H145.65L145.432 57.2427C145.655 57.0884 145.937 56.9683 146.28 56.8826C146.623 56.7969 146.958 56.754 147.284 56.754C147.704 56.754 148.111 56.8226 148.505 56.9598C148.9 57.0969 149.247 57.3027 149.547 57.5771C149.855 57.8428 150.1 58.1815 150.28 58.593C150.468 58.9959 150.563 59.4675 150.563 60.0076C150.563 60.5391 150.46 61.0107 150.254 61.4222C150.048 61.8251 149.77 62.1638 149.418 62.4381C149.075 62.7125 148.672 62.9182 148.209 63.0554C147.755 63.1926 147.271 63.2612 146.756 63.2612C146.276 63.2612 145.822 63.1969 145.393 63.0683C144.973 62.9397 144.596 62.7468 144.261 62.4896C143.927 62.2324 143.648 61.9151 143.426 61.5379C143.211 61.1607 143.065 60.7235 142.988 60.2262H145.033C145.127 60.7663 145.329 61.1478 145.637 61.3707C145.955 61.5851 146.319 61.6922 146.731 61.6922Z" fill="#FDC448"/>
<path d="M137.77 63.094V56.8312H135.648V55.2751C136.034 55.2665 136.369 55.2323 136.652 55.1722C136.943 55.1037 137.192 55.0093 137.397 54.8893C137.603 54.7693 137.775 54.6193 137.912 54.4392C138.049 54.2506 138.169 54.0277 138.272 53.7705H139.879V63.094H137.77Z" fill="#FDC448"/>
<path d="M129.3 63.2622C128.64 63.2622 128.061 63.1507 127.564 62.9278C127.067 62.6963 126.651 62.3748 126.317 61.9633C125.982 61.5432 125.729 61.0331 125.558 60.433C125.387 59.8328 125.301 59.1598 125.301 58.414C125.301 57.6681 125.387 56.9994 125.558 56.4078C125.729 55.8162 125.982 55.3147 126.317 54.9032C126.651 54.4917 127.067 54.1745 127.564 53.9515C128.061 53.7286 128.64 53.6172 129.3 53.6172C129.952 53.6172 130.526 53.7286 131.023 53.9515C131.521 54.1745 131.937 54.4917 132.271 54.9032C132.605 55.3147 132.858 55.8162 133.03 56.4078C133.201 56.9994 133.287 57.6681 133.287 58.414C133.287 59.1598 133.201 59.8328 133.03 60.433C132.858 61.0331 132.605 61.5432 132.271 61.9633C131.937 62.3748 131.521 62.6963 131.023 62.9278C130.526 63.1507 129.952 63.2622 129.3 63.2622ZM129.3 61.6932C129.84 61.6932 130.278 61.4318 130.612 60.9088C130.946 60.3772 131.113 59.5456 131.113 58.414C131.113 57.2908 130.946 56.4721 130.612 55.9577C130.278 55.4433 129.84 55.1861 129.3 55.1861C128.752 55.1861 128.31 55.4433 127.976 55.9577C127.641 56.4721 127.474 57.2908 127.474 58.414C127.474 59.5456 127.641 60.3772 127.976 60.9088C128.31 61.4318 128.752 61.6932 129.3 61.6932Z" fill="#FDC448"/>
<path d="M119.294 53.6172C119.783 53.6172 120.233 53.6772 120.644 53.7972C121.056 53.9087 121.412 54.0801 121.712 54.3116C122.012 54.5345 122.243 54.8089 122.406 55.1347C122.578 55.4604 122.663 55.8291 122.663 56.2406C122.663 56.7293 122.561 57.1965 122.355 57.6424C122.158 58.0882 121.866 58.5211 121.48 58.9412C121.103 59.3613 120.64 59.7728 120.091 60.1758C119.543 60.5701 118.926 60.9645 118.24 61.3589H122.702V63.095H115.539V61.3589C116.165 60.9045 116.778 60.463 117.378 60.0343C117.978 59.5971 118.51 59.1727 118.973 58.7612C119.444 58.3411 119.821 57.9338 120.104 57.5395C120.387 57.1451 120.529 56.755 120.529 56.3692C120.529 55.9663 120.4 55.6705 120.143 55.4819C119.886 55.2847 119.581 55.1861 119.23 55.1861C119.041 55.1861 118.853 55.2204 118.664 55.289C118.484 55.349 118.321 55.4519 118.175 55.5976C118.038 55.7434 117.927 55.9448 117.841 56.202C117.755 56.4507 117.721 56.7593 117.738 57.128H115.642C115.625 56.5793 115.702 56.0863 115.873 55.6491C116.053 55.2118 116.306 54.8432 116.632 54.5431C116.958 54.243 117.348 54.0158 117.802 53.8615C118.257 53.6986 118.754 53.6172 119.294 53.6172Z" fill="#FDC448"/>
<path d="M101.582 53.7705H108.732V55.6995H103.781V57.3327H108.462V59.2746H103.781V61.1521H108.732V63.094H101.582V53.7705Z" fill="#FDC448"/>
<path d="M98.8666 59.6228C98.7808 60.1629 98.6094 60.6559 98.3522 61.1017C98.1035 61.5475 97.7863 61.9333 97.4005 62.2591C97.0147 62.5763 96.5689 62.8249 96.0631 63.005C95.5658 63.1764 95.0214 63.2622 94.4299 63.2622C93.7011 63.2622 93.0496 63.1507 92.4752 62.9278C91.9008 62.7049 91.4121 62.3834 91.0091 61.9633C90.6062 61.5432 90.2975 61.0374 90.0832 60.4458C89.8689 59.8457 89.7617 59.1727 89.7617 58.4268C89.7617 57.6895 89.8689 57.0251 90.0832 56.4335C90.3061 55.842 90.6233 55.3361 91.0349 54.916C91.4464 54.496 91.9436 54.1745 92.5266 53.9515C93.1096 53.7286 93.7654 53.6172 94.4942 53.6172C95.0772 53.6172 95.613 53.7072 96.1017 53.8872C96.5989 54.0673 97.0319 54.3202 97.4005 54.646C97.7777 54.9632 98.0864 55.3447 98.3264 55.7905C98.5665 56.2363 98.7251 56.725 98.8023 57.2566H96.6418C96.5818 56.9393 96.4789 56.665 96.3331 56.4335C96.196 56.202 96.0288 56.0134 95.8316 55.8677C95.6344 55.7219 95.4115 55.6148 95.1629 55.5462C94.9228 55.469 94.6742 55.4304 94.417 55.4304C94.0912 55.4304 93.7869 55.499 93.504 55.6362C93.221 55.7648 92.9724 55.9577 92.7581 56.2149C92.5523 56.4721 92.3894 56.7893 92.2694 57.1665C92.1494 57.5352 92.0894 57.9553 92.0894 58.4268C92.0894 58.9155 92.1494 59.3484 92.2694 59.7257C92.3894 60.1029 92.5523 60.4201 92.7581 60.6773C92.9724 60.9345 93.221 61.1274 93.504 61.256C93.7955 61.3846 94.1084 61.4489 94.4427 61.4489C94.6828 61.4489 94.9228 61.4232 95.1629 61.3717C95.4029 61.3117 95.6258 61.2131 95.8316 61.076C96.0374 60.9302 96.2174 60.7416 96.3717 60.5101C96.526 60.2701 96.6375 59.9743 96.7061 59.6228H98.8666Z" fill="#FDC448"/>
<path d="M84.368 63.094L80.6258 56.664V63.094H78.5039V53.7705H81.1788L84.921 60.2005V53.7705H87.0429V63.094H84.368Z" fill="#FDC448"/>
<path d="M75.2069 63.094H73.0078V53.7705H75.2069V63.094Z" fill="#FDC448"/>
<path d="M67.855 56.4721C67.7435 56.1206 67.5249 55.8505 67.1991 55.6619C66.8819 55.4733 66.4876 55.379 66.016 55.379C65.5874 55.379 65.2316 55.4562 64.9487 55.6105C64.6743 55.7648 64.5371 55.9877 64.5371 56.2792C64.5371 56.5107 64.6357 56.7079 64.8329 56.8708C65.0301 57.0336 65.2916 57.1494 65.6174 57.218L66.8905 57.4752C67.2677 57.5523 67.6578 57.6466 68.0608 57.7581C68.4637 57.8695 68.8281 58.0239 69.1539 58.2211C69.4882 58.4182 69.7626 58.6754 69.9769 58.9926C70.1912 59.3099 70.2984 59.7128 70.2984 60.2015C70.2984 60.6902 70.1826 61.1274 69.9512 61.5132C69.7283 61.8904 69.4325 62.2076 69.0638 62.4648C68.7038 62.722 68.288 62.9192 67.8164 63.0564C67.3535 63.1936 66.8776 63.2622 66.389 63.2622C65.1887 63.2622 64.2156 62.9835 63.4698 62.4263C62.7239 61.8604 62.2652 61.0717 62.0938 60.06H64.2799C64.4 60.5487 64.6443 60.9088 65.013 61.1403C65.3902 61.3717 65.866 61.4875 66.4404 61.4875C66.629 61.4875 66.8176 61.4703 67.0062 61.436C67.1949 61.4017 67.3663 61.346 67.5206 61.2689C67.675 61.1917 67.7993 61.0888 67.8936 60.9602C67.9879 60.8316 68.035 60.6687 68.035 60.4715C68.035 60.1715 67.8721 59.94 67.5464 59.7771C67.2292 59.6056 66.8133 59.4642 66.2989 59.3527L65.1673 59.1212C64.79 59.0441 64.4257 58.9369 64.0742 58.7997C63.7227 58.6626 63.414 58.4868 63.1483 58.2725C62.8825 58.0582 62.6682 57.801 62.5053 57.5009C62.3509 57.1923 62.2738 56.8279 62.2738 56.4078C62.2738 55.9363 62.3895 55.5247 62.621 55.1732C62.8525 54.8217 63.1526 54.5302 63.5212 54.2988C63.8899 54.0673 64.3057 53.8958 64.7686 53.7844C65.2316 53.6729 65.6902 53.6172 66.1446 53.6172C66.599 53.6172 67.0405 53.6686 67.4692 53.7715C67.9064 53.8744 68.3008 54.0416 68.6523 54.273C69.0038 54.5045 69.2996 54.8003 69.5397 55.1604C69.7883 55.5205 69.9512 55.9577 70.0283 56.4721H67.855Z" fill="#FDC448"/>
<defs>
<clipPath id="clip0_49590_11436">
<rect width="125.384" height="33.7574" fill="white" transform="translate(44.3398 4.8291)"/>
</clipPath>
</defs>
</svg>
