<svg width="216" height="64" viewBox="0 0 216 64" fill="none" xmlns="http://www.w3.org/2000/svg">
<path d="M22.8294 57.613C20.1854 58.4953 17.7109 58.8007 15.2195 57.8335C13.3212 57.0869 11.0671 55.1186 10.5586 53.7612C10.9145 53.7103 11.2704 53.6254 11.6094 53.5915C13.0331 53.4388 14.4568 53.2182 15.8974 53.1842C17.4058 53.1333 18.7956 53.6254 19.9651 54.6096C20.7786 55.2883 21.5244 56.0688 22.287 56.8324C22.4735 57.0021 22.5921 57.2566 22.8294 57.613Z" fill="white"/>
<path d="M23.25 57.0585C23.1314 57.0415 23.0636 57.0415 23.0297 57.0076C21.3348 55.5312 19.7586 53.9359 19.3688 51.594C19.2162 50.6607 19.2332 49.6764 19.3179 48.7261C19.4366 47.5212 19.7247 46.3333 19.945 45.1453C19.9789 44.9926 20.0806 44.8568 20.1654 44.7041C24.3517 47.64 25.3855 52.5104 23.25 57.0585Z" fill="white"/>
<path d="M4.44531 44.7479C4.53006 44.6801 4.547 44.6631 4.56395 44.6631C6.36051 44.714 8.17401 44.714 9.91972 45.1721C11.4451 45.5624 12.6823 46.4278 13.5976 47.7174C14.0721 48.3791 14.5128 49.0748 14.9535 49.7536C15.0891 49.9741 15.1568 50.2456 15.2585 50.5002C10.6824 51.5013 6.17407 49.3972 4.44531 44.7479Z" fill="white"/>
<path d="M15.7765 50.1278C15.7087 50.0939 15.607 50.0769 15.5562 50.026C14.5393 48.6684 13.641 47.2428 13.2851 45.5458C12.98 44.1373 13.2342 42.7966 13.7088 41.4729C14.0986 40.3868 14.5562 39.3177 14.9799 38.2486C15.0308 38.1298 15.1155 38.011 15.1833 37.9092C16.3867 38.6219 17.7425 41.7275 17.8951 43.3906C18.0815 45.6476 17.0476 49.0078 15.7765 50.1278Z" fill="white"/>
<path d="M14.0992 30.7471C16.0653 34.1411 13.8789 40.4201 10.218 41.8626C10.1502 41.7778 10.0485 41.7099 10.0316 41.6081C9.6926 40.2335 9.42142 38.8589 9.54006 37.4334C9.64175 36.1606 10.0994 35.0066 10.9129 34.0393C11.8451 32.9193 12.8959 31.8841 13.8789 30.815C13.9128 30.781 13.9806 30.781 14.0992 30.7471Z" fill="white"/>
<path d="M2.03158 32.957C3.76034 33.8055 5.60775 34.3147 7.06533 35.5705C8.11614 36.4869 8.81104 37.6239 9.15001 38.9645C9.2856 39.5415 9.43814 40.1185 9.53983 40.6955C9.60762 41.1028 9.60762 41.5101 9.64152 41.9173C8.18394 41.9852 5.45521 40.5937 4.16711 39.1172C2.64173 37.3863 2.01464 35.2989 2.03158 32.957Z" fill="white"/>
<path d="M8.12791 32.4176C8.09401 32.2988 8.02621 32.163 8.02621 32.0273C7.99232 30.8393 8.02621 29.6514 8.33129 28.4974C8.60247 27.4623 9.11093 26.5628 9.83972 25.7992C11.06 24.5094 12.6532 23.7797 14.0599 22.7275C14.5853 23.627 14.2972 26.1046 13.5345 27.8526C12.6532 29.889 10.1956 31.9764 8.12791 32.4176Z" fill="white"/>
<path d="M2.45862 22.1602C3.66198 23.1784 4.84838 24.0778 5.91614 25.113C7.17034 26.3179 7.78049 27.8452 7.76355 29.6101C7.76355 30.238 7.76355 30.849 7.72965 31.4769C7.7127 31.7823 7.62796 32.0708 7.57711 32.3763C3.984 31.6635 0.780709 25.4354 2.45862 22.1602Z" fill="white"/>
<path d="M13.4572 8.65486C13.3894 8.57 13.3555 8.55303 13.3555 8.53606C13.4233 5.65111 14.2029 3.12254 16.9316 1.61218C17.9485 1.05216 18.9655 0.526079 19.9824 0C20.3892 0.848515 19.9315 3.15648 19.0841 4.70077C18.0333 6.63539 15.491 8.43424 13.4572 8.65486Z" fill="white"/>
<path d="M5.96439 12.8311C7.01521 14.1887 8.20161 15.3087 8.9304 16.8021C9.32022 17.5997 9.50666 18.4482 9.48971 19.3307C9.43886 20.6035 9.16768 21.8083 8.67617 22.9963C5.47288 21.5877 3.93055 15.8687 5.96439 12.8311Z" fill="white"/>
<path d="M16.4313 15.6484C16.2788 19.6869 13.1941 22.8769 9.16034 23.0975C9.14339 23.0296 9.07559 22.9448 9.09254 22.8769C9.51626 19.9414 10.7705 17.6168 13.7534 16.5987C14.4653 16.3441 15.1771 16.0387 15.8889 15.7672C16.0584 15.6993 16.2449 15.6993 16.4313 15.6484Z" fill="white"/>
<path d="M19.1997 8.05832C18.6404 11.9101 15.8609 14.6081 11.7593 14.7438C11.7254 14.6929 11.6576 14.642 11.6746 14.6081C11.9796 13.047 12.505 11.5707 13.6406 10.3999C14.2507 9.75515 15.0134 9.31397 15.8439 9.02551C16.8269 8.68615 17.81 8.36375 18.8099 8.05832C18.8947 8.04135 19.0133 8.05832 19.1997 8.05832Z" fill="white"/>
<path d="M9.16934 4.7373C9.35578 4.80519 9.42357 4.80519 9.45747 4.83913C10.2032 5.92523 10.9998 6.99436 11.6608 8.13137C12.3387 9.28535 12.4913 10.5751 12.1692 11.8988C11.9489 12.7982 11.7455 13.6976 11.2879 14.5122C10.3727 14.1898 9.06765 12.4758 8.52529 10.8296C7.8304 8.72533 8.23717 6.7398 9.16934 4.7373Z" fill="white"/>
<path d="M36.8669 61.556C36.7144 62.116 36.3246 62.2347 35.867 62.1838C34.6975 62.0651 33.4941 62.0142 32.3416 61.7936C29.3926 61.2506 26.6808 60.0967 24.2232 58.383C24.0707 58.2811 23.9351 58.1454 23.7656 57.9927C23.8504 57.8739 23.9182 57.7891 24.0368 57.6533C24.3927 57.8569 24.7147 58.0436 25.0537 58.2472C27.4265 59.6216 29.9858 60.47 32.6976 60.7924C33.7653 60.9112 34.8331 60.9452 35.9008 61.013C36.2907 61.047 36.6974 61.013 36.8669 61.556Z" fill="white"/>
<path d="M206.415 54.198C203.653 58.4571 198.788 59.8994 194.246 57.8462C194.297 57.7274 194.314 57.5747 194.382 57.4729C195.28 56.37 196.263 55.3519 197.449 54.5713C198.975 53.5533 200.704 53.3496 202.483 53.5193C203.653 53.6381 204.822 53.8247 206.008 53.9944C206.127 54.0284 206.263 54.1302 206.415 54.198Z" fill="white"/>
<path d="M193.819 57.4564C191.548 53.2139 192.531 47.97 196.836 45.0342C196.903 45.2209 196.988 45.3906 197.022 45.5772C197.225 46.6633 197.429 47.7325 197.615 48.8186C198.005 51.1944 197.632 53.3836 196.005 55.2333C195.531 55.7594 195.073 56.3025 194.598 56.8116C194.361 57.0492 194.073 57.2358 193.819 57.4564Z" fill="white"/>
<path d="M212.519 45.0187C210.926 49.5322 206.502 51.8399 201.723 50.8558C201.774 50.6521 201.79 50.4146 201.892 50.2619C202.519 49.3286 203.095 48.3445 203.807 47.4791C205.011 46.0368 206.655 45.4089 208.485 45.2053C209.638 45.0696 210.79 45.0356 211.943 44.9678C212.129 44.9678 212.316 45.0017 212.519 45.0187Z" fill="white"/>
<path d="M201.206 50.5722C198.189 46.5163 198.393 41.7646 201.698 38.2178C201.766 38.2857 201.884 38.3366 201.918 38.4214C202.427 39.7112 202.952 40.9839 203.41 42.2906C204.105 44.2931 203.918 46.2278 202.85 48.0775C202.494 48.6885 202.138 49.2994 201.766 49.8933C201.63 50.1309 201.427 50.3176 201.206 50.5722Z" fill="white"/>
<path d="M206.793 42.2021C203.183 40.9972 200.776 34.1073 202.895 31.1035C202.946 31.1205 203.03 31.1035 203.047 31.1375C204.132 32.3254 205.284 33.4454 206.268 34.7012C207.522 36.3134 207.657 38.231 207.301 40.1826C207.183 40.8614 207.166 41.5912 206.793 42.2021Z" fill="white"/>
<path d="M214.949 33.2607C215.118 37.9445 211.949 41.5762 207.406 42.3399C207.389 42.1532 207.322 41.9665 207.339 41.7968C207.457 40.4731 207.728 39.1664 208.305 37.9615C208.983 36.536 210.135 35.5517 211.525 34.839C212.508 34.3468 213.491 33.8717 214.491 33.3965C214.61 33.3286 214.745 33.3117 214.949 33.2607Z" fill="white"/>
<path d="M202.743 23.1625C202.845 23.1455 202.879 23.1455 202.896 23.1455C204.371 24.0789 205.93 24.9104 207.15 26.1832C207.998 27.0656 208.574 28.1008 208.726 29.3057C208.862 30.29 208.879 31.2743 208.93 32.2586C208.947 32.4113 208.879 32.581 208.845 32.7337C205.099 32.2076 201.777 26.9808 202.743 23.1625Z" fill="white"/>
<path d="M214.685 22.5742C215.058 24.5258 215.007 26.3756 214.244 28.1744C213.312 30.3636 211.566 31.7382 209.482 32.8413C209.38 32.6037 209.261 32.417 209.261 32.2473C209.244 31.1273 209.176 29.9733 209.295 28.8702C209.448 27.4786 210.126 26.2907 211.159 25.3404C212.159 24.424 213.227 23.5924 214.278 22.7439C214.363 22.676 214.481 22.6591 214.685 22.5742Z" fill="white"/>
<path d="M196.867 0.268555C198.562 1.25283 200.342 1.86376 201.681 3.22139C202.816 4.37537 203.24 5.80087 203.477 7.34517C203.562 7.88822 203.766 8.43127 203.562 9.00826C199.342 8.17672 196.528 4.61295 196.867 0.268555Z" fill="white"/>
<path d="M200.504 15.9975C200.673 15.9975 200.792 15.9636 200.877 15.9975C201.894 16.4047 202.928 16.778 203.944 17.2362C205.69 18.0167 206.86 19.3233 207.385 21.1898C207.588 21.9194 207.877 22.6151 207.894 23.3787C206.809 23.5653 204.656 22.7678 203.3 21.6819C201.741 20.4602 200.606 18.2034 200.504 15.9975Z" fill="white"/>
<path d="M211.081 13.1963C212.895 16.8619 211.861 20.9857 208.437 23.3106C208.386 23.2936 208.319 23.2766 208.302 23.2257C207.641 21.5796 207.251 19.8996 207.691 18.1346C207.912 17.2522 208.352 16.4546 208.912 15.7418C209.505 14.9782 210.115 14.2484 210.725 13.5187C210.793 13.3999 210.912 13.3321 211.081 13.1963Z" fill="white"/>
<path d="M197.828 8.39746C199.303 8.87257 200.828 9.09316 202.167 9.8737C203.15 10.4506 203.913 11.2142 204.37 12.2493C204.692 12.9959 204.963 13.7764 205.235 14.54C205.286 14.6927 205.269 14.8624 205.302 15.1339C203.506 15.049 201.93 14.54 200.557 13.4879C198.93 12.2323 198.133 10.4676 197.828 8.39746Z" fill="white"/>
<path d="M207.633 5.00488C209.616 8.24621 208.989 12.387 205.836 14.8816C205.785 14.8646 205.7 14.8646 205.684 14.8307C204.446 12.353 204.141 9.89233 205.87 7.48255C206.429 6.68494 207.006 5.88734 207.633 5.00488Z" fill="white"/>
<path d="M193.245 58.2885C193.024 58.4751 192.906 58.6279 192.753 58.7466C189.889 60.715 186.736 61.9197 183.296 62.3609C182.55 62.4627 181.787 62.4966 181.025 62.5306C180.55 62.5645 180.194 62.3778 180.109 61.8858C180.245 61.3597 180.669 61.3767 181.058 61.3597C182.126 61.2919 183.194 61.2749 184.262 61.1561C187.177 60.8168 189.906 59.8835 192.414 58.3394C192.77 58.1018 192.77 58.1018 193.245 58.2885Z" fill="white"/>
<path d="M86.4773 19.7034C87.9652 19.7034 89.1713 18.5177 89.1713 17.0553C89.1713 15.5926 87.9652 14.4072 86.4773 14.4072C84.9895 14.4072 83.7834 15.5926 83.7834 17.0553C83.7834 18.5177 84.9895 19.7034 86.4773 19.7034V19.7034ZM175.385 28.7511C174.975 28.4679 174.659 28.421 174.396 28.971C169.872 38.6013 162.247 33.7956 163.004 34.2186C164.696 33.4583 169.144 29.9526 168.471 25.112C168.063 22.1537 165.479 20.8415 162.737 21.3113C157.95 22.1315 156.189 27.2056 157.085 31.6979C157.242 32.4694 157.523 33.1057 157.803 33.729C152.393 38.0521 150.245 29.859 150.001 28.8799C149.991 28.8275 154.178 25.3981 155.342 17.2262C156.563 8.66157 153.782 7.10209 150.94 7.15075C145.679 7.24082 144.257 18.0426 146.167 27.0452C146.007 27.0861 145.262 27.4913 144.066 27.5368C143.206 24.8752 139.528 22.5422 138.565 23.4412C136.156 25.6901 139.149 30.0868 141.256 30.4316C139.99 38.0896 132.078 36.193 133.551 26.5988C136.127 21.8967 138.087 14.905 137.737 10.6842C137.614 9.1898 136.489 7.18768 133.947 7.28698C129.056 7.47712 128.524 18.2819 129.098 25.9506C129.069 25.7617 128.797 26.8823 126.793 27.4394C126.319 24.8537 122.082 22.2582 121.085 23.5061C119.218 25.8415 122.454 30.0057 123.986 30.2962C122.721 37.9538 114.809 36.0572 116.282 26.4631C118.858 21.7612 120.818 14.7695 120.468 10.5487C120.344 9.05406 119.22 7.05194 116.677 7.151C111.787 7.34138 111.255 18.1462 111.828 25.8148C111.8 25.623 111.521 26.7805 109.435 27.3284C109.365 23.9737 105.113 22.4354 104.092 23.5058C102.271 25.4139 104.509 29.3288 106.579 30.2962C105.313 37.9538 97.4011 36.0572 98.8741 26.4631C101.451 21.7612 103.41 14.7695 103.06 10.5487C102.937 9.05406 101.813 7.05194 99.2696 7.151C94.3794 7.34138 93.9859 18.6894 94.5592 26.3578C92.9484 33.1399 87.5465 41.6095 88.2483 24.6431C88.3177 23.4529 88.3933 23.001 87.7895 22.5554C87.3371 22.2091 86.3082 22.3758 85.7458 22.3895C85.0623 22.4164 84.8909 22.8094 84.7399 23.4035C84.388 24.9375 84.3247 26.4247 84.2745 28.4537C84.2414 29.4029 84.164 29.8458 83.792 31.14C83.4206 32.434 81.3012 34.7992 80.1409 34.4037C78.5311 33.8598 79.0592 29.3939 79.3609 26.3256C79.6122 23.9008 78.8074 22.8119 76.7451 22.4159C75.5378 22.1687 74.8043 22.2066 73.5469 21.8171C72.3579 21.4488 72.089 19.2386 69.553 19.9752C68.1659 20.3784 69.0576 23.2665 68.7242 25.4071C67.0853 35.937 63.6751 36.2262 62.093 31.1111C69.2183 13.9616 64.1542 7.20065 61.1898 7.20065C58.1023 7.20065 54.573 9.2906 56.0675 22.6627C55.3409 22.4543 55.1174 22.3421 54.3219 22.3421C49.823 22.3421 46.7578 25.9161 46.7578 30.3251C46.7578 34.7341 49.8232 38.3084 54.3222 38.3084C56.978 38.3084 58.8427 37.1214 60.2549 35.2852C61.1764 36.582 62.2984 38.3283 64.3502 38.2497C70.466 38.0157 72.2446 25.6873 72.4546 24.9997C73.1084 25.0987 73.7269 25.2861 74.3307 25.3852C75.3367 25.5336 75.4098 25.9249 75.387 26.9192C75.1204 35.304 76.6949 38.2398 80.2663 38.2398C82.2562 38.2398 84.0297 36.3185 85.2515 34.9446C86.164 36.7956 87.6181 38.1831 89.5689 38.2395C94.2959 38.355 96.1057 30.9511 95.9407 31.9255C95.8112 32.69 97.4743 38.1978 102.341 38.2178C108.369 38.2428 109.489 31.7284 109.623 30.6372C109.639 30.4202 109.647 30.4426 109.623 30.6372L109.618 30.7034C111.532 30.3535 112.519 29.3452 112.519 29.3452C112.519 29.3452 114.056 38.3191 119.748 38.2181C125.659 38.1128 126.773 32.2242 126.92 31.0759C126.939 30.8034 126.95 30.8354 126.92 31.0759C126.919 31.0871 126.918 31.0983 126.917 31.1096C129.191 30.2969 129.789 29.4812 129.789 29.4812C129.789 29.4812 131.01 38.2767 137.017 38.3535C142.371 38.4224 144.355 33.0351 144.366 30.7802C145.269 30.7897 146.939 30.2537 146.9 30.2233C146.9 30.2233 148.861 37.9134 154.337 38.3084C156.908 38.4938 158.837 36.8866 159.936 36.1536C162.52 38.2098 171.124 40.8362 176.556 31.785C177.323 30.486 175.675 28.9515 175.385 28.7511V28.7511ZM54.1051 35.3227C51.4802 35.3227 49.7971 32.9375 49.7971 30.3658C49.7971 27.7943 51.3421 25.4091 53.967 25.4091C55.1481 25.4091 55.8052 25.5369 56.7251 26.3231C56.892 26.9691 57.3647 28.4592 57.5948 29.1359C57.903 30.0414 58.2697 30.8122 58.6393 31.651C58.1112 33.8026 56.3798 35.3227 54.1051 35.3227V35.3227ZM60.5015 26.3987C60.3923 26.2278 60.4152 26.3328 60.293 26.1714C59.8119 24.8851 58.8846 22.0142 58.7772 18.7533C58.6558 15.0644 59.2815 10.7405 61.1258 10.7405C62.3756 10.7405 63.7038 19.5036 60.5012 26.3987H60.5015ZM97.4603 22.5552C97.1643 20.3661 97.1488 10.6076 99.5327 10.8763C100.849 11.4003 98.6981 20.6087 97.4603 22.5552ZM114.868 22.5552C114.572 20.3661 114.556 10.6076 116.94 10.8763C118.256 11.4003 116.106 20.6087 114.868 22.5552ZM132.137 22.6911C131.841 20.5019 131.826 10.7433 134.209 11.012C135.526 11.536 133.375 20.7447 132.137 22.6911ZM151.203 10.3051C153.382 10.0831 153.292 19.4364 148.917 25.3415C148.353 23.2071 147.488 11.038 151.203 10.3049V10.3051ZM160.363 30.4316C159.663 26.9566 161.472 24.6743 163.337 24.424C163.989 24.3217 164.933 24.7367 165.122 25.5124C165.431 26.9743 165.077 29.1429 160.903 31.8943C160.909 31.9178 160.52 31.2056 160.364 30.4316H160.363Z" fill="white"/>
<path d="M150.098 60.1518C150.098 59.7531 149.916 59.4541 149.552 59.2548C149.188 59.0468 148.694 58.9428 148.07 58.9428H147.446V57.1748H148.005C148.629 57.1748 149.114 57.0708 149.461 56.8628C149.808 56.6548 149.981 56.3471 149.981 55.9398C149.981 55.6104 149.842 55.3548 149.565 55.1728C149.288 54.9821 148.963 54.8868 148.59 54.8868C147.611 54.8868 147.06 55.3244 146.939 56.1998H144.82C144.915 55.2291 145.327 54.5054 146.055 54.0288C146.783 53.5434 147.663 53.3008 148.694 53.3008C149.621 53.3008 150.427 53.5131 151.112 53.9378C151.797 54.3538 152.139 54.9604 152.139 55.7578C152.139 56.2171 152.009 56.6374 151.749 57.0188C151.498 57.4001 151.19 57.6948 150.826 57.9028C151.277 58.0761 151.632 58.3794 151.892 58.8128C152.161 59.2374 152.295 59.6794 152.295 60.1388C152.295 61.0661 151.931 61.7854 151.203 62.2968C150.484 62.7994 149.6 63.0508 148.551 63.0508C147.537 63.0508 146.67 62.7908 145.951 62.2708C145.232 61.7508 144.816 60.9708 144.703 59.9308H146.835C146.904 60.4508 147.099 60.8364 147.42 61.0878C147.749 61.3391 148.139 61.4648 148.59 61.4648C149.067 61.4648 149.435 61.3521 149.695 61.1268C149.964 60.9014 150.098 60.5764 150.098 60.1518Z" fill="#FDC448"/>
<path d="M140.086 62.8815V56.5505H137.941V54.9775C138.713 54.9602 139.293 54.8345 139.683 54.6005C140.082 54.3665 140.385 53.9852 140.593 53.4565H142.218V62.8815H140.086Z" fill="#FDC448"/>
<path d="M127.805 58.1498C127.805 56.6244 128.151 55.4371 128.845 54.5878C129.538 53.7298 130.539 53.3008 131.848 53.3008C133.148 53.3008 134.144 53.7298 134.838 54.5878C135.531 55.4371 135.878 56.6244 135.878 58.1498C135.878 59.6838 135.531 60.8841 134.838 61.7508C134.144 62.6174 133.148 63.0508 131.848 63.0508C130.539 63.0508 129.538 62.6174 128.845 61.7508C128.151 60.8841 127.805 59.6838 127.805 58.1498ZM133.681 58.1498C133.681 57.0578 133.516 56.2431 133.187 55.7058C132.866 55.1598 132.42 54.8868 131.848 54.8868C131.276 54.8868 130.825 55.1598 130.496 55.7058C130.166 56.2431 130.002 57.0578 130.002 58.1498C130.002 59.2591 130.166 60.0911 130.496 60.6458C130.825 61.1918 131.276 61.4648 131.848 61.4648C132.42 61.4648 132.866 61.1918 133.187 60.6458C133.516 60.0911 133.681 59.2591 133.681 58.1498Z" fill="#FDC448"/>
<path d="M125.46 55.9528C125.46 56.8974 125.083 57.7814 124.329 58.6048C123.583 59.4281 122.47 60.2688 120.988 61.1268H125.499V62.8818H118.258V61.1268C119.887 59.9394 120.875 59.2028 121.222 58.9168C122.522 57.8594 123.211 56.9668 123.289 56.2388C123.297 56.1868 123.302 56.1348 123.302 56.0828C123.302 55.6928 123.176 55.3981 122.925 55.1988C122.682 54.9908 122.37 54.8868 121.989 54.8868C121.547 54.8868 121.178 55.0428 120.884 55.3548C120.589 55.6581 120.455 56.1564 120.481 56.8498H118.362C118.327 55.7578 118.652 54.8954 119.337 54.2628C120.03 53.6214 120.936 53.3008 122.054 53.3008C123.059 53.3008 123.878 53.5391 124.511 54.0158C125.143 54.4838 125.46 55.1294 125.46 55.9528Z" fill="#FDC448"/>
<path d="M103.16 53.4565H110.388V55.4065H105.383V57.0575H110.115V59.0205H105.383V60.9185H110.388V62.8815H103.16V53.4565Z" fill="#FDC448"/>
<path d="M100.743 59.3718C100.57 60.4724 100.076 61.3608 99.2611 62.0368C98.4464 62.7128 97.4454 63.0508 96.2581 63.0508C94.7934 63.0508 93.6407 62.6131 92.8001 61.7378C91.9594 60.8624 91.5391 59.6708 91.5391 58.1628C91.5391 56.6721 91.9681 55.4891 92.8261 54.6138C93.6927 53.7384 94.8584 53.3008 96.3231 53.3008C97.4844 53.3008 98.4594 53.6431 99.2481 54.3278C100.037 55.0038 100.513 55.8878 100.678 56.9798H98.4941C98.3727 56.3644 98.1084 55.9051 97.7011 55.6018C97.2937 55.2898 96.8084 55.1338 96.2451 55.1338C95.5604 55.1338 94.9971 55.4068 94.5551 55.9528C94.1131 56.4901 93.8921 57.2268 93.8921 58.1628C93.8921 59.1248 94.1131 59.8744 94.5551 60.4118C94.9971 60.9491 95.5691 61.2178 96.2711 61.2178C96.8257 61.2178 97.3154 61.0748 97.7401 60.7888C98.1647 60.5028 98.4377 60.0304 98.5591 59.3718H100.743Z" fill="#FDC448"/>
<path d="M86.4046 62.8815L82.6216 56.3815V62.8815H80.4766V53.4565H83.1806L86.9636 59.9565V53.4565H89.1086V62.8815H86.4046Z" fill="#FDC448"/>
<path d="M77.4769 62.8815H75.2539V53.4565H77.4769V62.8815Z" fill="#FDC448"/>
<path d="M68.508 55.0818C68.066 55.0818 67.7063 55.1641 67.429 55.3288C67.1516 55.4848 67.013 55.7058 67.013 55.9918C67.013 56.2171 67.1083 56.4164 67.299 56.5898C67.4983 56.7544 67.767 56.8714 68.105 56.9408L69.392 57.2008C69.782 57.2788 70.1026 57.3524 70.354 57.4218C70.6053 57.4824 70.9043 57.5864 71.251 57.7338C71.5976 57.8811 71.8706 58.0458 72.07 58.2278C72.278 58.4011 72.4556 58.6394 72.603 58.9428C72.759 59.2374 72.837 59.5754 72.837 59.9568C72.837 60.8928 72.4383 61.6424 71.641 62.2058C70.8523 62.7691 69.9336 63.0508 68.885 63.0508C67.6803 63.0508 66.6966 62.7648 65.934 62.1928C65.18 61.6208 64.7163 60.8278 64.543 59.8138H66.753C66.9956 60.7758 67.7236 61.2568 68.937 61.2568C69.379 61.2568 69.756 61.1744 70.068 61.0098C70.3886 60.8451 70.549 60.5851 70.549 60.2298C70.549 59.9438 70.3973 59.7141 70.094 59.5408C69.7993 59.3674 69.366 59.2201 68.794 59.0988L67.65 58.8648C65.7 58.4488 64.725 57.5344 64.725 56.1218C64.725 55.5151 64.9243 54.9908 65.323 54.5488C65.7303 54.1068 66.22 53.7904 66.792 53.5998C67.3726 53.4004 67.988 53.3008 68.638 53.3008C69.6433 53.3008 70.51 53.5391 71.238 54.0158C71.966 54.4838 72.408 55.2074 72.564 56.1868H70.367C70.2543 55.8401 70.0333 55.5714 69.704 55.3808C69.3833 55.1814 68.9846 55.0818 68.508 55.0818Z" fill="#FDC448"/>
</svg>
