<svg width="216" height="64" viewBox="0 0 216 64" fill="none" xmlns="http://www.w3.org/2000/svg">
<g clip-path="url(#clip0_49590_11481)">
<path d="M60.9785 28.0412C60.3582 27.4828 59.6138 27.0485 58.7454 26.6142C57.8769 26.1799 56.8844 25.8077 55.7678 25.3734C54.9613 25.0632 54.2169 24.815 53.5966 24.5048C52.9763 24.2567 52.48 23.9465 52.1078 23.6363C51.6736 23.3261 51.4255 22.9538 51.2394 22.5816C51.0533 22.2093 50.9292 21.7751 50.9292 21.2167C50.9292 20.224 51.3634 19.4795 52.2319 19.0453C53.1003 18.611 54.0929 18.3628 55.2715 18.3628C56.6362 18.3628 57.7528 18.4869 58.7454 18.7351C59.6759 18.9832 60.4203 19.2314 60.8545 19.4795V15.571C60.8545 15.571 60.7304 15.5089 60.6064 15.5089C60.1721 15.3849 59.6759 15.2608 59.1176 15.1987C58.5593 15.0747 57.9389 15.0126 57.2566 14.9506C56.5742 14.8885 55.9539 14.8265 55.2715 14.8265C52.6661 14.8265 50.495 15.4469 49.0062 16.6257C47.4553 17.8665 46.7109 19.4795 46.7109 21.5889C46.7109 22.6436 46.897 23.5122 47.2692 24.2567C47.6414 25.0012 48.0757 25.5595 48.696 26.1179C49.3163 26.6142 49.9987 27.0485 50.8051 27.4208C51.6116 27.793 52.48 28.1652 53.4105 28.5375C55.2715 29.282 56.5742 29.9644 57.4427 30.5848C58.3111 31.2052 58.6833 32.0118 58.6833 33.0044C58.6833 33.9971 58.2491 34.6795 57.4427 35.1758C56.6362 35.6101 55.3335 35.8583 53.5966 35.8583C51.8597 35.8583 50.6811 35.7342 49.3784 35.2999C48.3238 34.9277 47.5794 34.6795 47.0831 34.4934V38.402C47.4553 38.526 48.1377 38.7122 48.696 38.8983C49.9987 39.2705 51.4875 39.3946 53.5966 39.3946C56.5742 39.3946 58.8694 38.8363 60.4823 37.7195C62.0951 36.6028 62.9016 34.9897 62.9016 32.7563C62.9016 31.6395 62.7155 30.7089 62.4053 29.9644C62.0331 29.2199 61.5989 28.5995 60.9785 28.0412ZM112.549 35.424C111.99 35.2379 111.556 34.8036 111.184 34.3693C110.812 33.935 110.564 33.3146 110.378 32.5701C110.191 31.8256 110.129 30.833 110.129 29.6542V18.7971H117.139V15.3228H110.129V7.87793L105.911 8.87058V29.7369C105.911 31.288 106.035 32.6529 106.283 33.8937C106.532 35.0724 106.966 36.1271 107.586 36.9337C108.206 37.7402 109.013 38.4226 110.005 38.7949C111.122 39.2912 114.038 39.8496 117.015 39.1671V35.4447C114.658 35.9824 113.107 35.6101 112.549 35.424ZM100.142 14.9506C99.7079 14.8885 99.2736 14.8885 98.9014 14.8885C97.1025 14.8885 95.4276 15.0747 93.9388 15.3849C92.45 15.6951 91.2714 16.0053 90.2168 16.3775V38.919H94.4351V19.19C94.6832 19.128 95.1795 19.0039 95.9239 18.8798C96.6683 18.6937 97.4747 18.6317 98.2191 18.6317C99.3977 18.6317 100.39 18.6937 101.135 18.8798C101.879 19.0659 102.437 19.19 102.748 19.3141V15.4676C102.375 15.4055 101.879 15.2815 101.383 15.2194C101.073 15.0126 100.576 14.9506 100.142 14.9506ZM80.9532 33.4387C79.7746 34.9897 78.1617 35.7342 76.0526 35.7342C73.9435 35.7342 72.3306 34.9897 71.152 33.4387C69.9733 31.8877 69.353 29.7783 69.353 27.1106C69.353 24.5048 69.9733 22.3334 71.152 20.7824C72.3306 19.2314 73.9435 18.4869 76.0526 18.4869C78.1617 18.4869 79.7746 19.2314 80.9532 20.7824C82.1318 22.3334 82.7522 24.3808 82.7522 27.1106C82.7522 29.8403 82.1318 31.8256 80.9532 33.4387ZM83.9928 18.1146C83.0003 17.06 81.8837 16.1914 80.519 15.633C79.1542 15.0747 77.7275 14.7645 76.0526 14.7645C74.4397 14.7645 73.013 15.0747 71.5862 15.633C70.2215 16.1914 69.1049 17.06 68.1124 18.1146C67.1198 19.1693 66.3754 20.4722 65.8792 22.0853C65.3209 23.5742 65.0727 25.2493 65.0727 27.1726C65.0727 29.0959 65.3209 30.7089 65.8792 32.2599C66.4375 33.6869 67.1819 34.9897 68.1744 36.1685C69.1669 37.2232 70.2835 38.0918 71.6482 38.6501C73.013 39.2085 74.4397 39.5187 76.1146 39.5187C77.7275 39.5187 79.1542 39.2085 80.581 38.6501C82.0078 38.0918 83.0623 37.2232 84.0549 36.1685C85.0474 35.1138 85.7918 33.8109 86.2881 32.2599C86.8464 30.771 87.0945 29.0959 87.0945 27.1726C87.0945 25.3734 86.8464 23.6983 86.2881 22.0853C85.7298 20.5342 84.9854 19.2934 83.9928 18.1146Z" fill="white"/>
<path d="M134.405 7.19653C133.723 7.19653 133.165 7.44469 132.668 7.87898C132.172 8.31326 131.986 8.93367 131.986 9.67816C131.986 10.4226 132.234 11.0431 132.668 11.4773C133.165 11.9116 133.723 12.1598 134.405 12.1598C135.088 12.1598 135.646 11.9116 136.142 11.4773C136.638 11.0431 136.825 10.4226 136.825 9.67816C136.825 8.93367 136.576 8.31326 136.142 7.87898C135.708 7.44469 135.088 7.19653 134.405 7.19653ZM166.166 35.4251C165.608 35.2389 165.174 34.8047 164.802 34.3704C164.429 33.9361 164.181 33.3157 163.995 32.5712C163.809 31.8267 163.747 30.834 163.747 29.6553V18.7981H170.757V15.3239H163.747V8.00306L159.529 8.74755V29.738C159.529 31.289 159.653 32.6539 159.901 33.8947C160.149 35.0735 160.583 36.1282 161.204 36.9347C161.824 37.7412 162.63 38.4237 163.623 38.7959C164.739 39.2923 167.655 39.8506 170.633 39.1682V35.4457C168.337 35.9834 166.725 35.6112 166.166 35.4251ZM154.876 28.0422C154.256 27.4838 153.511 27.0496 152.643 26.6153C151.775 26.181 150.782 25.8087 149.665 25.3745C148.859 25.0643 148.115 24.8161 147.494 24.5059C146.874 24.2577 146.378 23.9475 146.005 23.6373C145.571 23.3271 145.323 22.9549 145.137 22.5826C144.951 22.2104 144.827 21.7761 144.827 21.2177C144.827 20.2251 145.261 19.4806 146.13 19.0463C146.998 18.612 147.991 18.3639 149.169 18.3639C150.534 18.3639 151.651 18.4879 152.643 18.7361C153.574 18.9843 154.318 19.2324 154.752 19.4806V15.572C154.752 15.572 154.566 15.51 154.504 15.51C154.07 15.3859 153.574 15.2618 153.015 15.1998C152.457 15.0757 151.837 15.0137 151.154 14.9516C150.472 14.8896 149.852 14.8275 149.169 14.8275C146.564 14.8275 144.393 15.4479 142.904 16.6267C141.353 17.8675 140.609 19.4806 140.609 21.59C140.609 22.6447 140.795 23.5132 141.167 24.2577C141.539 25.0022 141.973 25.5606 142.594 26.119C143.214 26.6153 143.896 27.0496 144.703 27.4218C145.509 27.794 146.378 28.1663 147.308 28.5385C149.169 29.283 150.472 29.9655 151.34 30.5859C152.209 31.2063 152.581 32.0128 152.581 33.0055C152.581 33.9981 152.147 34.6806 151.34 35.1769C150.534 35.6112 149.231 35.8593 147.494 35.8593C145.757 35.8593 144.579 35.7353 143.276 35.301C142.221 34.9287 141.477 34.6806 140.981 34.4944V38.403C141.353 38.5271 142.035 38.7132 142.594 38.8993C143.896 39.2716 145.385 39.3957 147.494 39.3957C150.472 39.3957 152.767 38.8373 154.38 37.7206C155.993 36.6038 156.799 34.9908 156.799 32.7573C156.799 31.6406 156.613 30.71 156.303 29.9655C155.993 29.221 155.497 28.6006 154.876 28.0422ZM132.358 38.8373H136.576V15.3239H132.358V38.8373ZM125.576 34.8667C125.328 34.6185 125.142 34.2463 125.018 33.812C124.894 33.3777 124.832 32.8194 124.832 32.1369V4.59082L120.613 5.52143V32.778C120.613 35.0115 121.172 36.6865 122.226 37.7412C123.281 38.7959 125.39 39.4163 128.367 39.4784V35.88C127.685 35.818 127.127 35.6939 126.693 35.5698C126.196 35.363 125.824 35.1149 125.576 34.8667Z" fill="white"/>
<path d="M22.8874 57.9062C20.2351 58.7913 17.7529 59.0977 15.2536 58.1274C13.3494 57.3785 11.0882 55.404 10.5781 54.0423C10.9352 53.9912 11.2922 53.9061 11.6322 53.8721C13.0604 53.7189 14.4885 53.4976 15.9337 53.4636C17.4468 53.4125 18.841 53.9061 20.0141 54.8934C20.8302 55.5742 21.5783 56.3572 22.3434 57.1232C22.5304 57.2934 22.6494 57.5487 22.8874 57.9062Z" fill="white"/>
<path d="M23.3211 57.3462C23.2021 57.3292 23.1341 57.3292 23.1001 57.2952C21.3999 55.8141 19.8188 54.2139 19.4277 51.8647C19.2747 50.9284 19.2917 49.941 19.3767 48.9877C19.4957 47.779 19.7848 46.5874 20.0058 45.3957C20.0398 45.2425 20.1418 45.1063 20.2268 44.9531C24.4262 47.8982 25.4634 52.7839 23.3211 57.3462Z" fill="white"/>
<path d="M4.46094 45.0031C4.54595 44.935 4.56295 44.918 4.57995 44.918C6.38214 44.969 8.20133 44.969 9.95251 45.4286C11.4827 45.8201 12.7238 46.6882 13.6419 47.9818C14.1179 48.6457 14.56 49.3435 15.002 50.0244C15.1381 50.2457 15.2061 50.518 15.3081 50.7733C10.7176 51.7776 6.19512 49.667 4.46094 45.0031Z" fill="white"/>
<path d="M15.8238 50.4034C15.7558 50.3694 15.6538 50.3523 15.6028 50.3013C14.5827 48.9394 13.6816 47.5094 13.3245 45.8071C13.0185 44.3941 13.2735 43.0493 13.7496 41.7214C14.1406 40.6319 14.5997 39.5594 15.0247 38.487C15.0757 38.3678 15.1607 38.2486 15.2287 38.1465C16.4359 38.8615 17.796 41.9768 17.949 43.6451C18.136 45.9092 17.0989 49.2799 15.8238 50.4034Z" fill="white"/>
<path d="M14.141 30.9619C16.1132 34.3666 13.9199 40.6653 10.2476 42.1123C10.1796 42.0272 10.0775 41.9591 10.0605 41.857C9.72051 40.4781 9.44848 39.0992 9.56749 37.6692C9.6695 36.3924 10.1285 35.2348 10.9446 34.2645C11.8797 33.1409 12.9338 32.1025 13.9199 31.03C13.9539 30.996 14.022 30.996 14.141 30.9619Z" fill="white"/>
<path d="M2.03158 33.1758C3.76577 34.027 5.61896 34.5377 7.08111 35.7974C8.13522 36.7167 8.8323 37.8572 9.17233 39.2021C9.30835 39.7809 9.46136 40.3597 9.56337 40.9385C9.63138 41.3471 9.63138 41.7556 9.66538 42.1642C8.20323 42.2323 5.46594 40.8364 4.17381 39.3553C2.64365 37.6189 2.01458 35.525 2.03158 33.1758Z" fill="white"/>
<path d="M8.1556 32.6267C8.1216 32.5075 8.05359 32.3713 8.05359 32.2351C8.01959 31.0435 8.05359 29.8518 8.35962 28.6942C8.63165 27.6558 9.1417 26.7536 9.87278 25.9875C11.0969 24.6937 12.6951 23.9617 14.1062 22.9062C14.6333 23.8085 14.3442 26.2939 13.5792 28.0474C12.6951 30.0902 10.2298 32.1841 8.1556 32.6267Z" fill="white"/>
<path d="M2.46006 22.3486C3.66719 23.37 4.85731 24.2723 5.92842 25.3107C7.18656 26.5194 7.79862 28.0515 7.78162 29.822C7.78162 30.4518 7.78162 31.0647 7.74761 31.6945C7.73061 32.001 7.6456 32.2904 7.5946 32.5968C3.99022 31.8818 0.776886 25.6342 2.46006 22.3486Z" fill="white"/>
<path d="M13.5004 8.79528C13.4324 8.71016 13.3984 8.69313 13.3984 8.67611C13.4664 5.78211 14.2485 3.24561 16.9858 1.73052C18.0059 1.16874 19.026 0.64101 20.0461 0.113281C20.4542 0.964457 19.9951 3.27966 19.145 4.8288C18.0909 6.76948 15.5407 8.57397 13.5004 8.79528Z" fill="white"/>
<path d="M5.99071 12.9883C7.04482 14.3502 8.23494 15.4737 8.96602 16.9718C9.35706 17.7719 9.54408 18.6231 9.52708 19.5083C9.47607 20.7851 9.20404 21.9937 8.71099 23.1854C5.49765 21.7724 3.95049 16.0355 5.99071 12.9883Z" fill="white"/>
<path d="M16.4699 15.8096C16.3169 19.8607 13.2226 23.0607 9.17618 23.282C9.15918 23.2139 9.09117 23.1288 9.10817 23.0607C9.53322 20.116 10.7914 17.7841 13.7837 16.7628C14.4977 16.5074 15.2118 16.2011 15.9259 15.9287C16.0959 15.8606 16.2829 15.8606 16.4699 15.8096Z" fill="white"/>
<path d="M19.2546 8.19799C18.6935 12.0619 15.9052 14.7683 11.7908 14.9044C11.7568 14.8534 11.6888 14.8023 11.7058 14.7683C12.0118 13.2023 12.5389 11.7214 13.678 10.547C14.2901 9.90014 15.0552 9.45758 15.8882 9.16822C16.8743 8.82779 17.8605 8.50438 18.8636 8.19799C18.9486 8.18097 19.0676 8.19799 19.2546 8.19799Z" fill="white"/>
<path d="M9.19589 4.86328C9.38291 4.93138 9.45092 4.93138 9.48492 4.96542C10.233 6.05493 11.0321 7.12741 11.6952 8.26798C12.3752 9.42558 12.5282 10.7194 12.2052 12.0472C11.9842 12.9494 11.7802 13.8517 11.3211 14.6688C10.403 14.3454 9.09388 12.626 8.54983 10.9747C7.85275 8.86381 8.2608 6.87206 9.19589 4.86328Z" fill="white"/>
<path d="M36.9705 61.8573C36.8175 62.419 36.4264 62.5382 35.9674 62.4871C34.7943 62.368 33.5871 62.3169 32.431 62.0956C29.4727 61.5509 26.7524 60.3935 24.2872 58.6743C24.1342 58.5722 23.9981 58.436 23.8281 58.2828C23.9131 58.1637 23.9811 58.0786 24.1002 57.9424C24.4572 58.1466 24.7802 58.3339 25.1203 58.5381C27.5005 59.9169 30.0678 60.7679 32.7881 61.0914C33.8592 61.2105 34.9303 61.2445 36.0014 61.3126C36.3924 61.3467 36.8005 61.3126 36.9705 61.8573Z" fill="white"/>
<path d="M207.063 54.4845C204.291 58.7569 199.412 60.2037 194.855 58.1441C194.906 58.025 194.923 57.8718 194.991 57.7697C195.893 56.6633 196.879 55.642 198.069 54.859C199.599 53.8377 201.333 53.6334 203.118 53.8037C204.291 53.9228 205.465 54.1101 206.655 54.2803C206.774 54.3143 206.91 54.4164 207.063 54.4845Z" fill="white"/>
<path d="M194.42 57.7522C192.142 53.4964 193.128 48.2361 197.446 45.291C197.514 45.4783 197.599 45.6485 197.633 45.8358C197.837 46.9253 198.041 47.9978 198.229 49.0873C198.62 51.4706 198.246 53.6666 196.613 55.5222C196.137 56.0499 195.678 56.5946 195.202 57.1053C194.964 57.3437 194.675 57.5309 194.42 57.7522Z" fill="white"/>
<path d="M213.19 45.2718C211.591 49.7995 207.154 52.1144 202.359 51.1271C202.41 50.9229 202.427 50.6846 202.529 50.5314C203.158 49.5952 203.737 48.608 204.451 47.7399C205.658 46.2931 207.307 45.6633 209.143 45.459C210.299 45.3228 211.455 45.2888 212.611 45.2207C212.798 45.2207 212.985 45.2547 213.19 45.2718Z" fill="white"/>
<path d="M201.838 50.8375C198.812 46.7688 199.016 42.0023 202.331 38.4443C202.399 38.5124 202.518 38.5635 202.552 38.6486C203.062 39.9424 203.589 41.2192 204.048 42.53C204.745 44.5388 204.558 46.4794 203.487 48.335C203.13 48.9478 202.773 49.5607 202.399 50.1565C202.263 50.3948 202.059 50.5821 201.838 50.8375Z" fill="white"/>
<path d="M207.437 42.4498C203.815 41.2411 201.401 34.3296 203.526 31.3164C203.577 31.3334 203.662 31.3164 203.679 31.3505C204.767 32.5421 205.923 33.6657 206.909 34.9254C208.168 36.5426 208.304 38.4663 207.947 40.424C207.828 41.1049 207.811 41.8369 207.437 42.4498Z" fill="white"/>
<path d="M215.629 33.4785C215.799 38.177 212.619 41.82 208.063 42.5861C208.046 42.3988 207.978 42.2116 207.995 42.0413C208.114 40.7135 208.386 39.4027 208.964 38.194C209.644 36.7641 210.8 35.7767 212.194 35.0617C213.18 34.568 214.167 34.0914 215.17 33.6147C215.289 33.5466 215.425 33.5296 215.629 33.4785Z" fill="white"/>
<path d="M203.381 23.3491C203.483 23.332 203.517 23.332 203.534 23.332C205.013 24.2683 206.577 25.1025 207.801 26.3792C208.651 27.2645 209.229 28.3029 209.382 29.5116C209.518 30.4989 209.535 31.4863 209.586 32.4737C209.603 32.6269 209.535 32.7971 209.501 32.9503C205.744 32.4226 202.412 27.1793 203.381 23.3491Z" fill="white"/>
<path d="M215.354 22.7529C215.728 24.7106 215.677 26.5662 214.912 28.3707C213.977 30.5667 212.226 31.9456 210.135 33.0522C210.033 32.8138 209.914 32.6266 209.914 32.4563C209.897 31.3328 209.829 30.1752 209.948 29.0687C210.101 27.6727 210.781 26.4811 211.818 25.5278C212.821 24.6085 213.892 23.7743 214.946 22.9232C215.031 22.8551 215.15 22.838 215.354 22.7529Z" fill="white"/>
<path d="M197.489 0.380859C199.189 1.36822 200.974 1.98107 202.317 3.34295C203.456 4.50055 203.881 5.93053 204.119 7.47967C204.204 8.02442 204.408 8.56917 204.204 9.14797C199.971 8.31382 197.149 4.73888 197.489 0.380859Z" fill="white"/>
<path d="M201.141 16.1626C201.311 16.1626 201.43 16.1285 201.515 16.1626C202.535 16.5711 203.572 16.9456 204.592 17.4052C206.343 18.1881 207.516 19.4988 208.043 21.3712C208.247 22.1031 208.536 22.801 208.553 23.5669C207.465 23.7542 205.306 22.9541 203.946 21.8648C202.382 20.6392 201.243 18.3754 201.141 16.1626Z" fill="white"/>
<path d="M211.749 13.3525C213.568 17.0296 212.531 21.1663 209.096 23.4986C209.045 23.4815 208.977 23.4645 208.96 23.4134C208.297 21.7622 207.906 20.0768 208.348 18.3064C208.569 17.4212 209.011 16.6211 209.572 15.9061C210.167 15.14 210.78 14.408 211.392 13.676C211.46 13.5568 211.579 13.4887 211.749 13.3525Z" fill="white"/>
<path d="M198.445 8.53711C199.924 9.01371 201.455 9.23499 202.798 10.018C203.784 10.5967 204.549 11.3627 205.008 12.401C205.331 13.1499 205.603 13.9329 205.875 14.6989C205.926 14.8521 205.909 15.0223 205.943 15.2946C204.141 15.2095 202.56 14.6989 201.183 13.6435C199.55 12.384 198.751 10.6137 198.445 8.53711Z" fill="white"/>
<path d="M208.294 5.13086C210.283 8.38235 209.654 12.5361 206.492 15.0385C206.441 15.0215 206.356 15.0215 206.339 14.9875C205.098 12.502 204.792 10.0336 206.526 7.61629C207.087 6.81619 207.665 6.01608 208.294 5.13086Z" fill="white"/>
<path d="M193.852 58.5819C193.631 58.7691 193.512 58.9223 193.359 59.0415C190.486 61.016 187.323 62.2245 183.872 62.667C183.124 62.7692 182.359 62.8032 181.594 62.8372C181.118 62.8713 180.761 62.6841 180.676 62.1904C180.812 61.6628 181.237 61.6798 181.628 61.6628C182.699 61.5947 183.77 61.5777 184.841 61.4585C187.766 61.1181 190.503 60.1819 193.019 58.633C193.376 58.3947 193.376 58.3946 193.852 58.5819Z" fill="white"/>
<path d="M82.7191 62.6166C82.6144 62.6166 82.4947 62.5866 82.4049 62.5117C82.2254 62.3769 82.1506 62.1672 82.1955 61.9575L82.7789 59.3209C82.7939 59.2311 82.7639 59.1562 82.7041 59.0962L80.6697 57.2986C80.5052 57.1488 80.4453 56.9241 80.5201 56.7294C80.5949 56.5196 80.7595 56.3698 80.9838 56.3549L83.6615 56.1002C83.7512 56.0852 83.826 56.0403 83.8559 55.9654L84.933 53.4936C85.0227 53.2989 85.2172 53.1641 85.4266 53.1641C85.651 53.1641 85.8455 53.2839 85.9203 53.4936L86.9973 55.9654C87.0272 56.0403 87.102 56.1002 87.1918 56.1002L89.8694 56.3549C90.0938 56.3698 90.2733 56.5196 90.3331 56.7294C90.4079 56.9391 90.3481 57.1638 90.1835 57.3136L88.1641 59.1112C88.1042 59.1711 88.0743 59.261 88.0893 59.3359L88.6727 61.9724C88.7175 62.1822 88.6428 62.4069 88.4633 62.5267C88.2837 62.6615 88.0594 62.6615 87.8649 62.5567L85.5463 61.1935C85.4715 61.1485 85.3817 61.1485 85.3069 61.1935L82.9883 62.5417C82.8986 62.5866 82.8088 62.6166 82.7191 62.6166Z" fill="#FDC448"/>
<path d="M106.5 62.6166C106.395 62.6166 106.275 62.5866 106.186 62.5117C106.006 62.3769 105.931 62.1672 105.976 61.9575L106.56 59.3209C106.575 59.2311 106.545 59.1562 106.485 59.0962L104.45 57.2986C104.286 57.1488 104.226 56.9241 104.301 56.7294C104.376 56.5196 104.54 56.3698 104.765 56.3549L107.442 56.1002C107.532 56.0852 107.607 56.0403 107.637 55.9654L108.714 53.4936C108.803 53.2989 108.998 53.1641 109.207 53.1641C109.432 53.1641 109.626 53.2839 109.701 53.4936L110.778 55.9654C110.808 56.0403 110.883 56.1002 110.973 56.1002L113.65 56.3549C113.875 56.3698 114.054 56.5196 114.114 56.7294C114.189 56.9391 114.129 57.1638 113.964 57.3136L111.945 59.1112C111.885 59.1711 111.855 59.261 111.87 59.3359L112.453 61.9724C112.498 62.1822 112.424 62.4069 112.244 62.5267C112.064 62.6615 111.84 62.6615 111.646 62.5567L109.327 61.1935C109.252 61.1485 109.162 61.1485 109.088 61.1935L106.769 62.5417C106.679 62.5866 106.59 62.6166 106.5 62.6166Z" fill="#FDC448"/>
<path d="M93.8418 62.6166C93.7371 62.6166 93.6174 62.5866 93.5277 62.5117C93.3482 62.3769 93.2734 62.1672 93.3182 61.9575L93.9016 59.3209C93.9166 59.2311 93.8867 59.1562 93.8268 59.0962L91.7924 57.2986C91.6279 57.1488 91.5681 56.9241 91.6429 56.7294C91.7176 56.5196 91.8822 56.3698 92.1066 56.3549L94.7842 56.1002C94.874 56.0852 94.9488 56.0403 94.9787 55.9654L96.0557 53.4936C96.1455 53.2989 96.3399 53.1641 96.5493 53.1641C96.7737 53.1641 96.9682 53.2839 97.043 53.4936L98.12 55.9654C98.1499 56.0403 98.2247 56.1002 98.3145 56.1002L100.992 56.3549C101.216 56.3698 101.396 56.5196 101.456 56.7294C101.531 56.9391 101.471 57.1638 101.306 57.3136L99.2868 59.1112C99.227 59.1711 99.1971 59.261 99.212 59.3359L99.7954 61.9724C99.8403 62.1822 99.7655 62.4069 99.586 62.5267C99.4065 62.6615 99.1821 62.6615 98.9876 62.5567L96.669 61.1935C96.5942 61.1485 96.5045 61.1485 96.4297 61.1935L94.1111 62.5417C94.0213 62.5866 93.9316 62.6166 93.8418 62.6166Z" fill="#FDC448"/>
<path d="M118.39 62.6166C118.286 62.6166 118.166 62.5866 118.076 62.5117C117.897 62.3769 117.822 62.1672 117.867 61.9575L118.45 59.3209C118.465 59.2311 118.435 59.1562 118.375 59.0962L116.341 57.2986C116.176 57.1488 116.117 56.9241 116.191 56.7294C116.266 56.5196 116.431 56.3698 116.655 56.3549L119.333 56.1002C119.422 56.0852 119.497 56.0403 119.527 55.9654L120.604 53.4936C120.694 53.2989 120.888 53.1641 121.098 53.1641C121.322 53.1641 121.517 53.2839 121.591 53.4936L122.668 55.9654C122.698 56.0403 122.773 56.1002 122.863 56.1002L125.541 56.3549C125.765 56.3698 125.944 56.5196 126.004 56.7294C126.079 56.9391 126.019 57.1638 125.855 57.3136L123.835 59.1112C123.775 59.1711 123.746 59.261 123.76 59.3359L124.344 61.9724C124.389 62.1822 124.314 62.4069 124.134 62.5267C123.955 62.6615 123.731 62.6615 123.536 62.5567L121.217 61.1935C121.143 61.1485 121.053 61.1485 120.978 61.1935L118.66 62.5417C118.57 62.5866 118.48 62.6166 118.39 62.6166Z" fill="#FDC448"/>
<path d="M130.281 62.6166C130.176 62.6166 130.056 62.5866 129.967 62.5117C129.787 62.3769 129.712 62.1672 129.757 61.9575L130.34 59.3209C130.355 59.2311 130.326 59.1562 130.266 59.0962L128.231 57.2986C128.067 57.1488 128.007 56.9241 128.082 56.7294C128.157 56.5196 128.321 56.3698 128.545 56.3549L131.223 56.1002C131.313 56.0852 131.388 56.0403 131.418 55.9654L132.495 53.4936C132.584 53.2989 132.779 53.1641 132.988 53.1641C133.213 53.1641 133.407 53.2839 133.482 53.4936L134.559 55.9654C134.589 56.0403 134.664 56.1002 134.753 56.1002L137.431 56.3549C137.655 56.3698 137.835 56.5196 137.895 56.7294C137.969 56.9391 137.91 57.1638 137.745 57.3136L135.726 59.1112C135.666 59.1711 135.636 59.261 135.651 59.3359L136.234 61.9724C136.279 62.1822 136.204 62.4069 136.025 62.5267C135.845 62.6615 135.621 62.6615 135.426 62.5567L133.108 61.1935C133.033 61.1485 132.943 61.1485 132.869 61.1935L130.55 62.5417C130.46 62.5866 130.37 62.6166 130.281 62.6166Z" fill="#FDC448"/>
</g>
<defs>
<clipPath id="clip0_49590_11481">
<rect width="215" height="64" fill="white" transform="translate(0.953125)"/>
</clipPath>
</defs>
</svg>
