<svg width="216" height="64" viewBox="0 0 216 64" fill="none" xmlns="http://www.w3.org/2000/svg">
<path d="M85.1618 5.8418H79.6562V39.2175H85.1618V5.8418Z" fill="white"/>
<path d="M104.476 28.6121C104.476 33.6293 100.047 34.0968 98.85 34.0968C95.6175 34.0968 94.9001 31.0638 94.9001 29.1936V16.5938H89.3945V29.3115C89.3945 32.4624 90.4707 35.028 92.1473 36.8981C93.7031 38.4147 96.0972 39.2319 98.7331 39.2319C100.648 39.2319 103.163 38.7643 104.36 37.3657V39.2319H109.865V16.5938H104.36V28.6121H104.476Z" fill="white"/>
<path d="M120.736 8.54004H115.231V16.5942H111.16V21.961H115.231V39.2323H120.736V21.961H124.807V16.5942H120.736V8.54004Z" fill="white"/>
<path d="M142.053 32.4575C140.855 33.5065 139.3 34.0919 137.623 34.0919C133.794 34.0919 131.037 31.4085 131.037 27.5582C131.037 23.7079 133.79 21.1384 137.623 21.1384C139.3 21.1384 140.855 21.606 142.053 22.7728L142.891 23.4722L146.482 19.9716L145.644 19.1544C143.37 17.2881 140.614 16.1213 137.623 16.1213C130.8 16.0034 125.77 20.7888 125.77 27.5582C125.77 34.0919 130.916 39.113 137.623 39.113C140.735 39.113 143.608 38.064 145.885 36.0799L146.724 35.2627L142.895 31.5303L142.053 32.4575Z" fill="white"/>
<path d="M166.258 18.5635C164.703 17.0469 162.788 16.2297 160.273 16.2297C158.359 16.2297 156.323 16.6972 154.884 18.0959V5.8418H149.379V39.2175H154.884V26.6137C154.884 21.5965 158.713 21.129 159.914 21.129C163.147 21.129 163.147 24.1621 163.147 26.0322V39.2175H168.653V25.9144C168.773 22.9952 168.056 20.3118 166.258 18.5635Z" fill="white"/>
<path d="M137.372 31.517C139.553 31.517 141.322 29.7931 141.322 27.6667C141.322 25.5402 139.553 23.8164 137.372 23.8164C135.19 23.8164 133.422 25.5402 133.422 27.6667C133.422 29.7931 135.19 31.517 137.372 31.517Z" fill="white"/>
<path d="M72.1208 30.8141C70.0855 32.7982 67.0908 33.9651 64.2212 33.9651C57.9941 33.9651 53.5647 29.2976 53.5647 22.8778C53.5647 16.4581 57.9941 11.7906 64.1003 11.7906C66.974 11.7906 69.7268 12.9574 71.9999 14.9415L72.8383 15.7587L76.4294 12.2581L75.5911 11.4409C72.4796 8.40782 68.4088 6.77734 64.1003 6.77734C54.9995 6.89128 48.2969 13.7786 48.2969 22.9957C48.2969 32.2167 54.9995 39.1001 64.1003 39.1001C68.5297 39.1001 72.7214 37.4657 75.5911 34.4326L76.4294 33.6154L72.8383 29.883L72.1208 30.8141Z" fill="white"/>
<path d="M21.9755 59.0405C19.3119 59.9294 16.8189 60.2372 14.3089 59.2628C12.3965 58.5106 10.1255 56.5276 9.61328 55.16C9.97186 55.1087 10.3304 55.0233 10.6719 54.9891C12.1062 54.8352 13.5405 54.613 14.9919 54.5788C16.5116 54.5275 17.9117 55.0233 19.0899 56.0148C19.9095 56.6986 20.6608 57.4849 21.4291 58.2542C21.617 58.4251 21.7365 58.6815 21.9755 59.0405Z" fill="white"/>
<path d="M22.4126 58.4797C22.2931 58.4626 22.2248 58.4626 22.1906 58.4284C20.4831 56.941 18.8952 55.3339 18.5024 52.9745C18.3488 52.0342 18.3658 51.0426 18.4512 50.0851C18.5707 48.8713 18.861 47.6745 19.083 46.4777C19.1171 46.3238 19.2196 46.1871 19.305 46.0332C23.5225 48.9909 24.564 53.8977 22.4126 58.4797Z" fill="white"/>
<path d="M3.47266 46.0835C3.55803 46.0151 3.57511 45.998 3.59218 45.998C5.40213 46.0493 7.22915 46.0493 8.98787 46.5109C10.5246 46.9041 11.7711 47.7759 12.6931 49.0751C13.1712 49.7418 13.6152 50.4427 14.0591 51.1265C14.1957 51.3487 14.264 51.6222 14.3665 51.8786C9.75624 52.8872 5.2143 50.7675 3.47266 46.0835Z" fill="white"/>
<path d="M14.882 51.5089C14.8137 51.4747 14.7112 51.4576 14.66 51.4063C13.6355 50.0386 12.7306 48.6024 12.372 46.8928C12.0646 45.4737 12.3208 44.1231 12.7989 42.7895C13.1916 41.6953 13.6526 40.6183 14.0795 39.5412C14.1307 39.4215 14.2161 39.3018 14.2844 39.1992C15.4967 39.9173 16.8627 43.046 17.0164 44.7215C17.2042 46.9954 16.1626 50.3805 14.882 51.5089Z" fill="white"/>
<path d="M13.1881 31.9805C15.1688 35.3998 12.9661 41.7256 9.27795 43.1789C9.20965 43.0934 9.1072 43.025 9.09013 42.9224C8.74863 41.5376 8.47543 40.1527 8.59496 38.7166C8.69741 37.4343 9.15843 36.2718 9.97803 35.2972C10.9171 34.1689 11.9758 33.126 12.9661 32.0489C13.0003 32.0147 13.0686 32.0147 13.1881 31.9805Z" fill="white"/>
<path d="M1.03159 34.2031C2.77323 35.058 4.6344 35.5709 6.10285 36.836C7.16149 37.7593 7.86157 38.9047 8.20307 40.2554C8.33967 40.8367 8.49334 41.418 8.59579 41.9993C8.66409 42.4096 8.66409 42.8199 8.69824 43.2302C7.22979 43.2986 4.48073 41.8967 3.18303 40.4093C1.64628 38.6654 1.01451 36.5625 1.03159 34.2031Z" fill="white"/>
<path d="M7.18343 33.6568C7.14928 33.5371 7.08098 33.4003 7.08098 33.2636C7.04683 32.0668 7.08098 30.87 7.38833 29.7074C7.66153 28.6645 8.17378 27.7584 8.908 26.989C10.1374 25.6897 11.7424 24.9545 13.1597 23.8945C13.689 24.8007 13.3987 27.2968 12.6303 29.0578C11.7424 31.1094 9.26657 33.2123 7.18343 33.6568Z" fill="white"/>
<path d="M1.46204 23.3271C2.67436 24.353 3.86961 25.2591 4.94533 26.302C6.20888 27.5159 6.82358 29.0546 6.8065 30.8326C6.8065 31.4652 6.8065 32.0807 6.77235 32.7133C6.75528 33.021 6.6699 33.3117 6.61868 33.6194C2.99879 32.9013 -0.228378 26.6268 1.46204 23.3271Z" fill="white"/>
<path d="M12.5478 9.71936C12.4795 9.63388 12.4453 9.61678 12.4453 9.59968C12.5136 6.69323 13.2991 4.14581 16.0481 2.62419C17.0726 2.06 18.0971 1.53 19.1216 1C19.5314 1.85484 19.0704 4.18 18.2166 5.73581C17.158 7.68484 14.5968 9.4971 12.5478 9.71936Z" fill="white"/>
<path d="M5.00639 13.9277C6.06503 15.2955 7.26028 16.4239 7.9945 17.9284C8.38723 18.7319 8.57505 19.5868 8.55798 20.4758C8.50675 21.7581 8.23355 22.9719 7.73838 24.1687C4.51121 22.7497 2.95739 16.9881 5.00639 13.9277Z" fill="white"/>
<path d="M15.529 16.7666C15.3753 20.8351 12.2677 24.0489 8.20383 24.2712C8.18676 24.2028 8.11846 24.1173 8.13553 24.0489C8.5624 21.0916 9.82595 18.7496 12.8311 17.7239C13.5483 17.4675 14.2654 17.1598 14.9826 16.8863C15.1533 16.8179 15.3412 16.8179 15.529 16.7666Z" fill="white"/>
<path d="M18.334 9.11978C17.7705 13.0003 14.9702 15.7183 10.8381 15.8551C10.8039 15.8038 10.7356 15.7525 10.7527 15.7183C11.06 14.1456 11.5894 12.6584 12.7334 11.4788C13.3481 10.8293 14.1165 10.3848 14.9531 10.0942C15.9435 9.75228 16.9338 9.42748 17.9413 9.11978C18.0266 9.10269 18.1462 9.11978 18.334 9.11978Z" fill="white"/>
<path d="M8.22753 5.76758C8.41535 5.83597 8.48365 5.83597 8.5178 5.87016C9.2691 6.96435 10.0716 8.04145 10.7375 9.18693C11.4205 10.3495 11.5742 11.6489 11.2498 12.9824C11.0278 13.8885 10.8229 14.7947 10.3619 15.6153C9.43985 15.2905 8.12508 13.5637 7.57868 11.9053C6.87861 9.78532 7.28841 7.785 8.22753 5.76758Z" fill="white"/>
<path d="M36.1208 63.0119C35.9671 63.576 35.5744 63.6956 35.1134 63.6444C33.9352 63.5247 32.7229 63.4734 31.5618 63.2512C28.5908 62.7042 25.8588 61.5417 23.3829 59.8151C23.2292 59.7126 23.0926 59.5758 22.9219 59.422C23.0072 59.3023 23.0756 59.2168 23.1951 59.0801C23.5536 59.2852 23.8781 59.4733 24.2196 59.6784C26.6101 61.0631 29.1884 61.9178 31.9204 62.2426C32.9961 62.3623 34.0718 62.3964 35.1475 62.4648C35.5403 62.499 35.9501 62.4648 36.1208 63.0119Z" fill="white"/>
<path d="M206.936 55.599C204.152 59.8898 199.252 61.3428 194.676 59.2744C194.727 59.1547 194.744 59.0009 194.812 58.8983C195.717 57.7871 196.708 56.7615 197.903 55.9751C199.44 54.9494 201.181 54.7443 202.974 54.9152C204.152 55.0349 205.331 55.2229 206.526 55.3939C206.645 55.4281 206.782 55.5306 206.936 55.599Z" fill="white"/>
<path d="M194.242 58.8781C191.954 54.6039 192.944 49.321 197.281 46.3633C197.349 46.5513 197.435 46.7223 197.469 46.9104C197.674 48.0046 197.879 49.0817 198.066 50.1759C198.459 52.5694 198.084 54.7749 196.444 56.6385C195.966 57.1685 195.505 57.7156 195.027 58.2285C194.788 58.4678 194.498 58.6559 194.242 58.8781Z" fill="white"/>
<path d="M213.088 46.3482C211.483 50.8954 207.026 53.2202 202.211 52.2287C202.262 52.0236 202.279 51.7843 202.382 51.6304C203.013 50.6902 203.594 49.6987 204.311 48.8269C205.523 47.3738 207.18 46.7413 209.024 46.5362C210.185 46.3994 211.346 46.3653 212.507 46.2969C212.695 46.2969 212.883 46.3311 213.088 46.3482Z" fill="white"/>
<path d="M201.683 51.9406C198.644 47.8545 198.849 43.0674 202.178 39.4941C202.247 39.5625 202.366 39.6138 202.4 39.6993C202.913 40.9987 203.442 42.2809 203.903 43.5974C204.603 45.6148 204.415 47.5638 203.339 49.4274C202.981 50.0429 202.622 50.6583 202.247 51.2567C202.11 51.4961 201.905 51.6841 201.683 51.9406Z" fill="white"/>
<path d="M207.312 43.5172C203.675 42.3034 201.251 35.3621 203.385 32.3359C203.436 32.353 203.522 32.3359 203.539 32.3701C204.631 33.5669 205.793 34.6953 206.783 35.9605C208.046 37.5846 208.183 39.5166 207.825 41.4827C207.705 42.1666 207.688 42.9018 207.312 43.5172Z" fill="white"/>
<path d="M215.537 34.502C215.707 39.2207 212.514 42.8794 207.938 43.6487C207.921 43.4607 207.853 43.2726 207.87 43.1016C207.989 41.7681 208.263 40.4516 208.843 39.2378C209.526 37.8016 210.687 36.81 212.087 36.092C213.078 35.5961 214.068 35.1174 215.076 34.6387C215.195 34.5703 215.332 34.5532 215.537 34.502Z" fill="white"/>
<path d="M203.237 24.3296C203.339 24.3125 203.373 24.3125 203.391 24.3125C204.876 25.2528 206.447 26.0906 207.676 27.3728C208.53 28.2619 209.111 29.3048 209.264 30.5186C209.401 31.5102 209.418 32.5019 209.469 33.4935C209.486 33.6473 209.418 33.8183 209.384 33.9722C205.61 33.4422 202.264 28.1764 203.237 24.3296Z" fill="white"/>
<path d="M215.261 23.7316C215.636 25.6977 215.585 27.5612 214.817 29.3735C213.878 31.579 212.119 32.9638 210.019 34.0751C209.916 33.8358 209.797 33.6477 209.797 33.4767C209.78 32.3483 209.711 31.1858 209.831 30.0745C209.984 28.6725 210.667 27.4758 211.709 26.5183C212.716 25.5951 213.792 24.7574 214.851 23.9025C214.936 23.8341 215.056 23.8171 215.261 23.7316Z" fill="white"/>
<path d="M197.321 1.26367C199.028 2.25529 200.821 2.87077 202.17 4.23851C203.314 5.40109 203.741 6.83722 203.98 8.39303C204.065 8.94013 204.27 9.48723 204.065 10.0685C199.814 9.23077 196.979 5.64045 197.321 1.26367Z" fill="white"/>
<path d="M200.98 17.1109C201.151 17.1109 201.271 17.0767 201.356 17.1109C202.381 17.5212 203.422 17.8973 204.447 18.3588C206.205 19.1452 207.384 20.4615 207.913 22.3419C208.118 23.077 208.408 23.7778 208.425 24.5471C207.332 24.7351 205.164 23.9317 203.798 22.8376C202.227 21.6068 201.083 19.3332 200.98 17.1109Z" fill="white"/>
<path d="M211.639 14.293C213.466 17.9859 212.425 22.1404 208.975 24.4827C208.924 24.4656 208.856 24.4485 208.839 24.3972C208.173 22.7388 207.78 21.0462 208.224 19.2681C208.446 18.3791 208.89 17.5756 209.453 16.8575C210.051 16.0881 210.666 15.353 211.281 14.6178C211.349 14.4981 211.468 14.4297 211.639 14.293Z" fill="white"/>
<path d="M198.281 9.45508C199.767 9.93373 201.304 10.156 202.652 10.9423C203.643 11.5235 204.411 12.2928 204.872 13.3356C205.197 14.0877 205.47 14.8741 205.743 15.6434C205.794 15.7972 205.777 15.9682 205.811 16.2417C204.001 16.1562 202.413 15.6434 201.03 14.5835C199.391 13.3185 198.589 11.5406 198.281 9.45508Z" fill="white"/>
<path d="M208.17 6.03125C210.168 9.29674 209.536 13.4684 206.36 15.9816C206.309 15.9645 206.224 15.9645 206.207 15.9303C204.96 13.4342 204.653 10.9551 206.395 8.52738C206.958 7.72383 207.539 6.92028 208.17 6.03125Z" fill="white"/>
<path d="M193.667 59.7153C193.445 59.9033 193.325 60.0572 193.172 60.1768C190.286 62.1598 187.11 63.3735 183.644 63.818C182.892 63.9206 182.124 63.9548 181.356 63.989C180.878 64.0231 180.519 63.8351 180.434 63.3394C180.57 62.8094 180.997 62.8265 181.39 62.8094C182.466 62.741 183.541 62.7239 184.617 62.6043C187.554 62.2624 190.303 61.3222 192.83 59.7666C193.189 59.5272 193.189 59.5272 193.667 59.7153Z" fill="white"/>
<path d="M82.0685 63.7764C81.9633 63.7764 81.8432 63.7463 81.753 63.6711C81.5727 63.5357 81.4976 63.3251 81.5427 63.1144L82.1286 60.4666C82.1436 60.3763 82.1136 60.3011 82.0535 60.2409L80.0103 58.4355C79.8451 58.2851 79.785 58.0594 79.8601 57.8638C79.9352 57.6532 80.1005 57.5028 80.3258 57.4877L83.015 57.232C83.1051 57.2169 83.1802 57.1718 83.2103 57.0966L84.2919 54.6142C84.3821 54.4186 84.5774 54.2832 84.7877 54.2832C85.0131 54.2832 85.2084 54.4036 85.2835 54.6142L86.3651 57.0966C86.3952 57.1718 86.4703 57.232 86.5604 57.232L89.2496 57.4877C89.4749 57.5028 89.6552 57.6532 89.7153 57.8638C89.7904 58.0745 89.7303 58.3001 89.5651 58.4506L87.537 60.2559C87.4769 60.3161 87.4468 60.4064 87.4618 60.4816L88.0477 63.1295C88.0928 63.3401 88.0177 63.5658 87.8374 63.6861C87.6571 63.8215 87.4318 63.8215 87.2365 63.7162L84.9079 62.3472C84.8328 62.302 84.7426 62.302 84.6675 62.3472L82.3389 63.7012C82.2488 63.7463 82.1586 63.7764 82.0685 63.7764Z" fill="#FDC448"/>
<path d="M105.952 63.7764C105.846 63.7764 105.726 63.7463 105.636 63.6711C105.456 63.5357 105.381 63.3251 105.426 63.1144L106.012 60.4666C106.027 60.3763 105.997 60.3011 105.937 60.2409L103.893 58.4355C103.728 58.2851 103.668 58.0594 103.743 57.8638C103.818 57.6532 103.984 57.5028 104.209 57.4877L106.898 57.232C106.988 57.2169 107.063 57.1718 107.093 57.0966L108.175 54.6142C108.265 54.4186 108.46 54.2832 108.671 54.2832C108.896 54.2832 109.091 54.4036 109.167 54.6142L110.248 57.0966C110.278 57.1718 110.353 57.232 110.444 57.232L113.133 57.4877C113.358 57.5028 113.538 57.6532 113.598 57.8638C113.674 58.0745 113.613 58.3001 113.448 58.4506L111.42 60.2559C111.36 60.3161 111.33 60.4064 111.345 60.4816L111.931 63.1295C111.976 63.3401 111.901 63.5658 111.721 63.6861C111.54 63.8215 111.315 63.8215 111.12 63.7162L108.791 62.3472C108.716 62.302 108.626 62.302 108.551 62.3472L106.222 63.7012C106.132 63.7463 106.042 63.7764 105.952 63.7764Z" fill="#FDC448"/>
<path d="M93.2391 63.7764C93.134 63.7764 93.0138 63.7463 92.9236 63.6711C92.7434 63.5357 92.6682 63.3251 92.7133 63.1144L93.2992 60.4666C93.3142 60.3763 93.2842 60.3011 93.2241 60.2409L91.1809 58.4355C91.0157 58.2851 90.9556 58.0594 91.0307 57.8638C91.1058 57.6532 91.2711 57.5028 91.4964 57.4877L94.1856 57.232C94.2757 57.2169 94.3508 57.1718 94.3809 57.0966L95.4625 54.6142C95.5527 54.4186 95.748 54.2832 95.9583 54.2832C96.1837 54.2832 96.379 54.4036 96.4541 54.6142L97.5358 57.0966C97.5658 57.1718 97.6409 57.232 97.7311 57.232L100.42 57.4877C100.646 57.5028 100.826 57.6532 100.886 57.8638C100.961 58.0745 100.901 58.3001 100.736 58.4506L98.7076 60.2559C98.6475 60.3161 98.6174 60.4064 98.6324 60.4816L99.2183 63.1295C99.2634 63.3401 99.1883 63.5658 99.008 63.6861C98.8277 63.8215 98.6024 63.8215 98.4071 63.7162L96.0785 62.3472C96.0034 62.302 95.9132 62.302 95.8381 62.3472L93.5095 63.7012C93.4194 63.7463 93.3293 63.7764 93.2391 63.7764Z" fill="#FDC448"/>
<path d="M117.893 63.7764C117.788 63.7764 117.668 63.7463 117.578 63.6711C117.397 63.5357 117.322 63.3251 117.367 63.1144L117.953 60.4666C117.968 60.3763 117.938 60.3011 117.878 60.2409L115.835 58.4355C115.67 58.2851 115.61 58.0594 115.685 57.8638C115.76 57.6532 115.925 57.5028 116.151 57.4877L118.84 57.232C118.93 57.2169 119.005 57.1718 119.035 57.0966L120.117 54.6142C120.207 54.4186 120.402 54.2832 120.612 54.2832C120.838 54.2832 121.033 54.4036 121.108 54.6142L122.19 57.0966C122.22 57.1718 122.295 57.232 122.385 57.232L125.074 57.4877C125.3 57.5028 125.48 57.6532 125.54 57.8638C125.615 58.0745 125.555 58.3001 125.39 58.4506L123.362 60.2559C123.302 60.3161 123.272 60.4064 123.287 60.4816L123.872 63.1295C123.918 63.3401 123.842 63.5658 123.662 63.6861C123.482 63.8215 123.257 63.8215 123.061 63.7162L120.733 62.3472C120.658 62.302 120.567 62.302 120.492 62.3472L118.164 63.7012C118.074 63.7463 117.983 63.7764 117.893 63.7764Z" fill="#FDC448"/>
<path d="M129.835 63.7764C129.73 63.7764 129.609 63.7463 129.519 63.6711C129.339 63.5357 129.264 63.3251 129.309 63.1144L129.895 60.4666C129.91 60.3763 129.88 60.3011 129.82 60.2409L127.777 58.4355C127.611 58.2851 127.551 58.0594 127.626 57.8638C127.702 57.6532 127.867 57.5028 128.092 57.4877L130.781 57.232C130.871 57.2169 130.947 57.1718 130.977 57.0966L132.058 54.6142C132.148 54.4186 132.344 54.2832 132.554 54.2832C132.779 54.2832 132.975 54.4036 133.05 54.6142L134.131 57.0966C134.161 57.1718 134.237 57.232 134.327 57.232L137.016 57.4877C137.241 57.5028 137.422 57.6532 137.482 57.8638C137.557 58.0745 137.497 58.3001 137.331 58.4506L135.303 60.2559C135.243 60.3161 135.213 60.4064 135.228 60.4816L135.814 63.1295C135.859 63.3401 135.784 63.5658 135.604 63.6861C135.423 63.8215 135.198 63.8215 135.003 63.7162L132.674 62.3472C132.599 62.302 132.509 62.302 132.434 62.3472L130.105 63.7012C130.015 63.7463 129.925 63.7764 129.835 63.7764Z" fill="#FDC448"/>
</svg>
