<svg width="1312" height="216" viewBox="0 0 1312 216" fill="none" xmlns="http://www.w3.org/2000/svg">
<line opacity="0.3" x1="0.5" y1="-2.18557e-08" x2="0.500009" y2="216" stroke="white"/>
<line opacity="0.3" x1="219.5" y1="-2.18557e-08" x2="219.5" y2="216" stroke="white"/>
<path opacity="0.3" d="M438 0L438 214" stroke="white"/>
<path opacity="0.3" d="M657 2L657 216" stroke="white"/>
<path opacity="0.3" d="M876 2L876 216" stroke="white"/>
<path opacity="0.3" d="M1095 2L1095 216" stroke="white"/>
<line opacity="0.3" x1="1311.5" y1="-2.18557e-08" x2="1311.5" y2="216" stroke="white"/>
<path fill-rule="evenodd" clip-rule="evenodd" d="M20 56C8.95431 56 0 64.9543 0 76C0 87.0457 8.95431 96 20 96H199C210.046 96 219 87.0457 219 76C219 87.0457 227.954 96 239 96H418C429.046 96 438 87.0457 438 76C438 64.9543 429.046 56 418 56H239C227.954 56 219 64.9543 219 76C219 64.9543 210.046 56 199 56H20ZM458 120C446.954 120 438 128.954 438 140C438 151.046 446.954 160 458 160H637C648.046 160 657 151.046 657 140C657 151.046 665.954 160 677 160H856C867.046 160 876 151.046 876 140C876 151.046 884.954 160 896 160H1075C1086.05 160 1095 151.046 1095 140C1095 128.954 1086.05 120 1075 120H896C884.954 120 876 128.954 876 140C876 128.954 867.046 120 856 120H677C665.954 120 657 128.954 657 140C657 128.954 648.046 120 637 120H458ZM1095 76C1095 64.9543 1103.95 56 1115 56H1292C1303.05 56 1312 64.9543 1312 76C1312 87.0457 1303.05 96 1292 96H1115C1103.95 96 1095 87.0457 1095 76Z" fill="url(#paint0_linear_32256_83263)"/>
<path d="M58.261 4.85C59.1103 4.85 59.8617 4.934 60.515 5.102C61.1683 5.26067 61.761 5.52667 62.293 5.9C62.825 6.264 63.231 6.78667 63.511 7.468C63.791 8.14 63.931 8.95667 63.931 9.918C63.931 10.8793 63.791 11.7007 63.511 12.382C63.231 13.054 62.825 13.5767 62.293 13.95C61.761 14.3233 61.1683 14.594 60.515 14.762C59.8617 14.9207 59.1103 15 58.261 15H55.489V4.85H58.261ZM58.177 6.278H57.267V13.572H58.177C58.737 13.572 59.2177 13.53 59.619 13.446C60.0297 13.362 60.4357 13.2033 60.837 12.97C61.2383 12.7273 61.5463 12.3493 61.761 11.836C61.9757 11.3227 62.083 10.6833 62.083 9.918C62.083 9.15267 61.9757 8.518 61.761 8.014C61.5463 7.50067 61.2383 7.12733 60.837 6.894C60.4357 6.65133 60.0297 6.488 59.619 6.404C59.2177 6.32 58.737 6.278 58.177 6.278ZM66.2515 4.85H73.4335V6.334H68.0295V9.05H73.1395V10.52H68.0295V13.502H73.4335V15H66.2515V4.85ZM75.5648 4.85H82.6488V6.334H77.3428V9.05H82.3408V10.52H77.3428V15H75.5648V4.85ZM86.1639 15H84.3859V4.85H86.1639V15ZM94.934 15L90.636 6.894V15H88.914V4.85H91.294L95.592 12.956V4.85H97.314V15H94.934ZM101.837 15H100.059V4.85H101.837V15ZM106.827 6.334H103.635V4.85H111.797V6.334H108.605V15H106.827V6.334ZM115.364 15H113.586V4.85H115.364V15ZM126.08 13.74C125.203 14.7013 124.027 15.182 122.552 15.182C121.078 15.182 119.902 14.7013 119.024 13.74C118.147 12.7693 117.708 11.4953 117.708 9.918C117.708 8.34067 118.147 7.07133 119.024 6.11C119.902 5.14867 121.078 4.668 122.552 4.668C124.027 4.668 125.203 5.14867 126.08 6.11C126.958 7.07133 127.396 8.34067 127.396 9.918C127.396 11.4953 126.958 12.7693 126.08 13.74ZM120.382 12.718C120.952 13.39 121.675 13.726 122.552 13.726C123.43 13.726 124.148 13.39 124.708 12.718C125.278 12.046 125.562 11.1127 125.562 9.918C125.562 8.72333 125.278 7.79467 124.708 7.132C124.148 6.46 123.43 6.124 122.552 6.124C121.675 6.124 120.952 6.46 120.382 7.132C119.822 7.79467 119.542 8.72333 119.542 9.918C119.542 11.1127 119.822 12.046 120.382 12.718ZM135.758 15L131.46 6.894V15H129.738V4.85H132.118L136.416 12.956V4.85H138.138V15H135.758ZM152.776 13.74C151.899 14.7013 150.723 15.182 149.248 15.182C147.773 15.182 146.597 14.7013 145.72 13.74C144.843 12.7693 144.404 11.4953 144.404 9.918C144.404 8.34067 144.843 7.07133 145.72 6.11C146.597 5.14867 147.773 4.668 149.248 4.668C150.723 4.668 151.899 5.14867 152.776 6.11C153.653 7.07133 154.092 8.34067 154.092 9.918C154.092 11.4953 153.653 12.7693 152.776 13.74ZM147.078 12.718C147.647 13.39 148.371 13.726 149.248 13.726C150.125 13.726 150.844 13.39 151.404 12.718C151.973 12.046 152.258 11.1127 152.258 9.918C152.258 8.72333 151.973 7.79467 151.404 7.132C150.844 6.46 150.125 6.124 149.248 6.124C148.371 6.124 147.647 6.46 147.078 7.132C146.518 7.79467 146.238 8.72333 146.238 9.918C146.238 11.1127 146.518 12.046 147.078 12.718ZM156.434 4.85H163.518V6.334H158.212V9.05H163.21V10.52H158.212V15H156.434V4.85ZM72.086 33.74C71.2087 34.7013 70.0327 35.182 68.558 35.182C67.0834 35.182 65.9074 34.7013 65.03 33.74C64.1527 32.7693 63.714 31.4953 63.714 29.918C63.714 28.3407 64.1527 27.0713 65.03 26.11C65.9074 25.1487 67.0834 24.668 68.558 24.668C70.0327 24.668 71.2087 25.1487 72.086 26.11C72.9634 27.0713 73.402 28.3407 73.402 29.918C73.402 31.4953 72.9634 32.7693 72.086 33.74ZM66.388 32.718C66.9574 33.39 67.6807 33.726 68.558 33.726C69.4354 33.726 70.154 33.39 70.714 32.718C71.2834 32.046 71.568 31.1127 71.568 29.918C71.568 28.7233 71.2834 27.7947 70.714 27.132C70.154 26.46 69.4354 26.124 68.558 26.124C67.6807 26.124 66.9574 26.46 66.388 27.132C65.828 27.7947 65.548 28.7233 65.548 29.918C65.548 31.1127 65.828 32.046 66.388 32.718ZM75.7439 24.85H79.5659C82.0019 24.85 83.2199 25.7133 83.2199 27.44C83.2199 27.8973 83.1079 28.3267 82.8839 28.728C82.6692 29.1293 82.4032 29.4233 82.0859 29.61C83.1032 30.0673 83.6119 30.8607 83.6119 31.99C83.6119 33.0167 83.2619 33.7773 82.5619 34.272C81.8619 34.7573 80.9472 35 79.8179 35H75.7439V24.85ZM77.5219 29.092H79.7339C80.8539 29.092 81.4139 28.6067 81.4139 27.636C81.4139 27.1973 81.2599 26.8613 80.9519 26.628C80.6532 26.3947 80.2472 26.278 79.7339 26.278H77.5219V29.092ZM77.5219 33.572H79.8879C81.1479 33.572 81.7779 33.0447 81.7779 31.99C81.7779 30.9633 81.1152 30.45 79.7899 30.45H77.5219V33.572ZM84.9138 31.57H86.6778C86.6778 32.27 86.8271 32.8067 87.1258 33.18C87.4244 33.544 87.8491 33.726 88.3998 33.726C88.9411 33.726 89.3564 33.544 89.6458 33.18C89.9444 32.8067 90.0938 32.27 90.0938 31.57V24.85H91.8718V31.57C91.8718 32.6807 91.5684 33.5627 90.9618 34.216C90.3551 34.86 89.5011 35.182 88.3998 35.182C87.2891 35.182 86.4304 34.86 85.8238 34.216C85.2171 33.572 84.9138 32.69 84.9138 31.57ZM94.6165 24.85H101.799V26.334H96.3945V29.05H101.505V30.52H96.3945V33.502H101.799V35H94.6165V24.85ZM112.623 31.626C112.418 32.7553 111.928 33.6327 111.153 34.258C110.388 34.874 109.417 35.182 108.241 35.182C106.776 35.182 105.628 34.7013 104.797 33.74C103.966 32.7787 103.551 31.4953 103.551 29.89C103.551 28.294 103.98 27.0247 104.839 26.082C105.698 25.1393 106.86 24.668 108.325 24.668C109.464 24.668 110.406 24.9807 111.153 25.606C111.909 26.222 112.39 27.0947 112.595 28.224H110.887C110.738 27.552 110.43 27.034 109.963 26.67C109.506 26.306 108.941 26.124 108.269 26.124C107.429 26.124 106.738 26.4553 106.197 27.118C105.656 27.7807 105.385 28.7047 105.385 29.89C105.385 31.0847 105.651 32.0227 106.183 32.704C106.724 33.3853 107.415 33.726 108.255 33.726C108.955 33.726 109.534 33.5487 109.991 33.194C110.458 32.83 110.766 32.3073 110.915 31.626H112.623ZM116.632 26.334H113.44V24.85H121.602V26.334H118.41V35H116.632V26.334ZM125.168 35H123.39V24.85H125.168V35ZM128.842 24.85L131.418 32.9L133.924 24.85H135.8L132.328 35H130.424L126.91 24.85H128.842ZM137.533 24.85H144.715V26.334H139.311V29.05H144.421V30.52H139.311V33.502H144.715V35H137.533V24.85ZM149.394 30.394C148.516 30.2167 147.807 29.8947 147.266 29.428C146.734 28.9613 146.468 28.3267 146.468 27.524C146.468 26.628 146.85 25.928 147.616 25.424C148.39 24.92 149.286 24.668 150.304 24.668C151.349 24.668 152.222 24.92 152.922 25.424C153.631 25.9187 154.084 26.6747 154.28 27.692H152.558C152.306 26.6467 151.522 26.124 150.206 26.124C149.73 26.124 149.286 26.236 148.876 26.46C148.465 26.684 148.26 27.02 148.26 27.468C148.26 28.168 148.764 28.616 149.772 28.812L151.018 29.05C151.522 29.1527 151.956 29.2693 152.32 29.4C152.693 29.5213 153.052 29.6987 153.398 29.932C153.752 30.156 154.023 30.45 154.21 30.814C154.396 31.178 154.49 31.6027 154.49 32.088C154.49 33.0493 154.088 33.8053 153.286 34.356C152.483 34.9067 151.54 35.182 150.458 35.182C149.244 35.182 148.255 34.8693 147.49 34.244C146.724 33.6093 146.29 32.7413 146.188 31.64H147.938C148.246 33.0307 149.114 33.726 150.542 33.726C151.167 33.726 151.685 33.5907 152.096 33.32C152.506 33.0493 152.712 32.676 152.712 32.2C152.712 31.416 152.016 30.8933 150.626 30.632L149.394 30.394Z" fill="white"/>
<path d="M1157.91 13.502H1163.02V15H1156.13V4.85H1157.91V13.502ZM1167.64 4.85H1169.52L1173.33 15H1171.38L1170.58 12.746H1166.47L1165.68 15H1163.86L1167.64 4.85ZM1166.99 11.262H1170.05L1168.51 6.908L1166.99 11.262ZM1176.36 4.85V10.842C1176.36 11.8313 1176.52 12.5593 1176.86 13.026C1177.21 13.4927 1177.83 13.726 1178.74 13.726C1179.62 13.726 1180.24 13.4833 1180.58 12.998C1180.93 12.5127 1181.1 11.7753 1181.1 10.786V4.85H1182.88V10.716C1182.88 12.312 1182.56 13.4553 1181.91 14.146C1181.28 14.8367 1180.22 15.182 1178.74 15.182C1177.25 15.182 1176.19 14.8507 1175.54 14.188C1174.9 13.5253 1174.58 12.3867 1174.58 10.772V4.85H1176.36ZM1191.49 15L1187.19 6.894V15H1185.47V4.85H1187.85L1192.15 12.956V4.85H1193.87V15H1191.49ZM1205.28 11.626C1205.07 12.7553 1204.58 13.6327 1203.81 14.258C1203.04 14.874 1202.07 15.182 1200.9 15.182C1199.43 15.182 1198.28 14.7013 1197.45 13.74C1196.62 12.7787 1196.21 11.4953 1196.21 9.89C1196.21 8.294 1196.64 7.02467 1197.49 6.082C1198.35 5.13933 1199.52 4.668 1200.98 4.668C1202.12 4.668 1203.06 4.98067 1203.81 5.606C1204.56 6.222 1205.05 7.09467 1205.25 8.224H1203.54C1203.39 7.552 1203.09 7.034 1202.62 6.67C1202.16 6.306 1201.6 6.124 1200.92 6.124C1200.08 6.124 1199.39 6.45533 1198.85 7.118C1198.31 7.78067 1198.04 8.70467 1198.04 9.89C1198.04 11.0847 1198.31 12.0227 1198.84 12.704C1199.38 13.3853 1200.07 13.726 1200.91 13.726C1201.61 13.726 1202.19 13.5487 1202.65 13.194C1203.11 12.83 1203.42 12.3073 1203.57 11.626H1205.28ZM1215.87 4.85V15H1214.09V10.52H1209.25V15H1207.47V4.85H1209.25V9.05H1214.09V4.85H1215.87ZM1225.3 4.85H1227.18L1230.98 15H1229.04L1228.24 12.746H1224.12L1223.34 15H1221.52L1225.3 4.85ZM1224.64 11.262H1227.71L1226.17 6.908L1224.64 11.262ZM1238.72 15L1234.43 6.894V15H1232.7V4.85H1235.08L1239.38 12.956V4.85H1241.1V15H1238.72ZM1246.62 4.85C1247.47 4.85 1248.22 4.934 1248.87 5.102C1249.53 5.26067 1250.12 5.52667 1250.65 5.9C1251.18 6.264 1251.59 6.78667 1251.87 7.468C1252.15 8.14 1252.29 8.95667 1252.29 9.918C1252.29 10.8793 1252.15 11.7007 1251.87 12.382C1251.59 13.054 1251.18 13.5767 1250.65 13.95C1250.12 14.3233 1249.53 14.594 1248.87 14.762C1248.22 14.9207 1247.47 15 1246.62 15H1243.85V4.85H1246.62ZM1246.54 6.278H1245.63V13.572H1246.54C1247.1 13.572 1247.58 13.53 1247.98 13.446C1248.39 13.362 1248.8 13.2033 1249.2 12.97C1249.6 12.7273 1249.91 12.3493 1250.12 11.836C1250.34 11.3227 1250.44 10.6833 1250.44 9.918C1250.44 9.15267 1250.34 8.518 1250.12 8.014C1249.91 7.50067 1249.6 7.12733 1249.2 6.894C1248.8 6.65133 1248.39 6.488 1247.98 6.404C1247.58 6.32 1247.1 6.278 1246.54 6.278ZM1162.25 24.85H1169.43V26.334H1164.03V29.05H1169.14V30.52H1164.03V33.502H1169.43V35H1162.25V24.85ZM1174.14 29.806L1170.64 24.85H1172.77L1175.21 28.308L1177.7 24.85H1179.71L1176.21 29.722L1179.95 35H1177.82L1175.14 31.206L1172.41 35H1170.4L1174.14 29.806ZM1184.89 24.85C1185.4 24.85 1185.84 24.8687 1186.21 24.906C1186.58 24.9433 1186.97 25.0273 1187.36 25.158C1187.76 25.2887 1188.09 25.466 1188.34 25.69C1188.59 25.914 1188.8 26.2267 1188.95 26.628C1189.12 27.02 1189.21 27.4913 1189.21 28.042C1189.21 28.658 1189.1 29.1807 1188.88 29.61C1188.67 30.03 1188.36 30.352 1187.95 30.576C1187.54 30.7907 1187.09 30.9447 1186.6 31.038C1186.13 31.122 1185.57 31.164 1184.92 31.164H1183.33V35H1181.55V24.85H1184.89ZM1183.33 26.278V29.708H1184.98C1185.76 29.708 1186.36 29.6007 1186.76 29.386C1187.16 29.162 1187.36 28.7187 1187.36 28.056C1187.36 27.664 1187.29 27.342 1187.16 27.09C1187.03 26.838 1186.84 26.656 1186.57 26.544C1186.31 26.432 1186.06 26.362 1185.82 26.334C1185.58 26.2967 1185.27 26.278 1184.89 26.278H1183.33ZM1192.87 24.85H1194.74L1198.55 35H1196.61L1195.81 32.746H1191.69L1190.91 35H1189.09L1192.87 24.85ZM1192.21 31.262H1195.28L1193.74 26.908L1192.21 31.262ZM1206.29 35L1201.99 26.894V35H1200.27V24.85H1202.65L1206.95 32.956V24.85H1208.67V35H1206.29ZM1213.96 30.394C1213.09 30.2167 1212.38 29.8947 1211.84 29.428C1211.3 28.9613 1211.04 28.3267 1211.04 27.524C1211.04 26.628 1211.42 25.928 1212.19 25.424C1212.96 24.92 1213.86 24.668 1214.87 24.668C1215.92 24.668 1216.79 24.92 1217.49 25.424C1218.2 25.9187 1218.65 26.6747 1218.85 27.692H1217.13C1216.88 26.6467 1216.09 26.124 1214.78 26.124C1214.3 26.124 1213.86 26.236 1213.45 26.46C1213.04 26.684 1212.83 27.02 1212.83 27.468C1212.83 28.168 1213.33 28.616 1214.34 28.812L1215.59 29.05C1216.09 29.1527 1216.53 29.2693 1216.89 29.4C1217.26 29.5213 1217.62 29.6987 1217.97 29.932C1218.32 30.156 1218.59 30.45 1218.78 30.814C1218.97 31.178 1219.06 31.6027 1219.06 32.088C1219.06 33.0493 1218.66 33.8053 1217.86 34.356C1217.05 34.9067 1216.11 35.182 1215.03 35.182C1213.82 35.182 1212.83 34.8693 1212.06 34.244C1211.3 33.6093 1210.86 32.7413 1210.76 31.64H1212.51C1212.82 33.0307 1213.68 33.726 1215.11 33.726C1215.74 33.726 1216.26 33.5907 1216.67 33.32C1217.08 33.0493 1217.28 32.676 1217.28 32.2C1217.28 31.416 1216.59 30.8933 1215.2 30.632L1213.96 30.394ZM1222.97 35H1221.19V24.85H1222.97V35ZM1233.69 33.74C1232.81 34.7013 1231.64 35.182 1230.16 35.182C1228.69 35.182 1227.51 34.7013 1226.63 33.74C1225.76 32.7693 1225.32 31.4953 1225.32 29.918C1225.32 28.3407 1225.76 27.0713 1226.63 26.11C1227.51 25.1487 1228.69 24.668 1230.16 24.668C1231.64 24.668 1232.81 25.1487 1233.69 26.11C1234.57 27.0713 1235 28.3407 1235 29.918C1235 31.4953 1234.57 32.7693 1233.69 33.74ZM1227.99 32.718C1228.56 33.39 1229.28 33.726 1230.16 33.726C1231.04 33.726 1231.76 33.39 1232.32 32.718C1232.89 32.046 1233.17 31.1127 1233.17 29.918C1233.17 28.7233 1232.89 27.7947 1232.32 27.132C1231.76 26.46 1231.04 26.124 1230.16 26.124C1229.28 26.124 1228.56 26.46 1227.99 27.132C1227.43 27.7947 1227.15 28.7233 1227.15 29.918C1227.15 31.1127 1227.43 32.046 1227.99 32.718ZM1243.37 35L1239.07 26.894V35H1237.35V24.85H1239.73L1244.02 32.956V24.85H1245.75V35H1243.37Z" fill="white"/>
<path d="M279.835 4.85H281.711L285.519 15H283.573L282.775 12.746H278.659L277.875 15H276.055L279.835 4.85ZM279.177 11.262H282.243L280.703 6.908L279.177 11.262ZM293.258 15L288.96 6.894V15H287.238V4.85H289.618L293.916 12.956V4.85H295.638V15H293.258ZM301.142 4.85H303.018L306.826 15H304.88L304.082 12.746H299.966L299.182 15H297.362L301.142 4.85ZM300.484 11.262H303.55L302.01 6.908L300.484 11.262ZM310.322 13.502H315.432V15H308.544V4.85H310.322V13.502ZM316.253 4.85L318.773 9.386L321.363 4.85H323.365L319.627 11.08V15H317.849V11.052L314.223 4.85H316.253ZM327.135 10.394C326.258 10.2167 325.548 9.89467 325.007 9.428C324.475 8.96133 324.209 8.32667 324.209 7.524C324.209 6.628 324.592 5.928 325.357 5.424C326.132 4.92 327.028 4.668 328.045 4.668C329.09 4.668 329.963 4.92 330.663 5.424C331.372 5.91867 331.825 6.67467 332.021 7.692H330.299C330.047 6.64667 329.263 6.124 327.947 6.124C327.471 6.124 327.028 6.236 326.617 6.46C326.206 6.684 326.001 7.02 326.001 7.468C326.001 8.168 326.505 8.616 327.513 8.812L328.759 9.05C329.263 9.15267 329.697 9.26933 330.061 9.4C330.434 9.52133 330.794 9.69867 331.139 9.932C331.494 10.156 331.764 10.45 331.951 10.814C332.138 11.178 332.231 11.6027 332.231 12.088C332.231 13.0493 331.83 13.8053 331.027 14.356C330.224 14.9067 329.282 15.182 328.199 15.182C326.986 15.182 325.996 14.8693 325.231 14.244C324.466 13.6093 324.032 12.7413 323.929 11.64H325.679C325.987 13.0307 326.855 13.726 328.283 13.726C328.908 13.726 329.426 13.5907 329.837 13.32C330.248 13.0493 330.453 12.676 330.453 12.2C330.453 11.416 329.758 10.8933 328.367 10.632L327.135 10.394ZM336.143 15H334.365V4.85H336.143V15ZM341.441 10.394C340.564 10.2167 339.855 9.89467 339.313 9.428C338.781 8.96133 338.515 8.32667 338.515 7.524C338.515 6.628 338.898 5.928 339.663 5.424C340.438 4.92 341.334 4.668 342.351 4.668C343.397 4.668 344.269 4.92 344.969 5.424C345.679 5.91867 346.131 6.67467 346.327 7.692H344.605C344.353 6.64667 343.569 6.124 342.253 6.124C341.777 6.124 341.334 6.236 340.923 6.46C340.513 6.684 340.307 7.02 340.307 7.468C340.307 8.168 340.811 8.616 341.819 8.812L343.065 9.05C343.569 9.15267 344.003 9.26933 344.367 9.4C344.741 9.52133 345.1 9.69867 345.445 9.932C345.8 10.156 346.071 10.45 346.257 10.814C346.444 11.178 346.537 11.6027 346.537 12.088C346.537 13.0493 346.136 13.8053 345.333 14.356C344.531 14.9067 343.588 15.182 342.505 15.182C341.292 15.182 340.303 14.8693 339.537 14.244C338.772 13.6093 338.338 12.7413 338.235 11.64H339.985C340.293 13.0307 341.161 13.726 342.589 13.726C343.215 13.726 343.733 13.5907 344.143 13.32C344.554 13.0493 344.759 12.676 344.759 12.2C344.759 11.416 344.064 10.8933 342.673 10.632L341.441 10.394ZM355.356 4.85H357.232L361.04 15H359.094L358.296 12.746H354.18L353.396 15H351.576L355.356 4.85ZM354.698 11.262H357.764L356.224 6.908L354.698 11.262ZM368.779 15L364.481 6.894V15H362.759V4.85H365.139L369.437 12.956V4.85H371.159V15H368.779ZM376.676 4.85C377.526 4.85 378.277 4.934 378.93 5.102C379.584 5.26067 380.176 5.52667 380.708 5.9C381.24 6.264 381.646 6.78667 381.926 7.468C382.206 8.14 382.346 8.95667 382.346 9.918C382.346 10.8793 382.206 11.7007 381.926 12.382C381.646 13.054 381.24 13.5767 380.708 13.95C380.176 14.3233 379.584 14.594 378.93 14.762C378.277 14.9207 377.526 15 376.676 15H373.904V4.85H376.676ZM376.592 6.278H375.682V13.572H376.592C377.152 13.572 377.633 13.53 378.034 13.446C378.445 13.362 378.851 13.2033 379.252 12.97C379.654 12.7273 379.962 12.3493 380.176 11.836C380.391 11.3227 380.498 10.6833 380.498 9.918C380.498 9.15267 380.391 8.518 380.176 8.014C379.962 7.50067 379.654 7.12733 379.252 6.894C378.851 6.65133 378.445 6.488 378.034 6.404C377.633 6.32 377.152 6.278 376.592 6.278ZM278.87 24.85H286.052V26.334H280.648V29.05H285.758V30.52H280.648V33.502H286.052V35H278.87V24.85ZM290.759 29.806L287.259 24.85H289.387L291.823 28.308L294.315 24.85H296.331L292.831 29.722L296.569 35H294.441L291.753 31.206L289.023 35H287.021L290.759 29.806ZM301.512 24.85C302.016 24.85 302.455 24.8687 302.828 24.906C303.201 24.9433 303.584 25.0273 303.976 25.158C304.377 25.2887 304.704 25.466 304.956 25.69C305.208 25.914 305.413 26.2267 305.572 26.628C305.74 27.02 305.824 27.4913 305.824 28.042C305.824 28.658 305.717 29.1807 305.502 29.61C305.287 30.03 304.975 30.352 304.564 30.576C304.153 30.7907 303.705 30.9447 303.22 31.038C302.744 31.122 302.184 31.164 301.54 31.164H299.944V35H298.166V24.85H301.512ZM299.944 26.278V29.708H301.596C302.38 29.708 302.973 29.6007 303.374 29.386C303.775 29.162 303.976 28.7187 303.976 28.056C303.976 27.664 303.911 27.342 303.78 27.09C303.649 26.838 303.453 26.656 303.192 26.544C302.931 26.432 302.679 26.362 302.436 26.334C302.193 26.2967 301.885 26.278 301.512 26.278H299.944ZM309.476 33.502H314.586V35H307.698V24.85H309.476V33.502ZM323.542 33.74C322.665 34.7013 321.489 35.182 320.014 35.182C318.539 35.182 317.363 34.7013 316.486 33.74C315.609 32.7693 315.17 31.4953 315.17 29.918C315.17 28.3407 315.609 27.0713 316.486 26.11C317.363 25.1487 318.539 24.668 320.014 24.668C321.489 24.668 322.665 25.1487 323.542 26.11C324.419 27.0713 324.858 28.3407 324.858 29.918C324.858 31.4953 324.419 32.7693 323.542 33.74ZM317.844 32.718C318.413 33.39 319.137 33.726 320.014 33.726C320.891 33.726 321.61 33.39 322.17 32.718C322.739 32.046 323.024 31.1127 323.024 29.918C323.024 28.7233 322.739 27.7947 322.17 27.132C321.61 26.46 320.891 26.124 320.014 26.124C319.137 26.124 318.413 26.46 317.844 27.132C317.284 27.7947 317.004 28.7233 317.004 29.918C317.004 31.1127 317.284 32.046 317.844 32.718ZM331.232 30.716C331.12 30.7253 330.942 30.73 330.7 30.73H328.978V35H327.2V24.85H330.434C332.002 24.85 333.145 25.0647 333.864 25.494C334.592 25.9233 334.956 26.684 334.956 27.776C334.956 29.0827 334.321 29.9553 333.052 30.394L335.376 35H333.374L331.232 30.716ZM328.978 26.278V29.316H330.742C331.554 29.316 332.156 29.2087 332.548 28.994C332.94 28.77 333.136 28.3687 333.136 27.79C333.136 27.1833 332.93 26.782 332.52 26.586C332.109 26.3807 331.498 26.278 330.686 26.278H328.978ZM340.16 24.85H342.036L345.844 35H343.898L343.1 32.746H338.984L338.2 35H336.38L340.16 24.85ZM339.502 31.262H342.568L341.028 26.908L339.502 31.262ZM348.818 26.334H345.626V24.85H353.788V26.334H350.596V35H348.818V26.334ZM357.355 35H355.577V24.85H357.355V35ZM368.071 33.74C367.194 34.7013 366.018 35.182 364.543 35.182C363.069 35.182 361.893 34.7013 361.015 33.74C360.138 32.7693 359.699 31.4953 359.699 29.918C359.699 28.3407 360.138 27.0713 361.015 26.11C361.893 25.1487 363.069 24.668 364.543 24.668C366.018 24.668 367.194 25.1487 368.071 26.11C368.949 27.0713 369.387 28.3407 369.387 29.918C369.387 31.4953 368.949 32.7693 368.071 33.74ZM362.373 32.718C362.943 33.39 363.666 33.726 364.543 33.726C365.421 33.726 366.139 33.39 366.699 32.718C367.269 32.046 367.553 31.1127 367.553 29.918C367.553 28.7233 367.269 27.7947 366.699 27.132C366.139 26.46 365.421 26.124 364.543 26.124C363.666 26.124 362.943 26.46 362.373 27.132C361.813 27.7947 361.533 28.7233 361.533 29.918C361.533 31.1127 361.813 32.046 362.373 32.718ZM377.749 35L373.451 26.894V35H371.729V24.85H374.109L378.407 32.956V24.85H380.129V35H377.749Z" fill="white"/>
<path d="M960.935 186.716C960.823 186.725 960.646 186.73 960.403 186.73H958.681V191H956.903V180.85H960.137C961.705 180.85 962.848 181.065 963.567 181.494C964.295 181.923 964.659 182.684 964.659 183.776C964.659 185.083 964.024 185.955 962.755 186.394L965.079 191H963.077L960.935 186.716ZM958.681 182.278V185.316H960.445C961.257 185.316 961.859 185.209 962.251 184.994C962.643 184.77 962.839 184.369 962.839 183.79C962.839 183.183 962.634 182.782 962.223 182.586C961.812 182.381 961.201 182.278 960.389 182.278H958.681ZM974.797 189.74C973.92 190.701 972.744 191.182 971.269 191.182C969.795 191.182 968.619 190.701 967.741 189.74C966.864 188.769 966.425 187.495 966.425 185.918C966.425 184.341 966.864 183.071 967.741 182.11C968.619 181.149 969.795 180.668 971.269 180.668C972.744 180.668 973.92 181.149 974.797 182.11C975.675 183.071 976.113 184.341 976.113 185.918C976.113 187.495 975.675 188.769 974.797 189.74ZM969.099 188.718C969.669 189.39 970.392 189.726 971.269 189.726C972.147 189.726 972.865 189.39 973.425 188.718C973.995 188.046 974.279 187.113 974.279 185.918C974.279 184.723 973.995 183.795 973.425 183.132C972.865 182.46 972.147 182.124 971.269 182.124C970.392 182.124 969.669 182.46 969.099 183.132C968.539 183.795 968.259 184.723 968.259 185.918C968.259 187.113 968.539 188.046 969.099 188.718ZM978.455 180.85H982.277C984.713 180.85 985.931 181.713 985.931 183.44C985.931 183.897 985.819 184.327 985.595 184.728C985.381 185.129 985.115 185.423 984.797 185.61C985.815 186.067 986.323 186.861 986.323 187.99C986.323 189.017 985.973 189.777 985.273 190.272C984.573 190.757 983.659 191 982.529 191H978.455V180.85ZM980.233 185.092H982.445C983.565 185.092 984.125 184.607 984.125 183.636C984.125 183.197 983.971 182.861 983.663 182.628C983.365 182.395 982.959 182.278 982.445 182.278H980.233V185.092ZM980.233 189.572H982.599C983.859 189.572 984.489 189.045 984.489 187.99C984.489 186.963 983.827 186.45 982.501 186.45H980.233V189.572ZM990.117 180.85V186.842C990.117 187.831 990.285 188.559 990.621 189.026C990.966 189.493 991.592 189.726 992.497 189.726C993.384 189.726 994 189.483 994.345 188.998C994.69 188.513 994.863 187.775 994.863 186.786V180.85H996.641V186.716C996.641 188.312 996.319 189.455 995.675 190.146C995.04 190.837 993.981 191.182 992.497 191.182C991.013 191.182 989.949 190.851 989.305 190.188C988.661 189.525 988.339 188.387 988.339 186.772V180.85H990.117ZM1001.78 186.394C1000.9 186.217 1000.19 185.895 999.648 185.428C999.116 184.961 998.85 184.327 998.85 183.524C998.85 182.628 999.233 181.928 999.998 181.424C1000.77 180.92 1001.67 180.668 1002.69 180.668C1003.73 180.668 1004.6 180.92 1005.3 181.424C1006.01 181.919 1006.47 182.675 1006.66 183.692H1004.94C1004.69 182.647 1003.9 182.124 1002.59 182.124C1002.11 182.124 1001.67 182.236 1001.26 182.46C1000.85 182.684 1000.64 183.02 1000.64 183.468C1000.64 184.168 1001.15 184.616 1002.15 184.812L1003.4 185.05C1003.9 185.153 1004.34 185.269 1004.7 185.4C1005.08 185.521 1005.43 185.699 1005.78 185.932C1006.13 186.156 1006.41 186.45 1006.59 186.814C1006.78 187.178 1006.87 187.603 1006.87 188.088C1006.87 189.049 1006.47 189.805 1005.67 190.356C1004.87 190.907 1003.92 191.182 1002.84 191.182C1001.63 191.182 1000.64 190.869 999.872 190.244C999.107 189.609 998.673 188.741 998.57 187.64H1000.32C1000.63 189.031 1001.5 189.726 1002.92 189.726C1003.55 189.726 1004.07 189.591 1004.48 189.32C1004.89 189.049 1005.09 188.676 1005.09 188.2C1005.09 187.416 1004.4 186.893 1003.01 186.632L1001.78 186.394ZM1011.08 182.334H1007.89V180.85H1016.05V182.334H1012.86V191H1011.08V182.334ZM934.813 200.85C935.662 200.85 936.413 200.934 937.067 201.102C937.72 201.261 938.313 201.527 938.845 201.9C939.377 202.264 939.783 202.787 940.063 203.468C940.343 204.14 940.483 204.957 940.483 205.918C940.483 206.879 940.343 207.701 940.063 208.382C939.783 209.054 939.377 209.577 938.845 209.95C938.313 210.323 937.72 210.594 937.067 210.762C936.413 210.921 935.662 211 934.813 211H932.041V200.85H934.813ZM934.729 202.278H933.819V209.572H934.729C935.289 209.572 935.769 209.53 936.171 209.446C936.581 209.362 936.987 209.203 937.389 208.97C937.79 208.727 938.098 208.349 938.313 207.836C938.527 207.323 938.635 206.683 938.635 205.918C938.635 205.153 938.527 204.518 938.313 204.014C938.098 203.501 937.79 203.127 937.389 202.894C936.987 202.651 936.581 202.488 936.171 202.404C935.769 202.32 935.289 202.278 934.729 202.278ZM942.803 200.85H949.985V202.334H944.581V205.05H949.691V206.52H944.581V209.502H949.985V211H942.803V200.85ZM953.04 200.85L955.616 208.9L958.122 200.85H959.998L956.526 211H954.622L951.108 200.85H953.04ZM961.73 200.85H968.912V202.334H963.508V205.05H968.618V206.52H963.508V209.502H968.912V211H961.73V200.85ZM972.822 209.502H977.932V211H971.044V200.85H972.822V209.502ZM986.887 209.74C986.01 210.701 984.834 211.182 983.359 211.182C981.885 211.182 980.709 210.701 979.831 209.74C978.954 208.769 978.515 207.495 978.515 205.918C978.515 204.341 978.954 203.071 979.831 202.11C980.709 201.149 981.885 200.668 983.359 200.668C984.834 200.668 986.01 201.149 986.887 202.11C987.765 203.071 988.203 204.341 988.203 205.918C988.203 207.495 987.765 208.769 986.887 209.74ZM981.189 208.718C981.759 209.39 982.482 209.726 983.359 209.726C984.237 209.726 984.955 209.39 985.515 208.718C986.085 208.046 986.369 207.113 986.369 205.918C986.369 204.723 986.085 203.795 985.515 203.132C984.955 202.46 984.237 202.124 983.359 202.124C982.482 202.124 981.759 202.46 981.189 203.132C980.629 203.795 980.349 204.723 980.349 205.918C980.349 207.113 980.629 208.046 981.189 208.718ZM993.891 200.85C994.395 200.85 994.834 200.869 995.207 200.906C995.581 200.943 995.963 201.027 996.355 201.158C996.757 201.289 997.083 201.466 997.335 201.69C997.587 201.914 997.793 202.227 997.951 202.628C998.119 203.02 998.203 203.491 998.203 204.042C998.203 204.658 998.096 205.181 997.881 205.61C997.667 206.03 997.354 206.352 996.943 206.576C996.533 206.791 996.085 206.945 995.599 207.038C995.123 207.122 994.563 207.164 993.919 207.164H992.323V211H990.545V200.85H993.891ZM992.323 202.278V205.708H993.975C994.759 205.708 995.352 205.601 995.753 205.386C996.155 205.162 996.355 204.719 996.355 204.056C996.355 203.664 996.29 203.342 996.159 203.09C996.029 202.838 995.833 202.656 995.571 202.544C995.31 202.432 995.058 202.362 994.815 202.334C994.573 202.297 994.265 202.278 993.891 202.278H992.323ZM1004.39 211L1001.81 202.782V211H1000.08V200.85H1002.84L1005.3 208.942L1007.75 200.85H1010.51V211H1008.77V202.782L1006.2 211H1004.39ZM1013.25 200.85H1020.43V202.334H1015.02V205.05H1020.13V206.52H1015.02V209.502H1020.43V211H1013.25V200.85ZM1028.58 211L1024.28 202.894V211H1022.56V200.85H1024.94L1029.24 208.956V200.85H1030.96V211H1028.58ZM1035.94 202.334H1032.75V200.85H1040.91V202.334H1037.72V211H1035.94V202.334Z" fill="white"/>
<path d="M496.845 186.394C495.968 186.217 495.258 185.895 494.717 185.428C494.185 184.961 493.919 184.327 493.919 183.524C493.919 182.628 494.302 181.928 495.067 181.424C495.842 180.92 496.738 180.668 497.755 180.668C498.8 180.668 499.673 180.92 500.373 181.424C501.082 181.919 501.535 182.675 501.731 183.692H500.009C499.757 182.647 498.973 182.124 497.657 182.124C497.181 182.124 496.738 182.236 496.327 182.46C495.916 182.684 495.711 183.02 495.711 183.468C495.711 184.168 496.215 184.616 497.223 184.812L498.469 185.05C498.973 185.153 499.407 185.269 499.771 185.4C500.144 185.521 500.504 185.699 500.849 185.932C501.204 186.156 501.474 186.45 501.661 186.814C501.848 187.178 501.941 187.603 501.941 188.088C501.941 189.049 501.54 189.805 500.737 190.356C499.934 190.907 498.992 191.182 497.909 191.182C496.696 191.182 495.706 190.869 494.941 190.244C494.176 189.609 493.742 188.741 493.639 187.64H495.389C495.697 189.031 496.565 189.726 497.993 189.726C498.618 189.726 499.136 189.591 499.547 189.32C499.958 189.049 500.163 188.676 500.163 188.2C500.163 187.416 499.468 186.893 498.077 186.632L496.845 186.394ZM504.075 180.85H511.257V182.334H505.853V185.05H510.963V186.52H505.853V189.502H511.257V191H504.075V180.85ZM515.166 189.502H520.276V191H513.388V180.85H515.166V189.502ZM522.004 180.85H529.186V182.334H523.782V185.05H528.892V186.52H523.782V189.502H529.186V191H522.004V180.85ZM540.011 187.626C539.806 188.755 539.316 189.633 538.541 190.258C537.776 190.874 536.805 191.182 535.629 191.182C534.164 191.182 533.016 190.701 532.185 189.74C531.354 188.779 530.939 187.495 530.939 185.89C530.939 184.294 531.368 183.025 532.227 182.082C533.086 181.139 534.248 180.668 535.713 180.668C536.852 180.668 537.794 180.981 538.541 181.606C539.297 182.222 539.778 183.095 539.983 184.224H538.275C538.126 183.552 537.818 183.034 537.351 182.67C536.894 182.306 536.329 182.124 535.657 182.124C534.817 182.124 534.126 182.455 533.585 183.118C533.044 183.781 532.773 184.705 532.773 185.89C532.773 187.085 533.039 188.023 533.571 188.704C534.112 189.385 534.803 189.726 535.643 189.726C536.343 189.726 536.922 189.549 537.379 189.194C537.846 188.83 538.154 188.307 538.303 187.626H540.011ZM544.019 182.334H540.827V180.85H548.989V182.334H545.797V191H544.019V182.334ZM552.556 191H550.778V180.85H552.556V191ZM563.272 189.74C562.395 190.701 561.219 191.182 559.744 191.182C558.27 191.182 557.094 190.701 556.216 189.74C555.339 188.769 554.9 187.495 554.9 185.918C554.9 184.341 555.339 183.071 556.216 182.11C557.094 181.149 558.27 180.668 559.744 180.668C561.219 180.668 562.395 181.149 563.272 182.11C564.15 183.071 564.588 184.341 564.588 185.918C564.588 187.495 564.15 188.769 563.272 189.74ZM557.574 188.718C558.144 189.39 558.867 189.726 559.744 189.726C560.622 189.726 561.34 189.39 561.9 188.718C562.47 188.046 562.754 187.113 562.754 185.918C562.754 184.723 562.47 183.795 561.9 183.132C561.34 182.46 560.622 182.124 559.744 182.124C558.867 182.124 558.144 182.46 557.574 183.132C557.014 183.795 556.734 184.723 556.734 185.918C556.734 187.113 557.014 188.046 557.574 188.718ZM572.95 191L568.652 182.894V191H566.93V180.85H569.31L573.608 188.956V180.85H575.33V191H572.95ZM589.968 189.74C589.091 190.701 587.915 191.182 586.44 191.182C584.965 191.182 583.789 190.701 582.912 189.74C582.035 188.769 581.596 187.495 581.596 185.918C581.596 184.341 582.035 183.071 582.912 182.11C583.789 181.149 584.965 180.668 586.44 180.668C587.915 180.668 589.091 181.149 589.968 182.11C590.845 183.071 591.284 184.341 591.284 185.918C591.284 187.495 590.845 188.769 589.968 189.74ZM584.27 188.718C584.839 189.39 585.563 189.726 586.44 189.726C587.317 189.726 588.036 189.39 588.596 188.718C589.165 188.046 589.45 187.113 589.45 185.918C589.45 184.723 589.165 183.795 588.596 183.132C588.036 182.46 587.317 182.124 586.44 182.124C585.563 182.124 584.839 182.46 584.27 183.132C583.71 183.795 583.43 184.723 583.43 185.918C583.43 187.113 583.71 188.046 584.27 188.718ZM593.626 180.85H600.71V182.334H595.404V185.05H600.402V186.52H595.404V191H593.626V180.85ZM491.738 202.334H488.546V200.85H496.708V202.334H493.516V211H491.738V202.334ZM498.497 200.85H505.679V202.334H500.275V205.05H505.385V206.52H500.275V209.502H505.679V211H498.497V200.85ZM516.504 207.626C516.298 208.755 515.808 209.633 515.034 210.258C514.268 210.874 513.298 211.182 512.122 211.182C510.656 211.182 509.508 210.701 508.678 209.74C507.847 208.779 507.432 207.495 507.432 205.89C507.432 204.294 507.861 203.025 508.72 202.082C509.578 201.139 510.74 200.668 512.206 200.668C513.344 200.668 514.287 200.981 515.034 201.606C515.79 202.222 516.27 203.095 516.476 204.224H514.768C514.618 203.552 514.31 203.034 513.844 202.67C513.386 202.306 512.822 202.124 512.15 202.124C511.31 202.124 510.619 202.455 510.078 203.118C509.536 203.781 509.266 204.705 509.266 205.89C509.266 207.085 509.532 208.023 510.064 208.704C510.605 209.385 511.296 209.726 512.136 209.726C512.836 209.726 513.414 209.549 513.872 209.194C514.338 208.83 514.646 208.307 514.796 207.626H516.504ZM527.096 200.85V211H525.318V206.52H520.474V211H518.696V200.85H520.474V205.05H525.318V200.85H527.096ZM535.861 211L531.563 202.894V211H529.841V200.85H532.221L536.519 208.956V200.85H538.241V211H535.861ZM548.952 209.74C548.075 210.701 546.899 211.182 545.424 211.182C543.95 211.182 542.774 210.701 541.896 209.74C541.019 208.769 540.58 207.495 540.58 205.918C540.58 204.341 541.019 203.071 541.896 202.11C542.774 201.149 543.95 200.668 545.424 200.668C546.899 200.668 548.075 201.149 548.952 202.11C549.83 203.071 550.268 204.341 550.268 205.918C550.268 207.495 549.83 208.769 548.952 209.74ZM543.254 208.718C543.824 209.39 544.547 209.726 545.424 209.726C546.302 209.726 547.02 209.39 547.58 208.718C548.15 208.046 548.434 207.113 548.434 205.918C548.434 204.723 548.15 203.795 547.58 203.132C547.02 202.46 546.302 202.124 545.424 202.124C544.547 202.124 543.824 202.46 543.254 203.132C542.694 203.795 542.414 204.723 542.414 205.918C542.414 207.113 542.694 208.046 543.254 208.718ZM554.388 209.502H559.498V211H552.61V200.85H554.388V209.502ZM568.454 209.74C567.577 210.701 566.401 211.182 564.926 211.182C563.451 211.182 562.275 210.701 561.398 209.74C560.521 208.769 560.082 207.495 560.082 205.918C560.082 204.341 560.521 203.071 561.398 202.11C562.275 201.149 563.451 200.668 564.926 200.668C566.401 200.668 567.577 201.149 568.454 202.11C569.331 203.071 569.77 204.341 569.77 205.918C569.77 207.495 569.331 208.769 568.454 209.74ZM562.756 208.718C563.325 209.39 564.049 209.726 564.926 209.726C565.803 209.726 566.522 209.39 567.082 208.718C567.651 208.046 567.936 207.113 567.936 205.918C567.936 204.723 567.651 203.795 567.082 203.132C566.522 202.46 565.803 202.124 564.926 202.124C564.049 202.124 563.325 202.46 562.756 203.132C562.196 203.795 561.916 204.723 561.916 205.918C561.916 207.113 562.196 208.046 562.756 208.718ZM580.985 204.07H579.291C579.123 203.445 578.81 202.964 578.353 202.628C577.896 202.292 577.331 202.124 576.659 202.124C575.763 202.124 575.04 202.451 574.489 203.104C573.938 203.757 573.663 204.686 573.663 205.89C573.663 207.103 573.929 208.046 574.461 208.718C575.002 209.39 575.73 209.726 576.645 209.726C576.972 209.726 577.284 209.689 577.583 209.614C577.882 209.53 578.166 209.404 578.437 209.236C578.717 209.068 578.941 208.825 579.109 208.508C579.277 208.191 579.361 207.817 579.361 207.388V207.192H576.771V205.694H581.013V211H579.613L579.557 209.782C578.932 210.715 577.896 211.182 576.449 211.182C575.021 211.182 573.892 210.701 573.061 209.74C572.24 208.779 571.829 207.495 571.829 205.89C571.829 204.303 572.268 203.039 573.145 202.096C574.022 201.144 575.208 200.668 576.701 200.668C577.84 200.668 578.787 200.967 579.543 201.564C580.299 202.161 580.78 202.997 580.985 204.07ZM585.404 211H583.626V200.85H585.404V211ZM588.154 200.85H595.336V202.334H589.932V205.05H595.042V206.52H589.932V209.502H595.336V211H588.154V200.85ZM600.016 206.394C599.138 206.217 598.429 205.895 597.888 205.428C597.356 204.961 597.09 204.327 597.09 203.524C597.09 202.628 597.472 201.928 598.238 201.424C599.012 200.92 599.908 200.668 600.926 200.668C601.971 200.668 602.844 200.92 603.544 201.424C604.253 201.919 604.706 202.675 604.902 203.692H603.18C602.928 202.647 602.144 202.124 600.828 202.124C600.352 202.124 599.908 202.236 599.498 202.46C599.087 202.684 598.882 203.02 598.882 203.468C598.882 204.168 599.386 204.616 600.394 204.812L601.64 205.05C602.144 205.153 602.578 205.269 602.942 205.4C603.315 205.521 603.674 205.699 604.02 205.932C604.374 206.156 604.645 206.45 604.832 206.814C605.018 207.178 605.112 207.603 605.112 208.088C605.112 209.049 604.71 209.805 603.908 210.356C603.105 210.907 602.162 211.182 601.08 211.182C599.866 211.182 598.877 210.869 598.112 210.244C597.346 209.609 596.912 208.741 596.81 207.64H598.56C598.868 209.031 599.736 209.726 601.164 209.726C601.789 209.726 602.307 209.591 602.718 209.32C603.128 209.049 603.334 208.676 603.334 208.2C603.334 207.416 602.638 206.893 601.248 206.632L600.016 206.394Z" fill="white"/>
<path d="M722.154 191H720.376V180.85H722.154V191ZM729.216 191L726.64 182.782V191H724.904V180.85H727.662L730.126 188.942L732.576 180.85H735.334V191H733.598V182.782L731.022 191H729.216ZM740.83 180.85H742.706L746.514 191H744.568L743.77 188.746H739.654L738.87 191H737.05L740.83 180.85ZM740.172 187.262H743.238L741.698 182.908L740.172 187.262ZM756.423 184.07H754.729C754.561 183.445 754.248 182.964 753.791 182.628C753.333 182.292 752.769 182.124 752.097 182.124C751.201 182.124 750.477 182.451 749.927 183.104C749.376 183.757 749.101 184.686 749.101 185.89C749.101 187.103 749.367 188.046 749.899 188.718C750.44 189.39 751.168 189.726 752.083 189.726C752.409 189.726 752.722 189.689 753.021 189.614C753.319 189.53 753.604 189.404 753.875 189.236C754.155 189.068 754.379 188.825 754.547 188.508C754.715 188.191 754.799 187.817 754.799 187.388V187.192H752.209V185.694H756.451V191H755.051L754.995 189.782C754.369 190.715 753.333 191.182 751.887 191.182C750.459 191.182 749.329 190.701 748.499 189.74C747.677 188.779 747.267 187.495 747.267 185.89C747.267 184.303 747.705 183.039 748.583 182.096C749.46 181.144 750.645 180.668 752.139 180.668C753.277 180.668 754.225 180.967 754.981 181.564C755.737 182.161 756.217 182.997 756.423 184.07ZM760.842 191H759.064V180.85H760.842V191ZM769.612 191L765.314 182.894V191H763.592V180.85H765.972L770.27 188.956V180.85H771.992V191H769.612ZM777.496 180.85H779.372L783.18 191H781.234L780.436 188.746H776.32L775.536 191H773.716L777.496 180.85ZM776.838 187.262H779.904L778.364 182.908L776.838 187.262ZM786.154 182.334H782.962V180.85H791.124V182.334H787.932V191H786.154V182.334ZM794.691 191H792.913V180.85H794.691V191ZM798.365 180.85L800.941 188.9L803.447 180.85H805.323L801.851 191H799.947L796.433 180.85H798.365ZM807.055 180.85H814.237V182.334H808.833V185.05H813.943V186.52H808.833V189.502H814.237V191H807.055V180.85ZM742.685 200.85C743.534 200.85 744.285 200.934 744.939 201.102C745.592 201.261 746.185 201.527 746.717 201.9C747.249 202.264 747.655 202.787 747.935 203.468C748.215 204.14 748.355 204.957 748.355 205.918C748.355 206.879 748.215 207.701 747.935 208.382C747.655 209.054 747.249 209.577 746.717 209.95C746.185 210.323 745.592 210.594 744.939 210.762C744.285 210.921 743.534 211 742.685 211H739.913V200.85H742.685ZM742.601 202.278H741.691V209.572H742.601C743.161 209.572 743.641 209.53 744.043 209.446C744.453 209.362 744.859 209.203 745.261 208.97C745.662 208.727 745.97 208.349 746.185 207.836C746.399 207.323 746.507 206.683 746.507 205.918C746.507 205.153 746.399 204.518 746.185 204.014C745.97 203.501 745.662 203.127 745.261 202.894C744.859 202.651 744.453 202.488 744.043 202.404C743.641 202.32 743.161 202.278 742.601 202.278ZM750.675 200.85H757.857V202.334H752.453V205.05H757.563V206.52H752.453V209.502H757.857V211H750.675V200.85ZM762.536 206.394C761.659 206.217 760.95 205.895 760.408 205.428C759.876 204.961 759.61 204.327 759.61 203.524C759.61 202.628 759.993 201.928 760.758 201.424C761.533 200.92 762.429 200.668 763.446 200.668C764.492 200.668 765.364 200.92 766.064 201.424C766.774 201.919 767.226 202.675 767.422 203.692H765.7C765.448 202.647 764.664 202.124 763.348 202.124C762.872 202.124 762.429 202.236 762.018 202.46C761.608 202.684 761.402 203.02 761.402 203.468C761.402 204.168 761.906 204.616 762.914 204.812L764.16 205.05C764.664 205.153 765.098 205.269 765.462 205.4C765.836 205.521 766.195 205.699 766.54 205.932C766.895 206.156 767.166 206.45 767.352 206.814C767.539 207.178 767.632 207.603 767.632 208.088C767.632 209.049 767.231 209.805 766.428 210.356C765.626 210.907 764.683 211.182 763.6 211.182C762.387 211.182 761.398 210.869 760.632 210.244C759.867 209.609 759.433 208.741 759.33 207.64H761.08C761.388 209.031 762.256 209.726 763.684 209.726C764.31 209.726 764.828 209.591 765.238 209.32C765.649 209.049 765.854 208.676 765.854 208.2C765.854 207.416 765.159 206.893 763.768 206.632L762.536 206.394ZM771.545 211H769.767V200.85H771.545V211ZM783.045 204.07H781.351C781.183 203.445 780.87 202.964 780.413 202.628C779.955 202.292 779.391 202.124 778.719 202.124C777.823 202.124 777.099 202.451 776.549 203.104C775.998 203.757 775.723 204.686 775.723 205.89C775.723 207.103 775.989 208.046 776.521 208.718C777.062 209.39 777.79 209.726 778.705 209.726C779.031 209.726 779.344 209.689 779.643 209.614C779.941 209.53 780.226 209.404 780.497 209.236C780.777 209.068 781.001 208.825 781.169 208.508C781.337 208.191 781.421 207.817 781.421 207.388V207.192H778.831V205.694H783.073V211H781.673L781.617 209.782C780.991 210.715 779.955 211.182 778.509 211.182C777.081 211.182 775.951 210.701 775.121 209.74C774.299 208.779 773.889 207.495 773.889 205.89C773.889 204.303 774.327 203.039 775.205 202.096C776.082 201.144 777.267 200.668 778.761 200.668C779.899 200.668 780.847 200.967 781.603 201.564C782.359 202.161 782.839 202.997 783.045 204.07ZM791.706 211L787.408 202.894V211H785.686V200.85H788.066L792.364 208.956V200.85H794.086V211H791.706Z" fill="white"/>
<defs>
<linearGradient id="paint0_linear_32256_83263" x1="1312" y1="108.001" x2="332.234" y2="678.537" gradientUnits="userSpaceOnUse">
<stop stop-color="#F2513A"/>
<stop offset="0.210798" stop-color="#D9E58E"/>
<stop offset="0.406844" stop-color="#94EEA8"/>
<stop offset="0.619313" stop-color="#71D0EF"/>
<stop offset="0.805095" stop-color="#5C96EC"/>
<stop offset="1" stop-color="#8CA1B5"/>
</linearGradient>
</defs>
</svg>
