<svg width="200" height="32" viewBox="0 0 200 32" fill="none" xmlns="http://www.w3.org/2000/svg">
<path d="M40.6831 14.7941C34.8441 11.47 25.8547 7.98105 16.4851 7.1981C4.99712 6.25031 0 9.01126 0 9.01126C0 9.01126 17.2048 8.06347 29.263 15.7282C29.2766 15.7419 29.2902 15.7419 29.2902 15.7419C29.2359 15.9205 29.1816 16.0853 29.1001 16.2501C28.0273 18.5715 24.4968 19.1897 21.2242 17.6375C18.8478 16.5111 17.2455 14.5331 16.9739 12.6513C16.8517 13.2832 16.7974 13.915 16.7974 14.5744C16.7974 20.3297 21.4143 25 27.104 25C30.6074 25 33.717 23.2281 35.5773 20.5221C35.6452 20.4259 37.1118 18.4204 37.8994 17.8023C38.7141 17.1705 40.1263 16.3875 41.4571 16.2227C42.8014 16.0716 41.2941 15.1375 40.6831 14.7941Z" fill="#02021E"/>
<g clip-path="url(#clip0_50886_16071)">
<path d="M114.844 21.9717V16.0592C114.844 11.8669 114.865 10.1805 114.919 10.1128C114.98 10.0451 115.386 10.0248 116.876 10.0248C118.759 10.0248 118.759 10.0248 119.206 10.4311C119.456 10.6546 119.68 10.8375 119.707 10.8375C119.741 10.8375 119.985 11.0948 120.249 11.4132C120.52 11.7315 120.77 11.9888 120.811 11.9888C120.852 11.9888 121.786 12.8896 122.883 13.9868C123.981 15.0839 124.902 15.9847 124.929 15.9847C124.949 15.9847 125.301 16.3369 125.714 16.7635C126.48 17.5695 126.683 17.6846 126.832 17.4137C126.873 17.3257 126.9 16.0524 126.9 13.7362C126.9 11.0678 126.92 10.167 126.981 10.106C127.096 9.9909 130.09 9.9909 130.205 10.106C130.266 10.167 130.286 11.5825 130.286 16.066V21.9446L128.613 21.9378C127.685 21.9378 126.879 21.9107 126.812 21.8836C126.744 21.8633 125.796 20.9626 124.705 19.8925C123.608 18.8292 122.599 17.8539 122.457 17.732C122.308 17.6101 121.529 16.838 120.723 16.0185C118.766 14.0342 118.759 14.0274 118.61 13.98C118.542 13.9529 118.441 13.9868 118.373 14.0477C118.278 14.1493 118.265 14.5557 118.244 18.0503L118.217 21.9446H116.686C115.84 21.9446 115.081 21.9649 115 21.9852C114.912 22.0123 114.844 21.9988 114.844 21.9717ZM50.5039 16.0727C50.5039 12.8354 50.531 10.1534 50.5581 10.106C50.6055 10.0383 51.7027 10.0315 56.0169 10.0586C61.0625 10.0925 62.1055 10.1264 62.5051 10.2889C62.5931 10.3228 62.8166 10.3905 62.9995 10.4379C63.6564 10.6004 64.0628 10.8375 64.5572 11.3387C65.1397 11.9279 65.2683 12.253 65.2683 13.1402C65.2683 13.9935 65.1329 14.3593 64.6249 14.874C64.4014 15.0975 64.0967 15.3413 63.9477 15.4022C63.4533 15.619 63.3381 15.7002 63.3246 15.8628C63.2975 16.0795 63.4126 16.1946 63.8732 16.4181C64.0967 16.5265 64.4421 16.7839 64.652 16.9938C64.9907 17.3324 65.0584 17.4476 65.2209 17.9487C65.3902 18.5041 65.397 18.5921 65.4173 20.2379L65.4377 21.9446H63.8054C61.733 21.9446 61.882 22.0462 61.882 20.6172C61.882 19.283 61.7533 18.6666 61.3876 18.2467C61.2454 18.0842 61.0828 17.9487 61.0286 17.9487C60.9812 17.9487 60.8255 17.881 60.6832 17.7997C60.4259 17.644 60.3988 17.644 57.3646 17.6237C54.3576 17.6033 54.3034 17.6033 54.1611 17.7456C54.0325 17.8742 54.0257 17.9555 54.0257 19.9128V21.9446H50.5039V16.0727ZM60.6765 15.1923C60.7171 15.1449 60.8051 15.1042 60.8661 15.1042C60.9271 15.1042 61.1099 14.9688 61.2725 14.7995C61.5772 14.4879 61.5772 14.4879 61.5772 13.8039C61.5772 13.1266 61.5772 13.1266 61.3334 12.9099C60.8661 12.5103 60.8526 12.5103 57.4324 12.4832C54.3508 12.4561 54.3034 12.4561 54.1611 12.5984C54.0325 12.727 54.0257 12.8151 54.0257 13.8852C54.0257 14.9552 54.0325 15.0433 54.1611 15.172C54.3034 15.3142 54.3576 15.3142 57.4459 15.2939C59.8502 15.2803 60.6087 15.2532 60.6765 15.1923ZM66.6567 21.8701C66.6432 21.8498 66.6906 21.7482 66.7651 21.6331C66.8328 21.5247 67.0699 21.0845 67.2798 20.6578C67.4898 20.2311 67.72 19.7977 67.7878 19.6961C67.8555 19.6013 67.9097 19.4794 67.9097 19.4252C67.9097 19.3778 67.9706 19.2626 68.0451 19.1678C68.1196 19.073 68.1806 18.9511 68.1806 18.8969C68.1806 18.8427 68.2415 18.7208 68.316 18.626C68.3905 18.5312 68.4515 18.4093 68.4515 18.3551C68.4515 18.3009 68.5124 18.179 68.5869 18.0842C68.6614 17.9894 68.7224 17.8675 68.7224 17.8133C68.7224 17.7591 68.7834 17.6372 68.8579 17.5424C68.9324 17.4476 68.9933 17.3257 68.9933 17.2715C68.9933 17.2173 69.0543 17.0954 69.1288 17.0006C69.2033 16.9058 69.2642 16.7839 69.2642 16.7297C69.2642 16.6755 69.3252 16.5536 69.3997 16.4588C69.4742 16.364 69.5351 16.2488 69.5351 16.2014C69.5351 16.154 69.6232 15.9847 69.7248 15.8289C69.8331 15.6731 70.5036 14.3593 71.2215 12.9031C71.9394 11.4538 72.549 10.2144 72.576 10.1602C72.6302 10.0654 73.8629 10.0451 77.3372 10.0925C77.405 10.0925 77.4659 10.167 77.493 10.2957C77.5404 10.5124 78.1025 11.6502 78.3193 11.9685C78.387 12.0701 78.6105 12.4968 78.8137 12.9031C79.0169 13.3163 79.2607 13.77 79.3555 13.919C79.4503 14.068 79.6332 14.4067 79.7619 14.664C79.8905 14.9282 80.0802 15.2668 80.1818 15.4226C80.2833 15.5783 80.3714 15.7409 80.3714 15.7815C80.3714 15.8289 80.4256 15.944 80.4933 16.0389C80.561 16.1405 80.7778 16.5604 80.9809 16.9667C81.1841 17.3798 81.4279 17.8336 81.5228 17.9826C81.6176 18.1316 81.8004 18.4702 81.9291 18.7276C82.0578 18.9917 82.2407 19.3236 82.3355 19.4726C82.4303 19.6216 82.6741 20.0821 82.8773 20.4885C83.0805 20.9016 83.3311 21.3622 83.4326 21.5179C83.5342 21.6737 83.6223 21.8295 83.6223 21.8701C83.6223 21.9243 83.0601 21.9446 81.8411 21.9446C80.2224 21.9446 80.0463 21.9311 79.9515 21.8295C79.8973 21.7617 79.6603 21.3215 79.43 20.8474C79.1929 20.3801 78.9288 19.9196 78.834 19.8315C78.6647 19.6758 78.6647 19.6758 75.021 19.6758C71.3773 19.6758 71.3773 19.6758 71.208 19.8315C71.0387 19.9873 70.2395 21.5247 70.1988 21.7617C70.1785 21.8769 70.0498 21.8836 68.4312 21.8972C67.4627 21.904 66.6703 21.8904 66.6567 21.8701ZM77.2627 17.2715C77.4998 17.1428 77.3846 16.5671 77.0392 16.1405C77.0054 16.0998 76.7683 15.6596 76.5177 15.1584C76.2604 14.664 75.9895 14.1358 75.915 13.9868C75.8405 13.8378 75.6779 13.5194 75.556 13.2756C75.2919 12.7338 75.1768 12.5984 74.9939 12.5984C74.7501 12.5984 74.5808 12.7677 74.3505 13.2553C74.2286 13.5059 74.066 13.8378 73.9915 13.9868C73.7816 14.3999 73.6326 14.6979 73.47 15.0704C73.382 15.26 73.2804 15.47 73.2398 15.5445C73.145 15.7273 73.0908 15.8492 72.9824 16.0863C72.935 16.2014 72.8402 16.364 72.7792 16.4588C72.5828 16.7568 72.5557 17.0412 72.7115 17.197C72.847 17.3324 72.9215 17.3392 74.9939 17.3392C76.3349 17.3392 77.1747 17.3121 77.2627 17.2715ZM88.1532 21.7617C88.0584 21.6534 87.8146 21.2402 87.6182 20.8271C87.415 20.4208 87.1644 19.9534 87.0628 19.7977C86.9612 19.6419 86.8732 19.4726 86.8732 19.4252C86.8732 19.3778 86.8122 19.2626 86.7377 19.1678C86.6632 19.073 86.6023 18.9579 86.6023 18.9105C86.6023 18.8563 86.5481 18.7344 86.4803 18.6396C86.4126 18.538 86.1959 18.1248 85.9927 17.7117C85.7895 17.3053 85.5389 16.838 85.4374 16.6823C85.3358 16.5265 85.2477 16.3572 85.2477 16.3098C85.2477 16.2624 85.1868 16.1472 85.1123 16.0524C85.0378 15.9576 84.9768 15.8425 84.9768 15.795C84.9768 15.7409 84.9226 15.619 84.8549 15.5241C84.7872 15.4226 84.5095 14.8875 84.2318 14.3254C83.9541 13.77 83.6426 13.1808 83.541 13.025C83.4394 12.8693 83.3514 12.7 83.3514 12.6525C83.3514 12.6051 83.2904 12.49 83.2159 12.3952C83.1414 12.3004 83.0805 12.1785 83.0805 12.1243C83.0805 12.0633 83.0534 11.9888 83.0195 11.955C82.9653 11.9008 81.9968 10.0519 81.9968 10.0044C81.9968 9.99768 82.8366 9.99768 83.8593 10.0112C85.715 10.0315 85.715 10.0315 85.9182 10.2347C86.0333 10.3499 86.1756 10.553 86.2365 10.6885C86.5345 11.3657 86.7106 11.7382 86.9951 12.2936C87.0696 12.4426 87.1712 12.6593 87.2186 12.7677C87.2728 12.8828 87.3947 13.0995 87.4962 13.2553C87.5978 13.4111 87.6859 13.5601 87.6859 13.5939C87.6859 13.621 87.7468 13.77 87.8146 13.919C88.0042 14.3051 88.458 15.2261 88.6205 15.5445L89.0269 16.3572L89.4332 17.1699L89.9005 18.1045C90.0766 18.4702 90.2798 18.8021 90.3475 18.8427C90.5643 18.9579 90.8013 18.8495 90.9164 18.5718C91.1874 17.9013 91.4244 17.3731 91.5531 17.1225C91.5869 17.0548 91.6411 16.9464 91.675 16.8854C91.9662 16.3165 92.5622 15.0568 92.5622 15.0094C92.5622 14.9756 92.7451 14.5624 92.9753 14.0951C93.1988 13.6278 93.4427 13.1063 93.5239 12.937C93.6729 12.6119 93.7203 12.5035 93.8287 12.2936C93.8693 12.2191 94.0319 11.8872 94.1876 11.5486C94.3434 11.2167 94.5263 10.8172 94.6008 10.6682C94.6685 10.5192 94.7295 10.3634 94.7295 10.3228C94.7295 10.2821 94.7836 10.2009 94.8514 10.1399C94.9597 10.0383 95.19 10.0248 96.68 10.0248C97.6214 10.0248 98.3867 10.0383 98.3867 10.0586C98.3867 10.0789 98.3596 10.1467 98.3325 10.2144C98.2377 10.404 98.1429 10.5937 98.0684 10.7359C97.9465 10.9662 96.6258 13.6955 96.4768 14.0206C96.3481 14.3051 96.3075 14.3931 96.1585 14.6776C96.1246 14.7453 96.0163 14.9688 95.9215 15.172C95.8266 15.3751 95.7047 15.619 95.6505 15.7138C95.5422 15.9034 94.5195 18.03 94.3096 18.4906C94.2351 18.6599 94.147 18.8495 94.1131 18.9172C94.0793 18.9782 94.0251 19.0865 93.9912 19.1543C93.9574 19.2152 93.6797 19.7909 93.3749 20.4208C93.0702 21.0574 92.7857 21.6466 92.7383 21.7414C92.657 21.9107 92.657 21.9107 90.4898 21.9311C88.3225 21.9446 88.3225 21.9446 88.1532 21.7617ZM99.9444 16.0524V10.1602H112.399L112.42 11.3522C112.433 12.0091 112.42 12.5577 112.393 12.5713C112.366 12.5916 110.361 12.5984 107.936 12.5916C105.512 12.5848 103.514 12.5984 103.493 12.6187C103.405 12.7067 103.331 13.2079 103.331 13.77C103.331 14.7317 102.836 14.6369 107.936 14.6166L112.271 14.5963V17.1022H107.936C103.873 17.1022 103.602 17.1089 103.487 17.2241C103.378 17.3257 103.365 17.4747 103.365 18.2874C103.365 19.1001 103.378 19.2491 103.487 19.3507C103.602 19.4658 103.886 19.4726 108.072 19.4929L112.542 19.5132V21.9446H99.9444V16.0524Z" fill="black"/>
</g>
<defs>
<clipPath id="clip0_50886_16071">
<rect width="79.7821" height="12" fill="white" transform="translate(50.5 10)"/>
</clipPath>
</defs>
</svg>
