<svg width="91" height="25" viewBox="0 0 91 25" fill="none" xmlns="http://www.w3.org/2000/svg">
<path d="M27.8899 0H23.7266V24.9905H27.8899V0Z" fill="white"/>
<path d="M42.4675 17.0484C42.4675 20.805 39.1179 21.1551 38.2127 21.1551C35.7684 21.1551 35.2258 18.884 35.2258 17.4838V8.04944H31.0625V17.572C31.0625 19.9313 31.8763 21.8523 33.1442 23.2526C34.3206 24.3881 36.1311 25 38.1243 25C39.5721 25 41.4739 24.6499 42.3791 23.6027V25H46.5425V8.04944H42.3791V17.0484H42.4675Z" fill="white"/>
<path d="M54.769 2.00903H50.6057V8.0397H47.5273V12.0582H50.6057V24.9903H54.769V12.0582H57.8473V8.0397H54.769V2.00903Z" fill="white"/>
<path d="M70.907 19.9271C70.0018 20.7126 68.8253 21.1509 67.5574 21.1509C64.662 21.1509 62.5773 19.1417 62.5773 16.2587C62.5773 13.3758 64.6589 11.4519 67.5574 11.4519C68.8253 11.4519 70.0018 11.8019 70.907 12.6756L71.541 13.1993L74.2566 10.5781L73.6226 9.96626C71.9037 8.56891 69.8189 7.6952 67.5574 7.6952C62.3975 7.60694 58.5938 11.19 58.5938 16.2587C58.5938 21.1509 62.4858 24.9105 67.5574 24.9105C69.9104 24.9105 72.0835 24.1251 73.8055 22.6395L74.4395 22.0276L71.544 19.2329L70.907 19.9271Z" fill="white"/>
<path d="M89.1784 9.52551C88.0019 8.38998 86.5542 7.77808 84.6524 7.77808C83.2046 7.77808 81.6655 8.12816 80.5774 9.17543V0H76.4141V24.9905H80.5774V15.5532C80.5774 11.7966 83.4729 11.4465 84.3811 11.4465C86.8255 11.4465 86.8255 13.7176 86.8255 15.1178V24.9905H90.9888V15.0296C91.0803 12.8438 90.5377 10.8346 89.1784 9.52551Z" fill="white"/>
<path d="M67.358 19.2281C69.0076 19.2281 70.3449 17.9373 70.3449 16.3451C70.3449 14.7529 69.0076 13.4622 67.358 13.4622C65.7084 13.4622 64.3711 14.7529 64.3711 16.3451C64.3711 17.9373 65.7084 19.2281 67.358 19.2281Z" fill="#FF3D2E"/>
<path d="M18.0158 18.6954C16.4766 20.181 14.2121 21.0547 12.042 21.0547C7.3331 21.0547 3.98352 17.5598 3.98352 12.753C3.98352 7.94607 7.3331 4.45123 11.9506 4.45123C14.1237 4.45123 16.2054 5.32494 17.9243 6.81054L18.5583 7.42244L21.2739 4.8013L20.64 4.18941C18.287 1.91835 15.2087 0.69751 11.9506 0.69751C5.06855 0.782822 0 5.93978 0 12.8412C0 19.7456 5.06855 24.8996 11.9506 24.8996C15.3001 24.8996 18.4699 23.6758 20.64 21.4048L21.2739 20.7929L18.5583 17.9982L18.0158 18.6954Z" fill="white"/>
</svg>
